<?xml version="1.0" standalone="no"?>
<!DOCTYPE svg PUBLIC "-//W3C//DTD SVG 1.1//EN" "http://www.w3.org/Graphics/SVG/1.1/DTD/svg11.dtd" >
<svg xmlns="http://www.w3.org/2000/svg" xmlns:xlink="http://www.w3.org/1999/xlink" version="1.1">
<metadata>
Created by FontForge 20190801 at Fri Feb 21 00:08:23 2014
 By Jimmy Wärting
2005 Albert-Jan Pool published by FSI ../fontshop International GmbH
</metadata>
<defs>
<font id="DINPro-Light" horiz-adv-x="514" >
  <font-face 
    font-family="DIN Pro Light"
    font-weight="300"
    font-stretch="normal"
    units-per-em="1000"
    panose-1="2 11 5 4 2 1 1 1 1 2"
    ascent="800"
    descent="-200"
    x-height="482"
    cap-height="712"
    bbox="-170 -236 1174 1132"
    underline-thickness="38"
    underline-position="-141"
    stemh="45"
    stemv="51"
    unicode-range="U+000D-FEFF"
  />
<missing-glyph horiz-adv-x="559" 
d="M462 0h-365v712h365v-712zM424 38v636h-289v-636h289z" />
    <glyph glyph-name=".notdef" horiz-adv-x="559" 
d="M462 0h-365v712h365v-712zM424 38v636h-289v-636h289z" />
    <glyph glyph-name=".null" horiz-adv-x="0" 
 />
    <glyph glyph-name=".null" horiz-adv-x="0" 
 />
    <glyph glyph-name="CR" unicode="&#xd;" horiz-adv-x="255" 
 />
    <glyph glyph-name="space" unicode=" " horiz-adv-x="255" 
 />
    <glyph glyph-name="exclam" unicode="!" horiz-adv-x="304" 
d="M194 712l-3 -520h-49l-3 520h55zM200 0h-67v67h67v-67z" />
    <glyph glyph-name="quotedbl" unicode="&#x22;" horiz-adv-x="408" 
d="M158 556h-63v156h63v-156zM313 556h-63v156h63v-156z" />
    <glyph glyph-name="numbersign" unicode="#" horiz-adv-x="639" 
d="M588 437h-100l-25 -153h96v-44h-103l-38 -240h-51l39 240h-176l-37 -240h-51l38 240h-96v44h103l25 153h-99v45h105l36 230h52l-37 -230h175l36 230h50l-36 -230h94v-45zM412 284l25 153h-175l-25 -153h175z" />
    <glyph glyph-name="dollar" unicode="$" horiz-adv-x="587" 
d="M528 191c0 -115 -82 -189 -218 -196v-109h-45v108c-93 4 -153 33 -214 94l38 38c58 -58 105 -78 176 -83v295c-67 7 -116 31 -143 54c-37 32 -56 76 -56 131c0 113 75 186 199 194v89h45v-89c76 -4 126 -28 182 -76l-35 -35c-39 35 -79 60 -147 65v-290
c98 -16 127 -27 156 -52c39 -32 62 -81 62 -138zM265 671c-92 -7 -146 -62 -146 -146c0 -41 12 -72 37 -93c32 -27 71 -39 109 -44v283zM474 189c0 43 -12 77 -39 100c-35 30 -62 31 -125 41v-287c101 7 164 58 164 146z" />
    <glyph glyph-name="percent" unicode="%" horiz-adv-x="828" 
d="M288 480v103c0 60 -24 98 -87 98s-88 -38 -88 -98v-103c0 -60 25 -97 88 -97s87 37 87 97zM332 478c0 -80 -53 -133 -131 -133s-132 53 -132 133v107c0 80 54 134 132 134s131 -54 131 -134v-107zM271 0h-45l332 712h45zM715 128v103c0 60 -24 98 -87 98s-88 -38 -88 -98
v-103c0 -60 25 -97 88 -97s87 37 87 97zM759 126c0 -80 -53 -133 -131 -133s-132 53 -132 133v107c0 80 54 134 132 134s131 -54 131 -134v-107z" />
    <glyph glyph-name="ampersand" unicode="&#x26;" horiz-adv-x="746" 
d="M662 0h-69l-69 84c-27 -27 -102 -90 -219 -90c-131 0 -221 82 -221 203c0 109 74 161 163 221c-37 45 -79 96 -79 158c0 80 65 142 145 142s145 -63 145 -143c0 -59 -37 -97 -82 -128l-53 -36l204 -247c32 48 42 87 42 177h53c0 -89 -17 -161 -62 -217zM278 382
c-75 -50 -140 -95 -140 -182c0 -93 67 -158 166 -158c57 0 118 15 190 79zM405 575c0 55 -40 95 -92 95s-91 -39 -91 -92c0 -36 14 -65 70 -131c66 42 113 73 113 128z" />
    <glyph glyph-name="quotesingle" unicode="'" horiz-adv-x="253" 
d="M158 556h-63v156h63v-156z" />
    <glyph glyph-name="parenleft" unicode="(" horiz-adv-x="284" 
d="M97 79v554c0 32 3 62 19 93c15 29 32 46 66 80l37 -37c-23 -23 -42 -40 -54 -65c-11 -21 -14 -46 -14 -77v-542c0 -31 3 -56 14 -77c12 -25 31 -42 54 -65l-37 -37c-35 35 -51 51 -66 80c-17 33 -19 59 -19 93z" />
    <glyph glyph-name="parenright" unicode=")" horiz-adv-x="284" 
d="M187 79c0 -34 -2 -60 -19 -93c-15 -29 -31 -45 -66 -80l-37 37c23 23 42 40 54 65c11 21 14 46 14 77v542c0 31 -3 56 -14 77c-12 25 -31 42 -54 65l37 37c34 -34 51 -51 66 -80c16 -31 19 -61 19 -93v-554z" />
    <glyph glyph-name="asterisk" unicode="*" horiz-adv-x="467" 
d="M395 476l-22 -38l-120 73l3 -141h-45l3 141l-120 -73l-22 38l123 68l-123 68l22 38l120 -73l-3 141h45l-3 -141l120 73l22 -38l-123 -68z" />
    <glyph glyph-name="plus" unicode="+" 
d="M461 240h-180v-181h-47v181h-181v47h181v180h47v-180h180v-47z" />
    <glyph glyph-name="comma" unicode="," horiz-adv-x="258" 
d="M163 -68l-68 -68v204h68v-136z" />
    <glyph glyph-name="hyphen" unicode="-" horiz-adv-x="426" 
d="M344 240h-262v47h262v-47z" />
    <glyph glyph-name="period" unicode="." horiz-adv-x="264" 
d="M169 0h-74v74h74v-74z" />
    <glyph glyph-name="slash" unicode="/" horiz-adv-x="338" 
d="M338 786l-285 -860h-53l285 860h53z" />
    <glyph glyph-name="zero" unicode="0" 
d="M444 184c0 -111 -77 -190 -187 -190s-187 79 -187 190v344c0 111 77 190 187 190s187 -79 187 -190v-344zM393 189v334c0 84 -47 150 -136 150s-136 -66 -136 -150v-334c0 -84 47 -150 136 -150s136 66 136 150z" />
    <glyph glyph-name="one" unicode="1" 
d="M313 0h-51v654l-129 -114v61l129 111h51v-712z" />
    <glyph glyph-name="two" unicode="2" 
d="M449 0h-377v45l286 375c28 36 40 70 40 111c0 85 -50 142 -137 142c-74 0 -137 -42 -137 -142h-51c0 106 71 187 188 187c114 0 188 -75 188 -187c0 -53 -13 -90 -49 -137l-267 -349h316v-45z" />
    <glyph glyph-name="three" unicode="3" 
d="M447 190c0 -127 -87 -197 -202 -197c-111 0 -195 57 -203 180h51c8 -97 77 -135 152 -135c85 0 151 57 151 152c0 96 -46 152 -155 152h-12v45h12c96 0 141 51 141 143c0 93 -61 144 -138 144c-84 0 -133 -50 -142 -130h-51c11 112 89 175 193 175
c112 0 189 -74 189 -189c0 -76 -29 -131 -101 -162c80 -27 115 -87 115 -178z" />
    <glyph glyph-name="four" unicode="4" 
d="M471 117h-95v-117h-51v117h-282v45l262 550h54l-262 -550h228v226h51v-226h95v-45z" />
    <glyph glyph-name="five" unicode="5" 
d="M451 233c0 -68 -4 -138 -55 -189c-34 -34 -80 -51 -137 -51c-59 0 -106 16 -137 48c-28 28 -44 67 -48 116h51c11 -76 50 -119 134 -119c39 0 75 13 98 36c42 42 43 105 43 159c0 89 -17 190 -133 190c-65 0 -114 -27 -129 -75h-45v364h342v-45h-297v-252
c31 35 76 53 135 53c51 0 91 -14 120 -43c51 -51 58 -125 58 -192z" />
    <glyph glyph-name="six" unicode="6" 
d="M448 201c0 -114 -68 -207 -188 -207s-189 84 -189 200c0 47 11 89 40 149l183 369h51l-164 -329c24 11 52 17 83 17c116 0 184 -88 184 -199zM397 197c0 85 -47 158 -138 158c-84 0 -137 -62 -137 -158s53 -158 137 -158s138 62 138 158z" />
    <glyph glyph-name="seven" unicode="7" 
d="M459 667l-252 -667h-52l252 667h-270v-112h-51v157h373v-45z" />
    <glyph glyph-name="eight" unicode="8" 
d="M460 192c0 -114 -88 -198 -203 -198s-203 84 -203 198c0 83 45 142 113 178c-64 35 -98 89 -98 162c0 104 77 186 188 186s188 -82 188 -186c0 -73 -32 -127 -97 -162c68 -36 112 -95 112 -178zM409 192c0 87 -66 154 -152 154s-152 -67 -152 -154
c0 -88 66 -153 152 -153s152 65 152 153zM394 532c0 83 -56 141 -137 141s-137 -58 -137 -141s56 -141 137 -141s137 58 137 141z" />
    <glyph glyph-name="nine" unicode="9" 
d="M443 518c0 -47 -11 -89 -40 -149l-183 -369h-51l164 329c-24 -11 -52 -17 -84 -17c-117 0 -183 88 -183 199c0 114 68 207 188 207s189 -84 189 -200zM392 515c0 96 -54 158 -138 158s-137 -62 -137 -158c0 -85 46 -158 137 -158c84 0 138 62 138 158z" />
    <glyph glyph-name="colon" unicode=":" horiz-adv-x="292" 
d="M197 0h-74v74h74v-74zM197 312h-74v74h74v-74z" />
    <glyph glyph-name="semicolon" unicode=";" horiz-adv-x="292" 
d="M193 -68l-68 -68v204h68v-136zM197 312h-74v74h74v-74z" />
    <glyph glyph-name="less" unicode="&#x3c;" 
d="M409 78l-304 161v48l304 161v-55l-254 -130l254 -130v-55z" />
    <glyph glyph-name="equal" unicode="=" 
d="M461 163h-408v47h408v-47zM461 316h-408v47h408v-47z" />
    <glyph glyph-name="greater" unicode="&#x3e;" 
d="M409 239l-304 -161v55l254 130l-254 130v55l304 -161v-48z" />
    <glyph glyph-name="question" unicode="?" horiz-adv-x="488" 
d="M438 542c0 -47 -17 -80 -44 -119l-85 -125c-13 -19 -18 -44 -18 -60v-47h-51v45c0 39 9 61 29 90l84 124c20 31 34 53 34 92c0 75 -55 131 -128 131c-78 0 -128 -61 -128 -131h-51c0 96 72 176 179 176c102 0 179 -76 179 -176zM299 0h-67v67h67v-67z" />
    <glyph glyph-name="at" unicode="@" horiz-adv-x="697" 
d="M620 0h-51v59c-33 -45 -75 -66 -139 -66c-59 0 -106 22 -139 65c-31 42 -43 92 -43 183c0 88 11 141 39 181c29 43 82 67 142 67c61 0 105 -21 140 -68v89c0 57 -10 88 -41 119c-29 29 -63 42 -114 42h-132c-51 0 -84 -13 -113 -42c-31 -31 -41 -60 -41 -119v-353
c0 -68 12 -92 62 -129l-35 -35c-61 43 -78 77 -78 164v350c0 64 20 115 55 151s82 54 141 54h150c59 0 106 -19 141 -54c37 -37 56 -88 56 -151v-507zM569 241c0 98 -15 203 -135 203s-135 -105 -135 -203s15 -203 135 -203s135 105 135 203z" />
    <glyph glyph-name="A" unicode="A" horiz-adv-x="602" 
d="M587 0h-58l-62 173h-332l-62 -173h-58l262 712h48zM301 640l-149 -419h298z" />
    <glyph glyph-name="B" unicode="B" horiz-adv-x="671" 
d="M589 194c0 -127 -84 -194 -209 -194h-270v712h262c118 0 206 -69 206 -186c0 -75 -42 -137 -111 -160c77 -27 122 -89 122 -172zM535 194c0 92 -64 146 -161 146h-210v-292h210c97 0 161 54 161 146zM524 526c0 98 -72 138 -158 138h-202v-276h202c86 0 158 40 158 138z
" />
    <glyph glyph-name="C" unicode="C" horiz-adv-x="644" 
d="M568 202c-24 -128 -116 -208 -242 -208c-71 0 -131 26 -173 68c-66 66 -71 121 -71 294s5 228 71 294c42 42 102 68 173 68c128 0 218 -80 242 -208h-55c-21 99 -91 160 -187 160c-52 0 -98 -18 -135 -55c-51 -51 -55 -109 -55 -259s4 -208 55 -259
c37 -37 83 -55 135 -55c96 0 168 61 189 160h53z" />
    <glyph glyph-name="D" unicode="D" horiz-adv-x="678" 
d="M596 356c0 -106 -1 -223 -69 -291c-43 -43 -103 -65 -178 -65h-239v712h239c75 0 135 -22 178 -65c68 -68 69 -185 69 -291zM542 356c0 94 0 197 -53 253c-41 43 -96 55 -153 55h-172v-616h172c57 0 112 12 153 55c53 56 53 159 53 253z" />
    <glyph glyph-name="E" unicode="E" horiz-adv-x="598" 
d="M542 0h-432v712h432v-48h-378v-281h322v-48h-322v-287h378v-48z" />
    <glyph glyph-name="F" unicode="F" horiz-adv-x="576" 
d="M542 664h-378v-293h322v-48h-322v-323h-54v712h432v-48z" />
    <glyph glyph-name="G" unicode="G" horiz-adv-x="651" 
d="M571 248c0 -75 -16 -125 -58 -172c-46 -51 -115 -82 -187 -82c-71 0 -131 26 -173 68c-66 66 -71 121 -71 294s5 228 71 294c42 42 102 68 173 68c124 0 222 -83 243 -208h-54c-21 99 -93 160 -189 160c-52 0 -98 -18 -135 -55c-51 -51 -55 -109 -55 -259s4 -208 55 -259
c37 -37 83 -55 135 -55c56 0 111 24 148 69c31 39 43 80 43 141v64h-191v48h245v-116z" />
    <glyph glyph-name="H" unicode="H" horiz-adv-x="699" 
d="M589 0h-54v335h-371v-335h-54v712h54v-329h371v329h54v-712z" />
    <glyph glyph-name="I" unicode="I" horiz-adv-x="274" 
d="M164 0h-54v712h54v-712z" />
    <glyph glyph-name="J" unicode="J" horiz-adv-x="498" 
d="M398 210c0 -130 -83 -216 -212 -216c-63 0 -115 20 -156 61l37 37c27 -27 56 -50 119 -50c103 0 158 64 158 179v491h54v-502z" />
    <glyph glyph-name="K" unicode="K" horiz-adv-x="645" 
d="M627 0h-64l-229 399l-170 -206v-193h-54v712h54v-445l361 445h65l-220 -272z" />
    <glyph glyph-name="L" unicode="L" horiz-adv-x="572" 
d="M542 0h-432v712h54v-664h378v-48z" />
    <glyph glyph-name="M" unicode="M" horiz-adv-x="818" 
d="M708 0h-54v587l-216 -487h-54l-220 487v-587h-54v712h54l248 -549l242 549h54v-712z" />
    <glyph glyph-name="N" unicode="N" horiz-adv-x="739" 
d="M629 0h-54l-411 619v-619h-54v712h54l411 -617v617h54v-712z" />
    <glyph glyph-name="O" unicode="O" horiz-adv-x="652" 
d="M570 356c0 -173 -5 -228 -71 -294c-42 -42 -102 -68 -173 -68s-131 26 -173 68c-66 66 -71 121 -71 294s5 228 71 294c42 42 102 68 173 68s131 -26 173 -68c66 -66 71 -121 71 -294zM516 356c0 150 -4 208 -55 259c-37 37 -83 55 -135 55s-98 -18 -135 -55
c-51 -51 -55 -109 -55 -259s4 -208 55 -259c37 -37 83 -55 135 -55s98 18 135 55c51 51 55 109 55 259z" />
    <glyph glyph-name="P" unicode="P" horiz-adv-x="631" 
d="M586 507c0 -130 -92 -205 -215 -205h-207v-302h-54v712h261c123 0 215 -75 215 -205zM532 507c0 107 -68 157 -167 157h-201v-314h201c99 0 167 50 167 157z" />
    <glyph glyph-name="Q" unicode="Q" horiz-adv-x="651" 
d="M570 356c0 -154 -4 -214 -51 -272l84 -84l-36 -36l-84 83c-40 -33 -95 -53 -157 -53c-71 0 -131 26 -173 68c-66 66 -71 121 -71 294s5 228 71 294c42 42 102 68 173 68s131 -26 173 -68c66 -66 71 -121 71 -294zM516 356c0 150 -4 208 -55 259c-37 37 -83 55 -135 55
s-98 -18 -135 -55c-51 -51 -55 -109 -55 -259s4 -208 55 -259c37 -37 83 -55 135 -55c45 0 86 13 121 42l-100 100l36 36l98 -99c32 47 35 108 35 235z" />
    <glyph glyph-name="R" unicode="R" horiz-adv-x="657" 
d="M593 0h-63l-170 328h-196v-328h-54v712h271c116 0 204 -67 204 -191c0 -107 -64 -175 -164 -192zM531 520c0 99 -65 144 -157 144h-210v-288h210c92 0 157 45 157 144z" />
    <glyph glyph-name="S" unicode="S" horiz-adv-x="587" 
d="M528 191c0 -120 -91 -197 -240 -197c-105 0 -172 29 -237 94l38 38c64 -64 117 -84 202 -84c113 0 183 54 183 147c0 43 -12 77 -39 100c-25 22 -46 29 -103 38l-83 13c-54 8 -96 24 -127 51c-37 31 -56 75 -56 132c0 119 84 195 221 195c88 0 144 -24 205 -77l-35 -35
c-42 40 -89 66 -173 66c-104 0 -165 -56 -165 -147c0 -41 11 -73 36 -94s62 -35 102 -41l83 -13c66 -10 94 -21 127 -49c38 -33 61 -79 61 -137z" />
    <glyph glyph-name="T" unicode="T" horiz-adv-x="539" 
d="M509 664h-213v-664h-54v664h-212v48h479v-48z" />
    <glyph glyph-name="U" unicode="U" horiz-adv-x="688" 
d="M588 231c0 -139 -101 -237 -244 -237s-244 98 -244 237v481h54v-474c0 -118 75 -196 190 -196s190 78 190 196v474h54v-481z" />
    <glyph glyph-name="V" unicode="V" horiz-adv-x="534" 
d="M524 712l-234 -712h-46l-234 712h57l200 -617l200 617h57z" />
    <glyph glyph-name="W" unicode="W" horiz-adv-x="842" 
d="M822 712l-178 -712h-55l-168 620l-168 -620h-55l-178 712h57l150 -619l166 619h56l166 -619l150 619h57z" />
    <glyph glyph-name="X" unicode="X" horiz-adv-x="532" 
d="M514 0h-63l-186 317l-186 -317h-61l218 365l-204 347h63l170 -299l171 299h62l-204 -347z" />
    <glyph glyph-name="Y" unicode="Y" horiz-adv-x="494" 
d="M484 712l-210 -417v-295h-54v295l-210 417h58l181 -360l177 360h58z" />
    <glyph glyph-name="Z" unicode="Z" horiz-adv-x="559" 
d="M496 0h-433v57l375 607h-360v48h418v-48l-378 -616h378v-48z" />
    <glyph glyph-name="bracketleft" unicode="[" horiz-adv-x="290" 
d="M245 -74h-148v860h148v-45h-97v-770h97v-45z" />
    <glyph glyph-name="backslash" unicode="\" horiz-adv-x="338" 
d="M338 -74h-53l-285 860h53z" />
    <glyph glyph-name="bracketright" unicode="]" horiz-adv-x="293" 
d="M196 -74h-151v42h100v776h-100v42h151v-860z" />
    <glyph glyph-name="asciicircum" unicode="^" 
d="M438 422h-51l-130 242l-130 -242h-51l158 296h46z" />
    <glyph glyph-name="underscore" unicode="_" 
d="M514 -160h-514v38h514v-38z" />
    <glyph glyph-name="grave" unicode="`" horiz-adv-x="500" 
d="M297 590h-58l-106 147h67z" />
    <glyph glyph-name="a" unicode="a" horiz-adv-x="524" 
d="M431 0h-51v48c-41 -41 -79 -54 -147 -54c-72 0 -111 12 -142 44c-23 23 -35 58 -35 94c0 88 63 139 168 139h156v54c0 77 -37 118 -136 118c-68 0 -102 -17 -133 -61l-37 32c41 57 91 74 170 74c128 0 187 -57 187 -158v-330zM380 168v62h-150c-82 0 -123 -32 -123 -97
c0 -64 38 -94 126 -94c44 0 85 4 120 37c18 17 27 48 27 92z" />
    <glyph glyph-name="b" unicode="b" horiz-adv-x="540" 
d="M471 241c0 -76 -13 -156 -62 -205c-25 -25 -67 -42 -118 -42c-55 0 -100 12 -143 68v-62h-51v712h51v-292c43 56 88 68 143 68c51 0 93 -17 118 -42c49 -49 62 -129 62 -205zM420 241c0 100 -18 202 -136 202s-136 -102 -136 -202s18 -202 136 -202s136 102 136 202z" />
    <glyph glyph-name="c" unicode="c" horiz-adv-x="493" 
d="M440 68c-51 -57 -93 -74 -159 -74c-132 0 -212 94 -212 247s80 247 212 247c66 0 108 -17 159 -74l-35 -32c-41 46 -73 61 -124 61c-55 0 -99 -21 -128 -64c-24 -35 -33 -73 -33 -138s9 -103 33 -138c29 -43 73 -64 128 -64c51 0 83 16 124 61z" />
    <glyph glyph-name="d" unicode="d" horiz-adv-x="540" 
d="M443 0h-51v62c-43 -56 -88 -68 -143 -68c-51 0 -93 17 -118 42c-49 49 -62 129 -62 205s13 156 62 205c25 25 67 42 118 42c55 0 100 -12 143 -68v292h51v-712zM392 241c0 100 -18 202 -136 202s-136 -102 -136 -202s18 -202 136 -202s136 102 136 202z" />
    <glyph glyph-name="e" unicode="e" horiz-adv-x="523" 
d="M455 230h-335c0 -123 54 -190 157 -190c57 0 92 17 133 58l38 -30c-49 -49 -94 -74 -174 -74c-133 0 -205 86 -205 247c0 156 72 247 193 247s193 -87 193 -235v-23zM404 271c-3 46 -4 62 -17 91c-21 51 -69 81 -125 81s-102 -31 -125 -81c-13 -29 -14 -45 -17 -91h284z
" />
    <glyph glyph-name="f" unicode="f" horiz-adv-x="304" 
d="M272 444h-109v-444h-51v444h-66v38h66v104c0 73 40 126 116 126h44v-45h-35c-51 0 -74 -29 -74 -80v-105h109v-38z" />
    <glyph glyph-name="g" unicode="g" horiz-adv-x="540" 
d="M443 -27c0 -121 -72 -209 -197 -209c-72 0 -109 19 -159 64l34 34c38 -35 64 -53 125 -53c101 0 146 71 146 167v86c-43 -56 -88 -68 -143 -68c-51 0 -93 17 -118 42c-49 49 -62 129 -62 205s13 156 62 205c25 25 67 42 118 42c55 0 100 -12 143 -68v62h51v-509zM392 241
c0 100 -18 202 -136 202s-136 -102 -136 -202s18 -202 136 -202s136 102 136 202z" />
    <glyph glyph-name="h" unicode="h" horiz-adv-x="559" 
d="M468 0h-51v299c0 93 -46 144 -133 144s-136 -51 -136 -144v-299h-51v712h51v-287c36 42 83 63 142 63c111 0 178 -68 178 -180v-308z" />
    <glyph glyph-name="i" unicode="i" horiz-adv-x="245" 
d="M148 0h-51v482h51v-482zM154 649h-63v63h63v-63z" />
    <glyph glyph-name="j" unicode="j" horiz-adv-x="245" 
d="M148 -105c0 -76 -37 -125 -116 -125h-44v45h35c57 0 74 26 74 81v586h51v-587zM154 649h-63v63h63v-63z" />
    <glyph glyph-name="k" unicode="k" horiz-adv-x="527" 
d="M487 0h-63l-166 265l-110 -127v-138h-51v712h51v-502l239 272h65l-159 -180z" />
    <glyph glyph-name="l" unicode="l" horiz-adv-x="287" 
d="M255 0h-44c-79 0 -116 49 -116 125v587h51v-586c0 -55 17 -81 74 -81h35v-45z" />
    <glyph glyph-name="m" unicode="m" horiz-adv-x="878" 
d="M788 0h-51v299c0 93 -46 144 -133 144c-84 0 -136 -52 -136 -135v-308h-51v299c0 93 -46 144 -133 144s-136 -52 -136 -144v-299h-51v482h51v-57c36 42 84 63 143 63c72 0 126 -31 155 -88c36 57 92 88 164 88c53 0 96 -17 127 -46c33 -32 51 -77 51 -134v-308z" />
    <glyph glyph-name="n" unicode="n" horiz-adv-x="559" 
d="M468 0h-51v299c0 93 -46 144 -133 144s-136 -52 -136 -144v-299h-51v482h51v-57c36 42 83 63 142 63c53 0 96 -15 128 -46c33 -32 50 -77 50 -134v-308z" />
    <glyph glyph-name="o" unicode="o" horiz-adv-x="526" 
d="M457 241c0 -69 -9 -143 -60 -194c-35 -35 -80 -53 -134 -53s-99 18 -134 53c-51 51 -60 125 -60 194s9 143 60 194c35 35 80 53 134 53s99 -18 134 -53c51 -51 60 -125 60 -194zM406 241c0 56 -3 121 -43 161c-27 27 -61 41 -100 41s-73 -14 -100 -41
c-40 -40 -43 -105 -43 -161s3 -121 43 -161c27 -27 61 -41 100 -41s73 14 100 41c40 40 43 105 43 161z" />
    <glyph glyph-name="p" unicode="p" horiz-adv-x="540" 
d="M471 241c0 -76 -13 -156 -62 -205c-25 -25 -67 -42 -118 -42c-55 0 -100 12 -143 68v-292h-51v712h51v-62c43 56 88 68 143 68c51 0 93 -17 118 -42c49 -49 62 -129 62 -205zM420 241c0 100 -18 202 -136 202s-136 -102 -136 -202s18 -202 136 -202s136 102 136 202z" />
    <glyph glyph-name="q" unicode="q" horiz-adv-x="540" 
d="M443 -230h-51v292c-43 -56 -88 -68 -143 -68c-51 0 -93 17 -118 42c-49 49 -62 129 -62 205s13 156 62 205c25 25 67 42 118 42c55 0 100 -12 143 -68v62h51v-712zM392 241c0 100 -18 202 -136 202s-136 -102 -136 -202s18 -202 136 -202s136 102 136 202z" />
    <glyph glyph-name="r" unicode="r" horiz-adv-x="409" 
d="M368 405c-29 29 -51 38 -91 38c-83 0 -129 -69 -129 -146v-297h-51v482h51v-64c28 45 84 70 141 70c47 0 81 -11 116 -46z" />
    <glyph glyph-name="s" unicode="s" horiz-adv-x="494" 
d="M438 137c0 -88 -74 -143 -193 -143c-84 0 -146 22 -195 69l35 35c37 -39 90 -59 158 -59c95 0 145 33 145 98c0 51 -28 75 -92 81l-80 7c-97 8 -145 50 -145 126c0 84 68 137 173 137c67 0 126 -19 169 -51l-34 -34c-37 27 -82 41 -135 41c-80 0 -123 -33 -123 -93
c0 -51 30 -74 98 -81l78 -7c80 -8 141 -32 141 -126z" />
    <glyph glyph-name="t" unicode="t" horiz-adv-x="325" 
d="M269 0h-44c-76 0 -116 53 -116 126v318h-66v38h66v154h51v-154h109v-38h-109v-319c0 -51 23 -80 74 -80h35v-45z" />
    <glyph glyph-name="u" unicode="u" horiz-adv-x="559" 
d="M462 0h-51v57c-36 -42 -83 -63 -142 -63c-53 0 -96 15 -128 46c-33 32 -50 77 -50 134v308h51v-299c0 -93 46 -144 133 -144s136 52 136 144v299h51v-482z" />
    <glyph glyph-name="v" unicode="v" horiz-adv-x="430" 
d="M416 482l-176 -482h-50l-176 482h56l145 -422l145 422h56z" />
    <glyph glyph-name="w" unicode="w" horiz-adv-x="712" 
d="M698 482l-154 -482h-52l-136 402l-136 -402h-52l-154 482h56l123 -422l138 422h50l138 -422l123 422h56z" />
    <glyph glyph-name="x" unicode="x" horiz-adv-x="460" 
d="M420 0h-62l-127 203l-129 -203h-62l163 246l-156 236h62l122 -194l120 194h62l-156 -236z" />
    <glyph glyph-name="y" unicode="y" horiz-adv-x="430" 
d="M416 482l-224 -613c-9 -26 -20 -45 -33 -56c-24 -23 -59 -31 -91 -31h-24v45h19c55 0 71 18 88 66l39 107l-176 482h56l145 -422l145 422h56z" />
    <glyph glyph-name="z" unicode="z" horiz-adv-x="452" 
d="M398 0h-344v48l290 389h-274v45h328v-48l-291 -389h291v-45z" />
    <glyph glyph-name="braceleft" unicode="{" horiz-adv-x="316" 
d="M266 -74h-14c-49 0 -77 7 -97 27c-19 19 -26 40 -26 95v207c0 28 -6 48 -18 60c-11 11 -24 19 -43 19h-18v44h18c19 0 32 8 43 19c12 12 18 32 18 60v207c0 55 7 76 26 95c20 20 48 27 97 27h14v-45h-13c-36 0 -48 -2 -59 -13s-14 -28 -14 -65v-207
c0 -52 -18 -79 -61 -100c43 -21 61 -48 61 -100v-207c0 -37 3 -54 14 -65s23 -13 59 -13h13v-45z" />
    <glyph glyph-name="bar" unicode="|" horiz-adv-x="317" 
d="M184 -74h-51v860h51v-860z" />
    <glyph glyph-name="braceright" unicode="}" horiz-adv-x="316" 
d="M266 334h-18c-19 0 -32 -8 -43 -19c-12 -12 -18 -32 -18 -60v-207c0 -55 -7 -76 -26 -95c-20 -20 -48 -27 -97 -27h-14v45h13c36 0 48 2 59 13s14 28 14 65v207c0 52 18 79 61 100c-43 21 -61 48 -61 100v207c0 37 -3 54 -14 65s-23 13 -59 13h-13v45h14
c49 0 77 -7 97 -27c19 -19 26 -40 26 -95v-207c0 -28 6 -48 18 -60c11 -11 24 -19 43 -19h18v-44z" />
    <glyph glyph-name="asciitilde" unicode="~" 
d="M461 277c-54 -54 -77 -62 -116 -62c-33 0 -66 16 -102 31c-28 12 -49 23 -76 23c-28 0 -43 -5 -83 -45l-31 31c54 54 77 62 116 62c33 0 66 -16 102 -31c28 -12 49 -23 76 -23c29 0 43 5 83 45z" />
    <glyph glyph-name="uni00A0" unicode="&#xa0;" horiz-adv-x="255" 
 />
    <glyph glyph-name="exclamdown" unicode="&#xa1;" horiz-adv-x="304" 
d="M165 -230h-55l3 520h49zM171 415h-67v67h67v-67z" />
    <glyph glyph-name="cent" unicode="&#xa2;" horiz-adv-x="498" 
d="M440 193c-49 -54 -87 -71 -148 -74v-119h-43v121c-113 15 -180 104 -180 245s67 230 180 245v101h43v-99c61 -3 99 -20 148 -74l-35 -32c-39 43 -68 58 -113 61v-404c45 3 74 18 113 61zM249 565c-41 -7 -73 -28 -96 -61c-24 -35 -33 -73 -33 -138s9 -103 33 -138
c23 -33 55 -54 96 -61v398z" />
    <glyph glyph-name="sterling" unicode="&#xa3;" horiz-adv-x="537" 
d="M482 0h-368v342h-64v38h64v122c0 130 83 216 212 216c63 0 115 -20 156 -61l-37 -37c-27 27 -56 50 -119 50c-103 0 -158 -64 -158 -179v-111h158v-38h-158v-294h314v-48z" />
    <glyph glyph-name="currency" unicode="&#xa4;" horiz-adv-x="657" 
d="M545 265c0 -52 -16 -100 -47 -137l74 -74l-32 -32l-75 74c-37 -31 -85 -48 -137 -48s-100 17 -137 48l-74 -74l-32 32l74 74c-31 37 -48 85 -48 137s17 101 48 138l-74 73l32 32l74 -73c37 31 85 47 137 47s100 -16 137 -47l75 73l32 -32l-74 -73c31 -37 47 -86 47 -138z
M497 265c0 94 -75 169 -169 169s-169 -75 -169 -169s75 -169 169 -169s169 75 169 169z" />
    <glyph glyph-name="yen" unicode="&#xa5;" horiz-adv-x="493" 
d="M483 712l-163 -326h108v-38h-127l-27 -53v-53h154v-38h-154v-204h-54v204h-155v38h155v53l-27 53h-128v38h109l-164 326h57l181 -361l179 361h56z" />
    <glyph glyph-name="brokenbar" unicode="&#xa6;" horiz-adv-x="328" 
d="M184 -74h-51v350h51v-350zM184 436h-51v350h51v-350z" />
    <glyph glyph-name="section" unicode="&#xa7;" horiz-adv-x="566" 
d="M469 247c0 -84 -51 -143 -110 -170c63 -21 103 -74 103 -146c0 -97 -74 -167 -179 -167c-100 0 -176 56 -184 155h54c7 -72 54 -107 130 -107s125 42 125 119c0 53 -37 96 -94 112l-83 23c-85 24 -134 94 -134 181c0 84 51 143 110 170c-63 27 -99 68 -99 141
c0 100 79 160 175 160c93 0 173 -54 178 -151h-53c-7 75 -52 104 -125 104c-75 0 -122 -37 -122 -113c0 -61 39 -92 91 -107l83 -23c84 -24 134 -95 134 -181zM415 247c0 39 -6 72 -35 101c-27 27 -60 41 -97 41c-39 0 -72 -14 -97 -41c-27 -29 -35 -58 -35 -101
c0 -45 12 -77 35 -101c25 -27 58 -41 97 -41s72 14 97 41c23 25 35 54 35 101z" />
    <glyph glyph-name="dieresis" unicode="&#xa8;" horiz-adv-x="500" 
d="M175 600h-58v77h58v-77zM383 600h-58v77h58v-77z" />
    <glyph glyph-name="copyright" unicode="&#xa9;" horiz-adv-x="894" 
d="M809 356c0 -200 -162 -362 -362 -362s-362 162 -362 362s162 362 362 362s362 -162 362 -362zM761 356c0 172 -142 318 -314 318s-314 -146 -314 -318s142 -318 314 -318s314 146 314 318zM582 202c-39 -35 -75 -52 -131 -52c-122 0 -177 94 -177 206s55 207 177 207
c56 0 90 -16 131 -53l-30 -30c-36 32 -61 42 -101 42c-101 0 -132 -78 -132 -166s31 -165 132 -165c40 0 65 9 101 41z" />
    <glyph glyph-name="ordfeminine" unicode="&#xaa;" horiz-adv-x="447" 
d="M356 327h-43v36c-32 -31 -62 -41 -114 -41c-56 0 -87 8 -112 35c-19 19 -28 46 -28 75c0 71 49 111 133 111h121v42c0 60 -29 91 -105 91c-53 0 -80 -12 -104 -48l-32 27c35 47 75 60 136 60c100 0 148 -46 148 -126v-262zM313 461v47h-116c-63 0 -95 -25 -95 -75
c0 -49 29 -72 97 -72c35 0 67 3 94 28c13 13 20 37 20 72z" />
    <glyph glyph-name="guillemotleft" unicode="&#xab;" horiz-adv-x="527" 
d="M238 69l-196 196l196 196v-66l-130 -130l130 -130v-66zM445 69l-196 196l196 196v-66l-130 -130l130 -130v-66z" />
    <glyph glyph-name="logicalnot" unicode="&#xac;" 
d="M461 107h-47v133h-361v47h408v-180z" />
    <glyph glyph-name="uni00AD" unicode="&#xad;" horiz-adv-x="426" 
d="M344 240h-262v47h262v-47z" />
    <glyph glyph-name="registered" unicode="&#xae;" horiz-adv-x="894" 
d="M809 356c0 -200 -162 -362 -362 -362s-362 162 -362 362s162 362 362 362s362 -162 362 -362zM762 356c0 173 -142 319 -315 319s-315 -146 -315 -319s142 -319 315 -319s315 146 315 319zM543 156l-99 167h-66v-167h-45v401h128c67 0 124 -50 124 -118
c0 -60 -38 -97 -91 -112l101 -171h-52zM540 439c0 44 -36 77 -84 77h-78v-153h78c48 0 84 32 84 76z" />
    <glyph glyph-name="macron" unicode="&#xaf;" horiz-adv-x="500" 
d="M398 610h-296v46h296v-46z" />
    <glyph glyph-name="degree" unicode="&#xb0;" horiz-adv-x="458" 
d="M386 562c0 -87 -70 -157 -157 -157s-157 70 -157 157s70 157 157 157s157 -70 157 -157zM341 562c0 64 -49 115 -113 115s-111 -48 -111 -115s48 -115 112 -115s112 48 112 115z" />
    <glyph glyph-name="plusminus" unicode="&#xb1;" 
d="M461 270h-180v-182h-47v182h-181v47h181v181h47v-181h180v-47zM461 0h-408v47h408v-47z" />
    <glyph glyph-name="twosuperior" unicode="&#xb2;" horiz-adv-x="313" 
d="M280 285h-236v40l168 213c15 20 23 41 23 62c0 47 -26 76 -73 76c-39 0 -74 -20 -74 -76h-44c0 68 46 116 118 116c71 0 118 -44 118 -116c0 -35 -10 -56 -34 -87l-149 -188h183v-40z" />
    <glyph glyph-name="threesuperior" unicode="&#xb3;" horiz-adv-x="313" 
d="M282 403c0 -79 -55 -122 -125 -122c-68 0 -124 37 -127 114h45c3 -53 41 -74 82 -74c45 0 81 31 81 82c0 50 -27 81 -84 81h-8v39h8c50 0 76 29 76 76c0 50 -35 77 -74 77c-45 0 -72 -27 -76 -70h-44c5 69 55 110 120 110c71 0 118 -45 118 -116c0 -46 -19 -77 -57 -94
c43 -16 65 -50 65 -103z" />
    <glyph glyph-name="acute" unicode="&#xb4;" horiz-adv-x="500" 
d="M367 737l-106 -147h-58l97 147h67z" />
    <glyph glyph-name="mu" unicode="&#xb5;" horiz-adv-x="556" 
d="M459 0h-51v57c-36 -42 -83 -63 -142 -63c-53 0 -95 15 -127 45v-269h-51v712h51v-299c0 -93 46 -144 133 -144s136 52 136 144v299h51v-482z" />
    <glyph glyph-name="paragraph" unicode="&#xb6;" horiz-adv-x="579" 
d="M469 -230h-51v894h-123v-894h-51v562c-128 0 -199 97 -199 190c0 98 74 190 211 190h213v-942z" />
    <glyph glyph-name="periodcentered" unicode="&#xb7;" horiz-adv-x="264" 
d="M169 227h-74v74h74v-74z" />
    <glyph glyph-name="cedilla" unicode="&#xb8;" horiz-adv-x="500" 
d="M308 -70l-64 -150h-63l72 150h55z" />
    <glyph glyph-name="onesuperior" unicode="&#xb9;" horiz-adv-x="313" 
d="M196 285h-44v378l-80 -71v51l80 69h44v-427z" />
    <glyph glyph-name="ordmasculine" unicode="&#xba;" horiz-adv-x="452" 
d="M380 519c0 -56 -7 -113 -48 -154c-28 -28 -63 -42 -106 -42s-78 14 -106 42c-41 41 -48 98 -48 154s7 113 48 154c28 28 63 42 106 42s78 -14 106 -42c41 -41 48 -98 48 -154zM337 519c0 43 -2 94 -33 125c-21 21 -47 32 -78 32s-57 -11 -78 -32
c-31 -31 -33 -82 -33 -125s2 -94 33 -125c20 -20 47 -32 78 -32s58 12 78 32c31 31 33 82 33 125z" />
    <glyph glyph-name="guillemotright" unicode="&#xbb;" horiz-adv-x="527" 
d="M278 265l-196 -196v66l130 130l-130 130v66zM485 265l-196 -196v66l130 130l-130 130v66z" />
    <glyph glyph-name="onequarter" unicode="&#xbc;" horiz-adv-x="803" 
d="M196 285h-44v378l-80 -71v51l80 69h44v-427zM590 712l-332 -712h-45l332 712h45zM780 67h-52v-67h-44v67h-170v40l154 320h47l-153 -320h122v120h44v-120h52v-40z" />
    <glyph glyph-name="onehalf" unicode="&#xbd;" horiz-adv-x="803" 
d="M196 285h-44v378l-80 -71v51l80 69h44v-427zM590 712l-332 -712h-45l332 712h45zM770 0h-236v40l168 213c15 20 23 41 23 62c0 47 -26 76 -73 76c-39 0 -74 -20 -74 -76h-44c0 68 46 116 118 116c71 0 118 -44 118 -116c0 -35 -10 -56 -34 -87l-149 -188h183v-40z" />
    <glyph glyph-name="threequarters" unicode="&#xbe;" horiz-adv-x="803" 
d="M282 403c0 -79 -55 -122 -125 -122c-68 0 -124 37 -127 114h45c3 -53 41 -74 82 -74c45 0 81 31 81 82c0 50 -27 81 -84 81h-8v39h8c50 0 76 29 76 76c0 50 -35 77 -74 77c-45 0 -72 -27 -76 -70h-44c5 69 55 110 120 110c71 0 118 -45 118 -116c0 -46 -19 -77 -57 -94
c43 -16 65 -50 65 -103zM590 712l-332 -712h-45l332 712h45zM780 67h-52v-67h-44v67h-170v40l154 320h47l-153 -320h122v120h44v-120h52v-40z" />
    <glyph glyph-name="questiondown" unicode="&#xbf;" horiz-adv-x="488" 
d="M408 -60c0 -96 -72 -176 -179 -176c-102 0 -179 76 -179 176c0 47 17 80 44 119l85 125c13 19 18 44 18 60v47h51v-45c0 -39 -9 -61 -29 -90l-84 -124c-20 -31 -34 -53 -34 -92c0 -75 55 -131 128 -131c78 0 128 61 128 131h51zM256 415h-67v67h67v-67z" />
    <glyph glyph-name="Agrave" unicode="&#xc0;" horiz-adv-x="602" 
d="M587 0h-58l-62 173h-332l-62 -173h-58l262 712h48zM301 640l-149 -419h298zM348 780h-58l-106 147h67z" />
    <glyph glyph-name="Aacute" unicode="&#xc1;" horiz-adv-x="602" 
d="M587 0h-58l-62 173h-332l-62 -173h-58l262 712h48zM301 640l-149 -419h298zM418 927l-106 -147h-58l97 147h67z" />
    <glyph glyph-name="Acircumflex" unicode="&#xc2;" horiz-adv-x="602" 
d="M587 0h-58l-62 173h-332l-62 -173h-58l262 712h48zM301 640l-149 -419h298zM451 780h-57l-93 109l-93 -109h-57l123 147h54z" />
    <glyph glyph-name="Atilde" unicode="&#xc3;" horiz-adv-x="602" 
d="M587 0h-58l-62 173h-332l-62 -173h-58l262 712h48zM301 640l-149 -419h298zM450 843c-46 -46 -71 -48 -89 -48c-23 0 -38 6 -69 24c-19 11 -36 21 -56 21c-16 0 -28 -2 -59 -33l-30 29c46 46 70 48 89 48c29 0 45 -9 69 -24c21 -13 36 -21 56 -21c15 0 28 2 59 33z" />
    <glyph glyph-name="Adieresis" unicode="&#xc4;" horiz-adv-x="602" 
d="M587 0h-58l-62 173h-332l-62 -173h-58l262 712h48zM301 640l-149 -419h298zM226 790h-58v77h58v-77zM434 790h-58v77h58v-77z" />
    <glyph glyph-name="Aring" unicode="&#xc5;" horiz-adv-x="602" 
d="M587 0h-58l-62 173h-332l-62 -173h-58l262 712h48zM301 640l-149 -419h298zM415 861c0 -63 -51 -115 -114 -115s-114 52 -114 115s51 114 114 114s114 -51 114 -114zM374 861c0 40 -33 72 -73 72s-73 -32 -73 -72s33 -73 73 -73s73 33 73 73z" />
    <glyph glyph-name="AE" unicode="&#xc6;" horiz-adv-x="901" 
d="M845 0h-431v173h-255l-90 -173h-59l377 712h458v-48h-378v-284h322v-48h-322v-284h378v-48zM414 221v443l-232 -443h232z" />
    <glyph glyph-name="Ccedilla" unicode="&#xc7;" horiz-adv-x="644" 
d="M568 202c-24 -128 -116 -208 -242 -208c-71 0 -131 26 -173 68c-66 66 -71 121 -71 294s5 228 71 294c42 42 102 68 173 68c128 0 218 -80 242 -208h-55c-21 99 -91 160 -187 160c-52 0 -98 -18 -135 -55c-51 -51 -55 -109 -55 -259s4 -208 55 -259
c37 -37 83 -55 135 -55c96 0 168 61 189 160h53zM366 -70l-64 -150h-63l72 150h55z" />
    <glyph glyph-name="Egrave" unicode="&#xc8;" horiz-adv-x="598" 
d="M542 0h-432v712h432v-48h-378v-281h322v-48h-322v-287h378v-48zM361 780h-58l-106 147h67z" />
    <glyph glyph-name="Eacute" unicode="&#xc9;" horiz-adv-x="598" 
d="M542 0h-432v712h432v-48h-378v-281h322v-48h-322v-287h378v-48zM431 927l-106 -147h-58l97 147h67z" />
    <glyph glyph-name="Ecircumflex" unicode="&#xca;" horiz-adv-x="598" 
d="M542 0h-432v712h432v-48h-378v-281h322v-48h-322v-287h378v-48zM464 780h-57l-93 109l-93 -109h-57l123 147h54z" />
    <glyph glyph-name="Edieresis" unicode="&#xcb;" horiz-adv-x="598" 
d="M542 0h-432v712h432v-48h-378v-281h322v-48h-322v-287h378v-48zM239 790h-58v77h58v-77zM447 790h-58v77h58v-77z" />
    <glyph glyph-name="Igrave" unicode="&#xcc;" horiz-adv-x="274" 
d="M164 0h-54v712h54v-712zM171 780h-58l-106 147h67z" />
    <glyph glyph-name="Iacute" unicode="&#xcd;" horiz-adv-x="274" 
d="M267 927l-106 -147h-58l97 147h67zM164 0h-54v712h54v-712z" />
    <glyph glyph-name="Icircumflex" unicode="&#xce;" horiz-adv-x="274" 
d="M164 0h-54v712h54v-712zM289 780h-57l-93 109l-93 -109h-57l123 147h54z" />
    <glyph glyph-name="Idieresis" unicode="&#xcf;" horiz-adv-x="274" 
d="M164 0h-54v712h54v-712zM62 790h-58v77h58v-77zM270 790h-58v77h58v-77z" />
    <glyph glyph-name="Eth" unicode="&#xd0;" horiz-adv-x="689" 
d="M607 356c0 -106 -1 -223 -69 -291c-43 -43 -103 -65 -178 -65h-239v338h-81v42h81v332h239c75 0 135 -22 178 -65c68 -68 69 -185 69 -291zM553 356c0 94 0 197 -53 253c-41 43 -96 55 -153 55h-172v-284h178v-42h-178v-290h172c57 0 112 12 153 55c53 56 53 159 53 253z
" />
    <glyph glyph-name="Ntilde" unicode="&#xd1;" horiz-adv-x="739" 
d="M629 0h-54l-411 619v-619h-54v712h54l411 -617v617h54v-712zM519 843c-46 -46 -71 -48 -89 -48c-23 0 -38 6 -69 24c-19 11 -36 21 -56 21c-16 0 -28 -2 -59 -33l-30 29c46 46 70 48 89 48c29 0 45 -9 69 -24c21 -13 36 -21 56 -21c15 0 28 2 59 33z" />
    <glyph glyph-name="Ograve" unicode="&#xd2;" horiz-adv-x="652" 
d="M570 356c0 -173 -5 -228 -71 -294c-42 -42 -102 -68 -173 -68s-131 26 -173 68c-66 66 -71 121 -71 294s5 228 71 294c42 42 102 68 173 68s131 -26 173 -68c66 -66 71 -121 71 -294zM516 356c0 150 -4 208 -55 259c-37 37 -83 55 -135 55s-98 -18 -135 -55
c-51 -51 -55 -109 -55 -259s4 -208 55 -259c37 -37 83 -55 135 -55s98 18 135 55c51 51 55 109 55 259zM373 780h-58l-106 147h67z" />
    <glyph glyph-name="Oacute" unicode="&#xd3;" horiz-adv-x="652" 
d="M570 356c0 -173 -5 -228 -71 -294c-42 -42 -102 -68 -173 -68s-131 26 -173 68c-66 66 -71 121 -71 294s5 228 71 294c42 42 102 68 173 68s131 -26 173 -68c66 -66 71 -121 71 -294zM516 356c0 150 -4 208 -55 259c-37 37 -83 55 -135 55s-98 -18 -135 -55
c-51 -51 -55 -109 -55 -259s4 -208 55 -259c37 -37 83 -55 135 -55s98 18 135 55c51 51 55 109 55 259zM443 927l-106 -147h-58l97 147h67z" />
    <glyph glyph-name="Ocircumflex" unicode="&#xd4;" horiz-adv-x="652" 
d="M570 356c0 -173 -5 -228 -71 -294c-42 -42 -102 -68 -173 -68s-131 26 -173 68c-66 66 -71 121 -71 294s5 228 71 294c42 42 102 68 173 68s131 -26 173 -68c66 -66 71 -121 71 -294zM516 356c0 150 -4 208 -55 259c-37 37 -83 55 -135 55s-98 -18 -135 -55
c-51 -51 -55 -109 -55 -259s4 -208 55 -259c37 -37 83 -55 135 -55s98 18 135 55c51 51 55 109 55 259zM476 780h-57l-93 109l-93 -109h-57l123 147h54z" />
    <glyph glyph-name="Otilde" unicode="&#xd5;" horiz-adv-x="652" 
d="M570 356c0 -173 -5 -228 -71 -294c-42 -42 -102 -68 -173 -68s-131 26 -173 68c-66 66 -71 121 -71 294s5 228 71 294c42 42 102 68 173 68s131 -26 173 -68c66 -66 71 -121 71 -294zM516 356c0 150 -4 208 -55 259c-37 37 -83 55 -135 55s-98 -18 -135 -55
c-51 -51 -55 -109 -55 -259s4 -208 55 -259c37 -37 83 -55 135 -55s98 18 135 55c51 51 55 109 55 259zM475 843c-46 -46 -71 -48 -89 -48c-23 0 -38 6 -69 24c-19 11 -36 21 -56 21c-16 0 -28 -2 -59 -33l-30 29c46 46 70 48 89 48c29 0 45 -9 69 -24c21 -13 36 -21 56 -21
c15 0 28 2 59 33z" />
    <glyph glyph-name="Odieresis" unicode="&#xd6;" horiz-adv-x="652" 
d="M570 356c0 -173 -5 -228 -71 -294c-42 -42 -102 -68 -173 -68s-131 26 -173 68c-66 66 -71 121 -71 294s5 228 71 294c42 42 102 68 173 68s131 -26 173 -68c66 -66 71 -121 71 -294zM516 356c0 150 -4 208 -55 259c-37 37 -83 55 -135 55s-98 -18 -135 -55
c-51 -51 -55 -109 -55 -259s4 -208 55 -259c37 -37 83 -55 135 -55s98 18 135 55c51 51 55 109 55 259zM251 790h-58v77h58v-77zM459 790h-58v77h58v-77z" />
    <glyph glyph-name="multiply" unicode="&#xd7;" 
d="M443 109l-31 -31l-155 155l-155 -155l-31 31l155 155l-155 155l31 31l155 -155l155 155l31 -31l-155 -155z" />
    <glyph glyph-name="Oslash" unicode="&#xd8;" horiz-adv-x="652" 
d="M570 356c0 -173 -5 -228 -71 -294c-42 -42 -102 -68 -173 -68c-50 0 -93 13 -130 35l-35 -73h-53l49 102c-71 69 -75 125 -75 298s5 228 71 294c42 42 102 68 173 68c49 0 94 -13 130 -35l35 73h53l-49 -102c71 -70 75 -125 75 -298zM434 637c-32 22 -68 33 -108 33
c-52 0 -98 -18 -135 -55c-51 -51 -55 -109 -55 -259c0 -140 3 -200 45 -248zM516 356c0 139 -4 199 -45 248l-253 -529c32 -22 67 -33 108 -33c52 0 98 18 135 55c51 51 55 109 55 259z" />
    <glyph glyph-name="Ugrave" unicode="&#xd9;" horiz-adv-x="688" 
d="M588 231c0 -139 -101 -237 -244 -237s-244 98 -244 237v481h54v-474c0 -118 75 -196 190 -196s190 78 190 196v474h54v-481zM391 780h-58l-106 147h67z" />
    <glyph glyph-name="Uacute" unicode="&#xda;" horiz-adv-x="688" 
d="M588 231c0 -139 -101 -237 -244 -237s-244 98 -244 237v481h54v-474c0 -118 75 -196 190 -196s190 78 190 196v474h54v-481zM461 927l-106 -147h-58l97 147h67z" />
    <glyph glyph-name="Ucircumflex" unicode="&#xdb;" horiz-adv-x="688" 
d="M588 231c0 -139 -101 -237 -244 -237s-244 98 -244 237v481h54v-474c0 -118 75 -196 190 -196s190 78 190 196v474h54v-481zM494 780h-57l-93 109l-93 -109h-57l123 147h54z" />
    <glyph glyph-name="Udieresis" unicode="&#xdc;" horiz-adv-x="688" 
d="M588 231c0 -139 -101 -237 -244 -237s-244 98 -244 237v481h54v-474c0 -118 75 -196 190 -196s190 78 190 196v474h54v-481zM269 790h-58v77h58v-77zM477 790h-58v77h58v-77z" />
    <glyph glyph-name="Yacute" unicode="&#xdd;" horiz-adv-x="494" 
d="M484 712l-210 -417v-295h-54v295l-210 417h58l181 -360l177 360h58zM364 927l-106 -147h-58l97 147h67z" />
    <glyph glyph-name="Thorn" unicode="&#xde;" horiz-adv-x="646" 
d="M586 359c0 -130 -92 -205 -215 -205h-207v-154h-54v712h54v-148h207c123 0 215 -74 215 -205zM532 359c0 107 -68 157 -167 157h-201v-314h201c99 0 167 50 167 157z" />
    <glyph glyph-name="germandbls" unicode="&#xdf;" horiz-adv-x="550" 
d="M473 134c0 -43 -15 -77 -39 -100c-27 -24 -52 -34 -95 -34h-54v45h44c32 0 46 7 65 22s28 39 28 73v178c0 32 -6 52 -23 68c-15 15 -37 23 -65 23h-49v45h39c60 0 98 41 98 102c0 33 -11 63 -35 85c-23 21 -57 32 -104 32c-96 0 -135 -61 -135 -149v-524h-51v524
c0 121 71 194 192 194c100 0 183 -50 183 -162c0 -53 -21 -94 -63 -122c52 -26 64 -61 64 -124v-176z" />
    <glyph glyph-name="agrave" unicode="&#xe0;" horiz-adv-x="524" 
d="M431 0h-51v48c-41 -41 -79 -54 -147 -54c-72 0 -111 12 -142 44c-23 23 -35 58 -35 94c0 88 63 139 168 139h156v54c0 77 -37 118 -136 118c-68 0 -102 -17 -133 -61l-37 32c41 57 91 74 170 74c128 0 187 -57 187 -158v-330zM380 168v62h-150c-82 0 -123 -32 -123 -97
c0 -64 38 -94 126 -94c44 0 85 4 120 37c18 17 27 48 27 92zM296 590h-58l-106 147h67z" />
    <glyph glyph-name="aacute" unicode="&#xe1;" horiz-adv-x="524" 
d="M431 0h-51v48c-41 -41 -79 -54 -147 -54c-72 0 -111 12 -142 44c-23 23 -35 58 -35 94c0 88 63 139 168 139h156v54c0 77 -37 118 -136 118c-68 0 -102 -17 -133 -61l-37 32c41 57 91 74 170 74c128 0 187 -57 187 -158v-330zM380 168v62h-150c-82 0 -123 -32 -123 -97
c0 -64 38 -94 126 -94c44 0 85 4 120 37c18 17 27 48 27 92zM366 737l-106 -147h-58l97 147h67z" />
    <glyph glyph-name="acircumflex" unicode="&#xe2;" horiz-adv-x="524" 
d="M431 0h-51v48c-41 -41 -79 -54 -147 -54c-72 0 -111 12 -142 44c-23 23 -35 58 -35 94c0 88 63 139 168 139h156v54c0 77 -37 118 -136 118c-68 0 -102 -17 -133 -61l-37 32c41 57 91 74 170 74c128 0 187 -57 187 -158v-330zM380 168v62h-150c-82 0 -123 -32 -123 -97
c0 -64 38 -94 126 -94c44 0 85 4 120 37c18 17 27 48 27 92zM399 590h-57l-93 109l-93 -109h-57l123 147h54z" />
    <glyph glyph-name="atilde" unicode="&#xe3;" horiz-adv-x="524" 
d="M431 0h-51v48c-41 -41 -79 -54 -147 -54c-72 0 -111 12 -142 44c-23 23 -35 58 -35 94c0 88 63 139 168 139h156v54c0 77 -37 118 -136 118c-68 0 -102 -17 -133 -61l-37 32c41 57 91 74 170 74c128 0 187 -57 187 -158v-330zM380 168v62h-150c-82 0 -123 -32 -123 -97
c0 -64 38 -94 126 -94c44 0 85 4 120 37c18 17 27 48 27 92zM398 653c-46 -46 -71 -48 -89 -48c-23 0 -38 6 -69 24c-19 11 -36 21 -56 21c-16 0 -28 -2 -59 -33l-30 29c46 46 70 48 89 48c29 0 45 -9 69 -24c21 -13 36 -21 56 -21c15 0 28 2 59 33z" />
    <glyph glyph-name="adieresis" unicode="&#xe4;" horiz-adv-x="524" 
d="M431 0h-51v48c-41 -41 -79 -54 -147 -54c-72 0 -111 12 -142 44c-23 23 -35 58 -35 94c0 88 63 139 168 139h156v54c0 77 -37 118 -136 118c-68 0 -102 -17 -133 -61l-37 32c41 57 91 74 170 74c128 0 187 -57 187 -158v-330zM380 168v62h-150c-82 0 -123 -32 -123 -97
c0 -64 38 -94 126 -94c44 0 85 4 120 37c18 17 27 48 27 92zM174 600h-58v77h58v-77zM382 600h-58v77h58v-77z" />
    <glyph glyph-name="aring" unicode="&#xe5;" horiz-adv-x="524" 
d="M431 0h-51v48c-41 -41 -79 -54 -147 -54c-72 0 -111 12 -142 44c-23 23 -35 58 -35 94c0 88 63 139 168 139h156v54c0 77 -37 118 -136 118c-68 0 -102 -17 -133 -61l-37 32c41 57 91 74 170 74c128 0 187 -57 187 -158v-330zM380 168v62h-150c-82 0 -123 -32 -123 -97
c0 -64 38 -94 126 -94c44 0 85 4 120 37c18 17 27 48 27 92zM363 677c0 -63 -51 -115 -114 -115s-114 52 -114 115s51 114 114 114s114 -51 114 -114zM322 677c0 40 -33 72 -73 72s-73 -32 -73 -72s33 -73 73 -73s73 33 73 73z" />
    <glyph glyph-name="ae" unicode="&#xe6;" horiz-adv-x="834" 
d="M766 230h-335c0 -123 54 -190 157 -190c57 0 92 17 133 58l38 -30c-49 -49 -95 -74 -175 -74c-81 0 -139 30 -172 90c-40 -65 -90 -90 -179 -90c-72 0 -111 12 -142 44c-23 23 -35 58 -35 94c0 88 63 139 168 139h156v54c0 77 -37 118 -136 118c-68 0 -102 -17 -133 -61
l-37 32c41 57 91 74 170 74c91 0 148 -28 173 -85c33 56 87 85 156 85c121 0 193 -87 193 -235v-23zM380 230h-150c-82 0 -123 -32 -123 -97c0 -64 38 -94 126 -94c44 0 85 4 120 37c18 17 27 48 27 92v62zM715 271c-3 46 -4 62 -17 91c-21 51 -69 81 -125 81
s-105 -29 -125 -81c-12 -31 -14 -44 -17 -91h284z" />
    <glyph glyph-name="ccedilla" unicode="&#xe7;" horiz-adv-x="493" 
d="M440 68c-51 -57 -93 -74 -159 -74c-132 0 -212 94 -212 247s80 247 212 247c66 0 108 -17 159 -74l-35 -32c-41 46 -73 61 -124 61c-55 0 -99 -21 -128 -64c-24 -35 -33 -73 -33 -138s9 -103 33 -138c29 -43 73 -64 128 -64c51 0 83 16 124 61zM308 -70l-64 -150h-63
l72 150h55z" />
    <glyph glyph-name="egrave" unicode="&#xe8;" horiz-adv-x="523" 
d="M455 230h-335c0 -123 54 -190 157 -190c57 0 92 17 133 58l38 -30c-49 -49 -94 -74 -174 -74c-133 0 -205 86 -205 247c0 156 72 247 193 247s193 -87 193 -235v-23zM404 271c-3 46 -4 62 -17 91c-21 51 -69 81 -125 81s-102 -31 -125 -81c-13 -29 -14 -45 -17 -91h284z
M311 590h-58l-106 147h67z" />
    <glyph glyph-name="eacute" unicode="&#xe9;" horiz-adv-x="523" 
d="M455 230h-335c0 -123 54 -190 157 -190c57 0 92 17 133 58l38 -30c-49 -49 -94 -74 -174 -74c-133 0 -205 86 -205 247c0 156 72 247 193 247s193 -87 193 -235v-23zM404 271c-3 46 -4 62 -17 91c-21 51 -69 81 -125 81s-102 -31 -125 -81c-13 -29 -14 -45 -17 -91h284z
M381 737l-106 -147h-58l97 147h67z" />
    <glyph glyph-name="ecircumflex" unicode="&#xea;" horiz-adv-x="523" 
d="M455 230h-335c0 -123 54 -190 157 -190c57 0 92 17 133 58l38 -30c-49 -49 -94 -74 -174 -74c-133 0 -205 86 -205 247c0 156 72 247 193 247s193 -87 193 -235v-23zM404 271c-3 46 -4 62 -17 91c-21 51 -69 81 -125 81s-102 -31 -125 -81c-13 -29 -14 -45 -17 -91h284z
M414 590h-57l-93 109l-93 -109h-57l123 147h54z" />
    <glyph glyph-name="edieresis" unicode="&#xeb;" horiz-adv-x="523" 
d="M455 230h-335c0 -123 54 -190 157 -190c57 0 92 17 133 58l38 -30c-49 -49 -94 -74 -174 -74c-133 0 -205 86 -205 247c0 156 72 247 193 247s193 -87 193 -235v-23zM404 271c-3 46 -4 62 -17 91c-21 51 -69 81 -125 81s-102 -31 -125 -81c-13 -29 -14 -45 -17 -91h284z
M189 600h-58v77h58v-77zM397 600h-58v77h58v-77z" />
    <glyph glyph-name="igrave" unicode="&#xec;" horiz-adv-x="245" 
d="M148 0h-51v482h51v-482zM148 590h-58l-106 147h67z" />
    <glyph glyph-name="iacute" unicode="&#xed;" horiz-adv-x="245" 
d="M148 0h-51v482h51v-482zM261 737l-106 -147h-58l97 147h67z" />
    <glyph glyph-name="icircumflex" unicode="&#xee;" horiz-adv-x="245" 
d="M148 0h-51v482h51v-482zM272 590h-57l-93 109l-93 -109h-57l123 147h54z" />
    <glyph glyph-name="idieresis" unicode="&#xef;" horiz-adv-x="245" 
d="M148 0h-51v482h51v-482zM47 600h-58v77h58v-77zM255 600h-58v77h58v-77z" />
    <glyph glyph-name="eth" unicode="&#xf0;" horiz-adv-x="526" 
d="M457 241c0 -69 -9 -143 -60 -194c-35 -35 -79 -53 -134 -53c-54 0 -99 18 -134 53c-51 51 -60 125 -60 194s9 143 60 194c35 35 80 53 134 53c25 0 55 -5 75 -17l-67 113h-117v38h95l-53 90h53l52 -90h79v-38h-57l72 -123c54 -94 62 -135 62 -220zM406 241
c0 56 -3 121 -43 161c-27 27 -61 41 -100 41s-73 -14 -100 -41c-40 -40 -43 -105 -43 -161s3 -121 43 -161c27 -27 61 -41 100 -41s73 14 100 41c40 40 43 105 43 161z" />
    <glyph glyph-name="ntilde" unicode="&#xf1;" horiz-adv-x="559" 
d="M468 0h-51v299c0 93 -46 144 -133 144s-136 -52 -136 -144v-299h-51v482h51v-57c36 42 83 63 142 63c53 0 96 -15 128 -46c33 -32 50 -77 50 -134v-308zM433 653c-46 -46 -71 -48 -89 -48c-23 0 -38 6 -69 24c-19 11 -36 21 -56 21c-16 0 -28 -2 -59 -33l-30 29
c46 46 70 48 89 48c29 0 45 -9 69 -24c21 -13 36 -21 56 -21c15 0 28 2 59 33z" />
    <glyph glyph-name="ograve" unicode="&#xf2;" horiz-adv-x="526" 
d="M457 241c0 -69 -9 -143 -60 -194c-35 -35 -80 -53 -134 -53s-99 18 -134 53c-51 51 -60 125 -60 194s9 143 60 194c35 35 80 53 134 53s99 -18 134 -53c51 -51 60 -125 60 -194zM406 241c0 56 -3 121 -43 161c-27 27 -61 41 -100 41s-73 -14 -100 -41
c-40 -40 -43 -105 -43 -161s3 -121 43 -161c27 -27 61 -41 100 -41s73 14 100 41c40 40 43 105 43 161zM315 590h-58l-106 147h67z" />
    <glyph glyph-name="oacute" unicode="&#xf3;" horiz-adv-x="526" 
d="M457 241c0 -69 -9 -143 -60 -194c-35 -35 -80 -53 -134 -53s-99 18 -134 53c-51 51 -60 125 -60 194s9 143 60 194c35 35 80 53 134 53s99 -18 134 -53c51 -51 60 -125 60 -194zM406 241c0 56 -3 121 -43 161c-27 27 -61 41 -100 41s-73 -14 -100 -41
c-40 -40 -43 -105 -43 -161s3 -121 43 -161c27 -27 61 -41 100 -41s73 14 100 41c40 40 43 105 43 161zM380 737l-106 -147h-58l97 147h67z" />
    <glyph glyph-name="ocircumflex" unicode="&#xf4;" horiz-adv-x="526" 
d="M457 241c0 -69 -9 -143 -60 -194c-35 -35 -80 -53 -134 -53s-99 18 -134 53c-51 51 -60 125 -60 194s9 143 60 194c35 35 80 53 134 53s99 -18 134 -53c51 -51 60 -125 60 -194zM406 241c0 56 -3 121 -43 161c-27 27 -61 41 -100 41s-73 -14 -100 -41
c-40 -40 -43 -105 -43 -161s3 -121 43 -161c27 -27 61 -41 100 -41s73 14 100 41c40 40 43 105 43 161zM413 590h-57l-93 109l-93 -109h-57l123 147h54z" />
    <glyph glyph-name="otilde" unicode="&#xf5;" horiz-adv-x="526" 
d="M457 241c0 -69 -9 -143 -60 -194c-35 -35 -80 -53 -134 -53s-99 18 -134 53c-51 51 -60 125 -60 194s9 143 60 194c35 35 80 53 134 53s99 -18 134 -53c51 -51 60 -125 60 -194zM406 241c0 56 -3 121 -43 161c-27 27 -61 41 -100 41s-73 -14 -100 -41
c-40 -40 -43 -105 -43 -161s3 -121 43 -161c27 -27 61 -41 100 -41s73 14 100 41c40 40 43 105 43 161zM412 653c-46 -46 -71 -48 -89 -48c-23 0 -38 6 -69 24c-19 11 -36 21 -56 21c-16 0 -28 -2 -59 -33l-30 29c46 46 70 48 89 48c29 0 45 -9 69 -24c21 -13 36 -21 56 -21
c15 0 28 2 59 33z" />
    <glyph glyph-name="odieresis" unicode="&#xf6;" horiz-adv-x="526" 
d="M457 241c0 -69 -9 -143 -60 -194c-35 -35 -80 -53 -134 -53s-99 18 -134 53c-51 51 -60 125 -60 194s9 143 60 194c35 35 80 53 134 53s99 -18 134 -53c51 -51 60 -125 60 -194zM406 241c0 56 -3 121 -43 161c-27 27 -61 41 -100 41s-73 -14 -100 -41
c-40 -40 -43 -105 -43 -161s3 -121 43 -161c27 -27 61 -41 100 -41s73 14 100 41c40 40 43 105 43 161zM188 600h-58v77h58v-77zM396 600h-58v77h58v-77z" />
    <glyph glyph-name="divide" unicode="&#xf7;" 
d="M222 60v70h70v-70h-70zM53 240v47h408v-47h-408zM222 397v70h70v-70h-70z" />
    <glyph glyph-name="oslash" unicode="&#xf8;" horiz-adv-x="526" 
d="M457 241c0 -69 -9 -143 -60 -194c-35 -35 -79 -53 -134 -53c-39 0 -74 10 -105 29l-40 -67h-48l56 94c-48 51 -57 123 -57 191c0 69 9 143 60 194c35 35 80 53 134 53c40 0 75 -10 105 -30l40 68h48l-56 -94c48 -51 57 -123 57 -191zM344 418c-24 17 -51 25 -81 25
c-39 0 -73 -14 -100 -41c-40 -40 -43 -105 -43 -161c0 -51 1 -107 32 -148zM406 241c0 51 -1 107 -32 148l-192 -325c24 -17 51 -25 81 -25c39 0 73 14 100 41c40 40 43 105 43 161z" />
    <glyph glyph-name="ugrave" unicode="&#xf9;" horiz-adv-x="559" 
d="M462 0h-51v57c-36 -42 -83 -63 -142 -63c-53 0 -96 15 -128 46c-33 32 -50 77 -50 134v308h51v-299c0 -93 46 -144 133 -144s136 52 136 144v299h51v-482zM323 590h-58l-106 147h67z" />
    <glyph glyph-name="uacute" unicode="&#xfa;" horiz-adv-x="559" 
d="M462 0h-51v57c-36 -42 -83 -63 -142 -63c-53 0 -96 15 -128 46c-33 32 -50 77 -50 134v308h51v-299c0 -93 46 -144 133 -144s136 52 136 144v299h51v-482zM393 737l-106 -147h-58l97 147h67z" />
    <glyph glyph-name="ucircumflex" unicode="&#xfb;" horiz-adv-x="559" 
d="M462 0h-51v57c-36 -42 -83 -63 -142 -63c-53 0 -96 15 -128 46c-33 32 -50 77 -50 134v308h51v-299c0 -93 46 -144 133 -144s136 52 136 144v299h51v-482zM426 590h-57l-93 109l-93 -109h-57l123 147h54z" />
    <glyph glyph-name="udieresis" unicode="&#xfc;" horiz-adv-x="559" 
d="M462 0h-51v57c-36 -42 -83 -63 -142 -63c-53 0 -96 15 -128 46c-33 32 -50 77 -50 134v308h51v-299c0 -93 46 -144 133 -144s136 52 136 144v299h51v-482zM201 600h-58v77h58v-77zM409 600h-58v77h58v-77z" />
    <glyph glyph-name="yacute" unicode="&#xfd;" horiz-adv-x="430" 
d="M416 482l-224 -613c-9 -26 -20 -45 -33 -56c-24 -23 -59 -31 -91 -31h-24v45h19c55 0 71 18 88 66l39 107l-176 482h56l145 -422l145 422h56zM332 737l-106 -147h-58l97 147h67z" />
    <glyph glyph-name="thorn" unicode="&#xfe;" horiz-adv-x="540" 
d="M471 241c0 -76 -13 -156 -62 -205c-25 -25 -67 -42 -118 -42c-55 0 -100 12 -143 68v-292h-51v942h51v-292c43 56 88 68 143 68c51 0 93 -17 118 -42c49 -49 62 -129 62 -205zM420 241c0 100 -18 202 -136 202s-136 -102 -136 -202s18 -202 136 -202s136 102 136 202z
" />
    <glyph glyph-name="ydieresis" unicode="&#xff;" horiz-adv-x="430" 
d="M416 482l-224 -613c-9 -26 -20 -45 -33 -56c-24 -23 -59 -31 -91 -31h-24v45h19c55 0 71 18 88 66l39 107l-176 482h56l145 -422l145 422h56zM140 600h-58v77h58v-77zM348 600h-58v77h58v-77z" />
    <glyph glyph-name="Amacron" unicode="&#x100;" horiz-adv-x="602" 
d="M587 0h-58l-62 173h-332l-62 -173h-58l262 712h48zM301 640l-149 -419h298zM449 800h-296v46h296v-46z" />
    <glyph glyph-name="amacron" unicode="&#x101;" horiz-adv-x="524" 
d="M431 0h-51v48c-41 -41 -79 -54 -147 -54c-72 0 -111 12 -142 44c-23 23 -35 58 -35 94c0 88 63 139 168 139h156v54c0 77 -37 118 -136 118c-68 0 -102 -17 -133 -61l-37 32c41 57 91 74 170 74c128 0 187 -57 187 -158v-330zM380 168v62h-150c-82 0 -123 -32 -123 -97
c0 -64 38 -94 126 -94c44 0 85 4 120 37c18 17 27 48 27 92zM410 610h-296v46h296v-46z" />
    <glyph glyph-name="Abreve" unicode="&#x102;" horiz-adv-x="602" 
d="M587 0h-58l-62 173h-332l-62 -173h-58l262 712h48zM301 640l-149 -419h298zM466 927c-9 -85 -57 -135 -165 -135s-156 50 -165 135h45c8 -56 51 -90 120 -90s112 34 120 90h45z" />
    <glyph glyph-name="abreve" unicode="&#x103;" horiz-adv-x="524" 
d="M431 0h-51v48c-41 -41 -79 -54 -147 -54c-72 0 -111 12 -142 44c-23 23 -35 58 -35 94c0 88 63 139 168 139h156v54c0 77 -37 118 -136 118c-68 0 -102 -17 -133 -61l-37 32c41 57 91 74 170 74c128 0 187 -57 187 -158v-330zM380 168v62h-150c-82 0 -123 -32 -123 -97
c0 -64 38 -94 126 -94c44 0 85 4 120 37c18 17 27 48 27 92zM409 722c-9 -85 -57 -135 -165 -135s-156 50 -165 135h45c8 -56 51 -90 120 -90s112 34 120 90h45z" />
    <glyph glyph-name="Aogonek" unicode="&#x104;" horiz-adv-x="602" 
d="M587 0h-58l-62 173h-332l-62 -173h-58l262 712h48zM301 640l-149 -419h298zM584 -70l-64 -150h-63l72 150h55z" />
    <glyph glyph-name="aogonek" unicode="&#x105;" horiz-adv-x="524" 
d="M431 0h-51v48c-41 -41 -79 -54 -147 -54c-72 0 -111 12 -142 44c-23 23 -35 58 -35 94c0 88 63 139 168 139h156v54c0 77 -37 118 -136 118c-68 0 -102 -17 -133 -61l-37 32c41 57 91 74 170 74c128 0 187 -57 187 -158v-330zM380 168v62h-150c-82 0 -123 -32 -123 -97
c0 -64 38 -94 126 -94c44 0 85 4 120 37c18 17 27 48 27 92zM435 -70l-64 -150h-63l72 150h55z" />
    <glyph glyph-name="Cacute" unicode="&#x106;" horiz-adv-x="644" 
d="M568 202c-24 -128 -116 -208 -242 -208c-71 0 -131 26 -173 68c-66 66 -71 121 -71 294s5 228 71 294c42 42 102 68 173 68c128 0 218 -80 242 -208h-55c-21 99 -91 160 -187 160c-52 0 -98 -18 -135 -55c-51 -51 -55 -109 -55 -259s4 -208 55 -259
c37 -37 83 -55 135 -55c96 0 168 61 189 160h53zM439 927l-106 -147h-58l97 147h67z" />
    <glyph glyph-name="cacute" unicode="&#x107;" horiz-adv-x="493" 
d="M440 68c-51 -57 -93 -74 -159 -74c-132 0 -212 94 -212 247s80 247 212 247c66 0 108 -17 159 -74l-35 -32c-41 46 -73 61 -124 61c-55 0 -99 -21 -128 -64c-24 -35 -33 -73 -33 -138s9 -103 33 -138c29 -43 73 -64 128 -64c51 0 83 16 124 61zM398 737l-106 -147h-58
l97 147h67z" />
    <glyph glyph-name="Ccircumflex" unicode="&#x108;" horiz-adv-x="644" 
d="M568 202c-24 -128 -116 -208 -242 -208c-71 0 -131 26 -173 68c-66 66 -71 121 -71 294s5 228 71 294c42 42 102 68 173 68c128 0 218 -80 242 -208h-55c-21 99 -91 160 -187 160c-52 0 -98 -18 -135 -55c-51 -51 -55 -109 -55 -259s4 -208 55 -259
c37 -37 83 -55 135 -55c96 0 168 61 189 160h53zM476 780h-57l-93 109l-93 -109h-57l123 147h54z" />
    <glyph glyph-name="ccircumflex" unicode="&#x109;" horiz-adv-x="493" 
d="M440 68c-51 -57 -93 -74 -159 -74c-132 0 -212 94 -212 247s80 247 212 247c66 0 108 -17 159 -74l-35 -32c-41 46 -73 61 -124 61c-55 0 -99 -21 -128 -64c-24 -35 -33 -73 -33 -138s9 -103 33 -138c29 -43 73 -64 128 -64c51 0 83 16 124 61zM431 590h-57l-93 109
l-93 -109h-57l123 147h54z" />
    <glyph glyph-name="Cdotaccent" unicode="&#x10a;" horiz-adv-x="644" 
d="M568 202c-24 -128 -116 -208 -242 -208c-71 0 -131 26 -173 68c-66 66 -71 121 -71 294s5 228 71 294c42 42 102 68 173 68c128 0 218 -80 242 -208h-55c-21 99 -91 160 -187 160c-52 0 -98 -18 -135 -55c-51 -51 -55 -109 -55 -259s4 -208 55 -259
c37 -37 83 -55 135 -55c96 0 168 61 189 160h53zM357 800h-62v63h62v-63z" />
    <glyph glyph-name="cdotaccent" unicode="&#x10b;" horiz-adv-x="493" 
d="M440 68c-51 -57 -93 -74 -159 -74c-132 0 -212 94 -212 247s80 247 212 247c66 0 108 -17 159 -74l-35 -32c-41 46 -73 61 -124 61c-55 0 -99 -21 -128 -64c-24 -35 -33 -73 -33 -138s9 -103 33 -138c29 -43 73 -64 128 -64c51 0 83 16 124 61zM312 610h-62v63h62v-63z
" />
    <glyph glyph-name="Ccaron" unicode="&#x10c;" horiz-adv-x="644" 
d="M568 202c-24 -128 -116 -208 -242 -208c-71 0 -131 26 -173 68c-66 66 -71 121 -71 294s5 228 71 294c42 42 102 68 173 68c128 0 218 -80 242 -208h-55c-21 99 -91 160 -187 160c-52 0 -98 -18 -135 -55c-51 -51 -55 -109 -55 -259s4 -208 55 -259
c37 -37 83 -55 135 -55c96 0 168 61 189 160h53zM472 927l-123 -147h-54l-123 147h57l93 -109l93 109h57z" />
    <glyph glyph-name="ccaron" unicode="&#x10d;" horiz-adv-x="493" 
d="M440 68c-51 -57 -93 -74 -159 -74c-132 0 -212 94 -212 247s80 247 212 247c66 0 108 -17 159 -74l-35 -32c-41 46 -73 61 -124 61c-55 0 -99 -21 -128 -64c-24 -35 -33 -73 -33 -138s9 -103 33 -138c29 -43 73 -64 128 -64c51 0 83 16 124 61zM431 737l-123 -147h-54
l-123 147h57l93 -109l93 109h57z" />
    <glyph glyph-name="Dcaron" unicode="&#x10e;" horiz-adv-x="678" 
d="M596 356c0 -106 -1 -223 -69 -291c-43 -43 -103 -65 -178 -65h-239v712h239c75 0 135 -22 178 -65c68 -68 69 -185 69 -291zM542 356c0 94 0 197 -53 253c-41 43 -96 55 -153 55h-172v-616h172c57 0 112 12 153 55c53 56 53 159 53 253zM489 927l-123 -147h-54l-123 147
h57l93 -109l93 109h57z" />
    <glyph glyph-name="dcaron" unicode="&#x10f;" horiz-adv-x="540" 
d="M443 0h-51v62c-43 -56 -88 -68 -143 -68c-51 0 -93 17 -118 42c-49 49 -62 129 -62 205s13 156 62 205c25 25 67 42 118 42c55 0 100 -12 143 -68v292h51v-712zM392 241c0 100 -18 202 -136 202s-136 -102 -136 -202s18 -202 136 -202s136 102 136 202zM601 712l-48 -148
h-47l40 148h55z" />
    <glyph glyph-name="Dcroat" unicode="&#x110;" horiz-adv-x="689" 
d="M607 356c0 -106 -1 -223 -69 -291c-43 -43 -103 -65 -178 -65h-239v338h-81v42h81v332h239c75 0 135 -22 178 -65c68 -68 69 -185 69 -291zM553 356c0 94 0 197 -53 253c-41 43 -96 55 -153 55h-172v-284h178v-42h-178v-290h172c57 0 112 12 153 55c53 56 53 159 53 253z
" />
    <glyph glyph-name="dcroat" unicode="&#x111;" horiz-adv-x="550" 
d="M508 574h-65v-574h-51v62c-42 -56 -89 -68 -143 -68c-50 0 -93 17 -118 42c-49 49 -62 129 -62 205s13 156 62 205c25 25 68 42 118 42c54 0 101 -12 143 -68v154h-136v36h136v102h51v-102h65v-36zM392 241c0 100 -18 202 -136 202s-136 -102 -136 -202s18 -202 136 -202
s136 102 136 202z" />
    <glyph glyph-name="Emacron" unicode="&#x112;" horiz-adv-x="598" 
d="M542 0h-432v712h432v-48h-378v-281h322v-48h-322v-287h378v-48zM462 800h-296v46h296v-46z" />
    <glyph glyph-name="emacron" unicode="&#x113;" horiz-adv-x="523" 
d="M455 230h-335c0 -123 54 -190 157 -190c57 0 92 17 133 58l38 -30c-49 -49 -94 -74 -174 -74c-133 0 -205 86 -205 247c0 156 72 247 193 247s193 -87 193 -235v-23zM404 271c-3 46 -4 62 -17 91c-21 51 -69 81 -125 81s-102 -31 -125 -81c-13 -29 -14 -45 -17 -91h284z
M409 610h-296v46h296v-46z" />
    <glyph glyph-name="Ebreve" unicode="&#x114;" horiz-adv-x="598" 
d="M542 0h-432v712h432v-48h-378v-281h322v-48h-322v-287h378v-48zM479 927c-9 -85 -57 -135 -165 -135s-156 50 -165 135h45c8 -56 51 -90 120 -90s112 34 120 90h45z" />
    <glyph glyph-name="ebreve" unicode="&#x115;" horiz-adv-x="523" 
d="M455 230h-335c0 -123 54 -190 157 -190c57 0 92 17 133 58l38 -30c-49 -49 -94 -74 -174 -74c-133 0 -205 86 -205 247c0 156 72 247 193 247s193 -87 193 -235v-23zM404 271c-3 46 -4 62 -17 91c-21 51 -69 81 -125 81s-102 -31 -125 -81c-13 -29 -14 -45 -17 -91h284z
M429 722c-9 -85 -57 -135 -165 -135s-156 50 -165 135h45c8 -56 51 -90 120 -90s112 34 120 90h45z" />
    <glyph glyph-name="Edotaccent" unicode="&#x116;" horiz-adv-x="598" 
d="M542 0h-432v712h432v-48h-378v-281h322v-48h-322v-287h378v-48zM345 800h-62v63h62v-63z" />
    <glyph glyph-name="edotaccent" unicode="&#x117;" horiz-adv-x="523" 
d="M455 230h-335c0 -123 54 -190 157 -190c57 0 92 17 133 58l38 -30c-49 -49 -94 -74 -174 -74c-133 0 -205 86 -205 247c0 156 72 247 193 247s193 -87 193 -235v-23zM404 271c-3 46 -4 62 -17 91c-21 51 -69 81 -125 81s-102 -31 -125 -81c-13 -29 -14 -45 -17 -91h284z
M292 610h-62v63h62v-63z" />
    <glyph glyph-name="Eogonek" unicode="&#x118;" horiz-adv-x="598" 
d="M542 0h-432v712h432v-48h-378v-281h322v-48h-322v-287h378v-48zM542 -70l-64 -150h-63l72 150h55z" />
    <glyph glyph-name="eogonek" unicode="&#x119;" horiz-adv-x="523" 
d="M455 230h-335c0 -123 54 -190 157 -190c57 0 92 17 133 58l38 -30c-49 -49 -94 -74 -174 -74c-133 0 -205 86 -205 247c0 156 72 247 193 247s193 -87 193 -235v-23zM404 271c-3 46 -4 62 -17 91c-21 51 -69 81 -125 81s-102 -31 -125 -81c-13 -29 -14 -45 -17 -91h284z
M355 -70l-64 -150h-63l72 150h55z" />
    <glyph glyph-name="Ecaron" unicode="&#x11a;" horiz-adv-x="598" 
d="M542 0h-432v712h432v-48h-378v-281h322v-48h-322v-287h378v-48zM464 927l-123 -147h-54l-123 147h57l93 -109l93 109h57z" />
    <glyph glyph-name="ecaron" unicode="&#x11b;" horiz-adv-x="523" 
d="M455 230h-335c0 -123 54 -190 157 -190c57 0 92 17 133 58l38 -30c-49 -49 -94 -74 -174 -74c-133 0 -205 86 -205 247c0 156 72 247 193 247s193 -87 193 -235v-23zM404 271c-3 46 -4 62 -17 91c-21 51 -69 81 -125 81s-102 -31 -125 -81c-13 -29 -14 -45 -17 -91h284z
M411 737l-123 -147h-54l-123 147h57l93 -109l93 109h57z" />
    <glyph glyph-name="Gcircumflex" unicode="&#x11c;" horiz-adv-x="651" 
d="M571 248c0 -75 -16 -125 -58 -172c-46 -51 -115 -82 -187 -82c-71 0 -131 26 -173 68c-66 66 -71 121 -71 294s5 228 71 294c42 42 102 68 173 68c124 0 222 -83 243 -208h-54c-21 99 -93 160 -189 160c-52 0 -98 -18 -135 -55c-51 -51 -55 -109 -55 -259s4 -208 55 -259
c37 -37 83 -55 135 -55c56 0 111 24 148 69c31 39 43 80 43 141v64h-191v48h245v-116zM476 780h-57l-93 109l-93 -109h-57l123 147h54z" />
    <glyph glyph-name="gcircumflex" unicode="&#x11d;" horiz-adv-x="540" 
d="M443 -27c0 -121 -72 -209 -197 -209c-72 0 -109 19 -159 64l34 34c38 -35 64 -53 125 -53c101 0 146 71 146 167v86c-43 -56 -88 -68 -143 -68c-51 0 -93 17 -118 42c-49 49 -62 129 -62 205s13 156 62 205c25 25 67 42 118 42c55 0 100 -12 143 -68v62h51v-509zM392 241
c0 100 -18 202 -136 202s-136 -102 -136 -202s18 -202 136 -202s136 102 136 202zM427 590h-57l-93 109l-93 -109h-57l123 147h54z" />
    <glyph glyph-name="Gbreve" unicode="&#x11e;" horiz-adv-x="651" 
d="M571 248c0 -75 -16 -125 -58 -172c-46 -51 -115 -82 -187 -82c-71 0 -131 26 -173 68c-66 66 -71 121 -71 294s5 228 71 294c42 42 102 68 173 68c124 0 222 -83 243 -208h-54c-21 99 -93 160 -189 160c-52 0 -98 -18 -135 -55c-51 -51 -55 -109 -55 -259s4 -208 55 -259
c37 -37 83 -55 135 -55c56 0 111 24 148 69c31 39 43 80 43 141v64h-191v48h245v-116zM488 927c-9 -85 -57 -135 -165 -135s-156 50 -165 135h45c8 -56 51 -90 120 -90s112 34 120 90h45z" />
    <glyph glyph-name="gbreve" unicode="&#x11f;" horiz-adv-x="540" 
d="M443 -27c0 -121 -72 -209 -197 -209c-72 0 -109 19 -159 64l34 34c38 -35 64 -53 125 -53c101 0 146 71 146 167v86c-43 -56 -88 -68 -143 -68c-51 0 -93 17 -118 42c-49 49 -62 129 -62 205s13 156 62 205c25 25 67 42 118 42c55 0 100 -12 143 -68v62h51v-509zM392 241
c0 100 -18 202 -136 202s-136 -102 -136 -202s18 -202 136 -202s136 102 136 202zM421 722c-9 -85 -57 -135 -165 -135s-156 50 -165 135h45c8 -56 51 -90 120 -90s112 34 120 90h45z" />
    <glyph glyph-name="Gdotaccent" unicode="&#x120;" horiz-adv-x="651" 
d="M571 248c0 -75 -16 -125 -58 -172c-46 -51 -115 -82 -187 -82c-71 0 -131 26 -173 68c-66 66 -71 121 -71 294s5 228 71 294c42 42 102 68 173 68c124 0 222 -83 243 -208h-54c-21 99 -93 160 -189 160c-52 0 -98 -18 -135 -55c-51 -51 -55 -109 -55 -259s4 -208 55 -259
c37 -37 83 -55 135 -55c56 0 111 24 148 69c31 39 43 80 43 141v64h-191v48h245v-116zM357 800h-62v63h62v-63z" />
    <glyph glyph-name="gdotaccent" unicode="&#x121;" horiz-adv-x="540" 
d="M443 -27c0 -121 -72 -209 -197 -209c-72 0 -109 19 -159 64l34 34c38 -35 64 -53 125 -53c101 0 146 71 146 167v86c-43 -56 -88 -68 -143 -68c-51 0 -93 17 -118 42c-49 49 -62 129 -62 205s13 156 62 205c25 25 67 42 118 42c55 0 100 -12 143 -68v62h51v-509zM392 241
c0 100 -18 202 -136 202s-136 -102 -136 -202s18 -202 136 -202s136 102 136 202zM287 610h-62v63h62v-63z" />
    <glyph glyph-name="Gcommaaccent" unicode="&#x122;" horiz-adv-x="651" 
d="M571 248c0 -75 -16 -125 -58 -172c-46 -51 -115 -82 -187 -82c-71 0 -131 26 -173 68c-66 66 -71 121 -71 294s5 228 71 294c42 42 102 68 173 68c124 0 222 -83 243 -208h-54c-21 99 -93 160 -189 160c-52 0 -98 -18 -135 -55c-51 -51 -55 -109 -55 -259s4 -208 55 -259
c37 -37 83 -55 135 -55c56 0 111 24 148 69c31 39 43 80 43 141v64h-191v48h245v-116zM358 -70l-64 -150h-63l72 150h55z" />
    <glyph glyph-name="gcommaaccent" unicode="&#x123;" horiz-adv-x="540" 
d="M443 -27c0 -121 -72 -209 -197 -209c-72 0 -109 19 -159 64l34 34c38 -35 64 -53 125 -53c101 0 146 71 146 167v86c-43 -56 -88 -68 -143 -68c-51 0 -93 17 -118 42c-49 49 -62 129 -62 205s13 156 62 205c25 25 67 42 118 42c55 0 100 -12 143 -68v62h51v-509zM392 241
c0 100 -18 202 -136 202s-136 -102 -136 -202s18 -202 136 -202s136 102 136 202zM387 737l-106 -147h-58l97 147h67z" />
    <glyph glyph-name="Hcircumflex" unicode="&#x124;" horiz-adv-x="699" 
d="M589 0h-54v335h-371v-335h-54v712h54v-329h371v329h54v-712zM500 780h-57l-93 109l-93 -109h-57l123 147h54z" />
    <glyph glyph-name="hcircumflex" unicode="&#x125;" horiz-adv-x="559" 
d="M468 0h-51v299c0 93 -46 144 -133 144s-136 -51 -136 -144v-299h-51v712h51v-287c36 42 83 63 142 63c111 0 178 -68 178 -180v-308zM273 780h-57l-93 109l-93 -109h-57l123 147h54z" />
    <glyph glyph-name="Hbar" unicode="&#x126;" horiz-adv-x="711" 
d="M595 0h-54v335h-371v-335h-54v517h-76v42h76v153h54v-153h371v153h54v-153h76v-42h-76v-517zM541 383v134h-371v-134h371z" />
    <glyph glyph-name="hbar" unicode="&#x127;" horiz-adv-x="569" 
d="M478 0h-51v299c0 93 -47 144 -133 144s-136 -53 -136 -144v-299h-51v574h-65v36h65v102h51v-102h136v-36h-136v-149c42 44 81 63 143 63c109 0 177 -69 177 -180v-308z" />
    <glyph glyph-name="Itilde" unicode="&#x128;" horiz-adv-x="274" 
d="M164 0h-54v712h54v-712zM286 843c-46 -46 -71 -48 -89 -48c-23 0 -38 6 -69 24c-19 11 -36 21 -56 21c-16 0 -28 -2 -59 -33l-30 29c46 46 70 48 89 48c29 0 45 -9 69 -24c21 -13 36 -21 56 -21c15 0 28 2 59 33z" />
    <glyph glyph-name="itilde" unicode="&#x129;" horiz-adv-x="245" 
d="M148 0h-51v482h51v-482zM274 653c-46 -46 -71 -48 -89 -48c-23 0 -38 6 -69 24c-19 11 -36 21 -56 21c-16 0 -28 -2 -59 -33l-30 29c46 46 70 48 89 48c29 0 45 -9 69 -24c21 -13 36 -21 56 -21c15 0 28 2 59 33z" />
    <glyph glyph-name="Imacron" unicode="&#x12a;" horiz-adv-x="274" 
d="M164 0h-54v712h54v-712zM285 800h-296v46h296v-46z" />
    <glyph glyph-name="imacron" unicode="&#x12b;" horiz-adv-x="245" 
d="M148 0h-51v482h51v-482zM271 610h-296v46h296v-46z" />
    <glyph glyph-name="Ibreve" unicode="&#x12c;" horiz-adv-x="274" 
d="M164 0h-54v712h54v-712zM302 927c-9 -85 -57 -135 -165 -135s-156 50 -165 135h45c8 -56 51 -90 120 -90s112 34 120 90h45z" />
    <glyph glyph-name="ibreve" unicode="&#x12d;" horiz-adv-x="245" 
d="M148 0h-51v482h51v-482zM287 722c-9 -85 -57 -135 -165 -135s-156 50 -165 135h45c8 -56 51 -90 120 -90s112 34 120 90h45z" />
    <glyph glyph-name="Iogonek" unicode="&#x12e;" horiz-adv-x="274" 
d="M164 0h-54v712h54v-712zM165 -70l-64 -150h-63l72 150h55z" />
    <glyph glyph-name="iogonek" unicode="&#x12f;" horiz-adv-x="245" 
d="M148 0h-51v482h51v-482zM154 649h-63v63h63v-63zM152 -70l-64 -150h-63l72 150h55z" />
    <glyph glyph-name="Idotaccent" unicode="&#x130;" horiz-adv-x="274" 
d="M164 0h-54v712h54v-712zM168 800h-62v63h62v-63z" />
    <glyph glyph-name="dotlessi" unicode="&#x131;" horiz-adv-x="245" 
d="M148 0h-51v482h51v-482z" />
    <glyph glyph-name="IJ" unicode="&#x132;" horiz-adv-x="772" 
d="M164 0h-54v712h54v-712zM672 210c0 -130 -83 -216 -212 -216c-63 0 -115 20 -156 61l37 37c27 -27 56 -50 119 -50c103 0 158 64 158 179v491h54v-502z" />
    <glyph glyph-name="ij" unicode="&#x133;" horiz-adv-x="490" 
d="M148 0h-51v482h51v-482zM154 649h-63v63h63v-63zM393 -105c0 -76 -37 -125 -116 -125h-44v45h35c57 0 74 26 74 81v586h51v-587zM399 649h-63v63h63v-63z" />
    <glyph glyph-name="Jcircumflex" unicode="&#x134;" horiz-adv-x="498" 
d="M398 210c0 -130 -83 -216 -212 -216c-63 0 -115 20 -156 61l37 37c27 -27 56 -50 119 -50c103 0 158 64 158 179v491h54v-502zM521 780h-57l-93 109l-93 -109h-57l123 147h54z" />
    <glyph glyph-name="jcircumflex" unicode="&#x135;" horiz-adv-x="245" 
d="M148 -105c0 -76 -37 -125 -116 -125h-44v45h35c57 0 74 26 74 81v586h51v-587zM272 590h-57l-93 109l-93 -109h-57l123 147h54z" />
    <glyph glyph-name="Kcommaaccent" unicode="&#x136;" horiz-adv-x="645" 
d="M627 0h-64l-229 399l-170 -206v-193h-54v712h54v-445l361 445h65l-220 -272zM381 -70l-64 -150h-63l72 150h55z" />
    <glyph glyph-name="kcommaaccent" unicode="&#x137;" horiz-adv-x="527" 
d="M487 0h-63l-166 265l-110 -127v-138h-51v712h51v-502l239 272h65l-159 -180zM321 -70l-64 -150h-63l72 150h55z" />
    <glyph glyph-name="kgreenlandic" unicode="&#x138;" horiz-adv-x="527" 
d="M487 0h-63l-166 265l-110 -127v-138h-51v482h51v-272l239 272h65l-159 -180z" />
    <glyph glyph-name="Lacute" unicode="&#x139;" horiz-adv-x="572" 
d="M542 0h-432v712h54v-664h378v-48zM267 927l-106 -147h-58l97 147h67z" />
    <glyph glyph-name="lacute" unicode="&#x13a;" horiz-adv-x="287" 
d="M255 0h-44c-79 0 -116 49 -116 125v587h51v-586c0 -55 17 -81 74 -81h35v-45zM259 927l-106 -147h-58l97 147h67z" />
    <glyph glyph-name="Lcommaaccent" unicode="&#x13b;" horiz-adv-x="572" 
d="M542 0h-432v712h54v-664h378v-48zM344 -70l-64 -150h-63l72 150h55z" />
    <glyph glyph-name="lcommaaccent" unicode="&#x13c;" horiz-adv-x="287" 
d="M255 0h-44c-79 0 -116 49 -116 125v587h51v-586c0 -55 17 -81 74 -81h35v-45zM202 -70l-64 -150h-63l72 150h55z" />
    <glyph glyph-name="Lcaron" unicode="&#x13d;" horiz-adv-x="572" 
d="M542 0h-432v712h54v-664h378v-48zM382 712l-48 -148h-47l40 148h55z" />
    <glyph glyph-name="lcaron" unicode="&#x13e;" horiz-adv-x="287" 
d="M255 0h-44c-79 0 -116 49 -116 125v587h51v-586c0 -55 17 -81 74 -81h35v-45zM303 712l-48 -148h-47l40 148h55z" />
    <glyph glyph-name="Ldot" unicode="&#x13f;" horiz-adv-x="572" 
d="M542 0h-432v712h54v-664h378v-48zM459 327h-62v63h62v-63z" />
    <glyph glyph-name="ldot" unicode="&#x140;" horiz-adv-x="293" 
d="M255 0h-44c-79 0 -116 49 -116 125v587h51v-586c0 -55 17 -81 74 -81h35v-45zM298 232h-62v63h62v-63z" />
    <glyph glyph-name="Lslash" unicode="&#x141;" horiz-adv-x="578" 
d="M548 0h-432v306l-76 -48v48l76 48v358h54v-324l164 104v-48l-164 -104v-292h378v-48z" />
    <glyph glyph-name="lslash" unicode="&#x142;" horiz-adv-x="308" 
d="M266 0h-44c-79 0 -116 49 -116 125v231l-66 -41v45l66 41v311h51v-279l88 55v-45l-88 -55v-262c0 -55 17 -81 74 -81h35v-45z" />
    <glyph glyph-name="Nacute" unicode="&#x143;" horiz-adv-x="739" 
d="M629 0h-54l-411 619v-619h-54v712h54l411 -617v617h54v-712zM486 927l-106 -147h-58l97 147h67z" />
    <glyph glyph-name="nacute" unicode="&#x144;" horiz-adv-x="559" 
d="M468 0h-51v299c0 93 -46 144 -133 144s-136 -52 -136 -144v-299h-51v482h51v-57c36 42 83 63 142 63c53 0 96 -15 128 -46c33 -32 50 -77 50 -134v-308zM396 737l-106 -147h-58l97 147h67z" />
    <glyph glyph-name="Ncommaaccent" unicode="&#x145;" horiz-adv-x="739" 
d="M629 0h-54l-411 619v-619h-54v712h54l411 -617v617h54v-712zM417 -70l-64 -150h-63l72 150h55z" />
    <glyph glyph-name="ncommaaccent" unicode="&#x146;" horiz-adv-x="559" 
d="M468 0h-51v299c0 93 -46 144 -133 144s-136 -52 -136 -144v-299h-51v482h51v-57c36 42 83 63 142 63c53 0 96 -15 128 -46c33 -32 50 -77 50 -134v-308zM337 -70l-64 -150h-63l72 150h55z" />
    <glyph glyph-name="Ncaron" unicode="&#x147;" horiz-adv-x="739" 
d="M629 0h-54l-411 619v-619h-54v712h54l411 -617v617h54v-712zM519 927l-123 -147h-54l-123 147h57l93 -109l93 109h57z" />
    <glyph glyph-name="ncaron" unicode="&#x148;" horiz-adv-x="559" 
d="M468 0h-51v299c0 93 -46 144 -133 144s-136 -52 -136 -144v-299h-51v482h51v-57c36 42 83 63 142 63c53 0 96 -15 128 -46c33 -32 50 -77 50 -134v-308zM429 737l-123 -147h-54l-123 147h57l93 -109l93 109h57z" />
    <glyph glyph-name="napostrophe" unicode="&#x149;" horiz-adv-x="559" 
d="M468 0h-51v299c0 93 -46 144 -133 144s-136 -52 -136 -144v-299h-51v482h51v-57c36 42 83 63 142 63c53 0 96 -15 128 -46c33 -32 50 -77 50 -134v-308zM97 584l-53 -56v184h53v-128z" />
    <glyph glyph-name="Eng" unicode="&#x14a;" horiz-adv-x="739" 
d="M629 -95c0 -76 -37 -125 -116 -125h-44v45h32c57 0 74 26 74 81v94l-411 619v-619h-54v712h54l411 -617v617h54v-807z" />
    <glyph glyph-name="eng" unicode="&#x14b;" horiz-adv-x="559" 
d="M468 -95c0 -76 -37 -125 -116 -125h-44v45h35c57 0 74 26 74 81v393c0 93 -46 144 -133 144s-136 -52 -136 -144v-299h-51v482h51v-57c36 42 83 63 142 63c53 0 96 -15 128 -46c33 -32 50 -77 50 -134v-403z" />
    <glyph glyph-name="Omacron" unicode="&#x14c;" horiz-adv-x="652" 
d="M570 356c0 -173 -5 -228 -71 -294c-42 -42 -102 -68 -173 -68s-131 26 -173 68c-66 66 -71 121 -71 294s5 228 71 294c42 42 102 68 173 68s131 -26 173 -68c66 -66 71 -121 71 -294zM516 356c0 150 -4 208 -55 259c-37 37 -83 55 -135 55s-98 -18 -135 -55
c-51 -51 -55 -109 -55 -259s4 -208 55 -259c37 -37 83 -55 135 -55s98 18 135 55c51 51 55 109 55 259zM474 800h-296v46h296v-46z" />
    <glyph glyph-name="omacron" unicode="&#x14d;" horiz-adv-x="526" 
d="M457 241c0 -69 -9 -143 -60 -194c-35 -35 -80 -53 -134 -53s-99 18 -134 53c-51 51 -60 125 -60 194s9 143 60 194c35 35 80 53 134 53s99 -18 134 -53c51 -51 60 -125 60 -194zM406 241c0 56 -3 121 -43 161c-27 27 -61 41 -100 41s-73 -14 -100 -41
c-40 -40 -43 -105 -43 -161s3 -121 43 -161c27 -27 61 -41 100 -41s73 14 100 41c40 40 43 105 43 161zM411 610h-296v46h296v-46z" />
    <glyph glyph-name="Obreve" unicode="&#x14e;" horiz-adv-x="652" 
d="M570 356c0 -173 -5 -228 -71 -294c-42 -42 -102 -68 -173 -68s-131 26 -173 68c-66 66 -71 121 -71 294s5 228 71 294c42 42 102 68 173 68s131 -26 173 -68c66 -66 71 -121 71 -294zM516 356c0 150 -4 208 -55 259c-37 37 -83 55 -135 55s-98 -18 -135 -55
c-51 -51 -55 -109 -55 -259s4 -208 55 -259c37 -37 83 -55 135 -55s98 18 135 55c51 51 55 109 55 259zM491 927c-9 -85 -57 -135 -165 -135s-156 50 -165 135h45c8 -56 51 -90 120 -90s112 34 120 90h45z" />
    <glyph glyph-name="obreve" unicode="&#x14f;" horiz-adv-x="526" 
d="M457 241c0 -69 -9 -143 -60 -194c-35 -35 -80 -53 -134 -53s-99 18 -134 53c-51 51 -60 125 -60 194s9 143 60 194c35 35 80 53 134 53s99 -18 134 -53c51 -51 60 -125 60 -194zM406 241c0 56 -3 121 -43 161c-27 27 -61 41 -100 41s-73 -14 -100 -41
c-40 -40 -43 -105 -43 -161s3 -121 43 -161c27 -27 61 -41 100 -41s73 14 100 41c40 40 43 105 43 161zM403 697c-7 -83 -56 -120 -140 -120s-133 37 -140 120h51c5 -52 35 -80 89 -80s84 28 89 80h51z" />
    <glyph glyph-name="Ohungarumlaut" unicode="&#x150;" horiz-adv-x="652" 
d="M570 356c0 -173 -5 -228 -71 -294c-42 -42 -102 -68 -173 -68s-131 26 -173 68c-66 66 -71 121 -71 294s5 228 71 294c42 42 102 68 173 68s131 -26 173 -68c66 -66 71 -121 71 -294zM516 356c0 150 -4 208 -55 259c-37 37 -83 55 -135 55s-98 -18 -135 -55
c-51 -51 -55 -109 -55 -259s4 -208 55 -259c37 -37 83 -55 135 -55s98 18 135 55c51 51 55 109 55 259zM370 927l-106 -147h-58l97 147h67zM517 927l-107 -147h-57l97 147h67z" />
    <glyph glyph-name="ohungarumlaut" unicode="&#x151;" horiz-adv-x="526" 
d="M457 241c0 -69 -9 -143 -60 -194c-35 -35 -80 -53 -134 -53s-99 18 -134 53c-51 51 -60 125 -60 194s9 143 60 194c35 35 80 53 134 53s99 -18 134 -53c51 -51 60 -125 60 -194zM406 241c0 56 -3 121 -43 161c-27 27 -61 41 -100 41s-73 -14 -100 -41
c-40 -40 -43 -105 -43 -161s3 -121 43 -161c27 -27 61 -41 100 -41s73 14 100 41c40 40 43 105 43 161zM307 737l-106 -147h-58l97 147h67zM454 737l-107 -147h-57l97 147h67z" />
    <glyph glyph-name="OE" unicode="&#x152;" horiz-adv-x="997" 
d="M941 0h-425v85c-48 -60 -117 -91 -190 -91c-71 0 -131 26 -173 68c-66 66 -71 121 -71 294s5 228 71 294c42 42 102 68 173 68c78 0 141 -30 190 -91v85h422v-47h-369c0 -96 1 -189 1 -285h313v-42h-313c0 -97 -1 -194 -1 -291h372v-47zM516 356c0 150 -4 208 -55 259
c-37 37 -83 55 -135 55s-98 -18 -135 -55c-51 -51 -55 -109 -55 -259s4 -208 55 -259c37 -37 83 -55 135 -55s98 18 135 55c51 51 55 109 55 259z" />
    <glyph glyph-name="oe" unicode="&#x153;" horiz-adv-x="860" 
d="M457 230c0 -123 54 -190 157 -190c57 0 92 17 133 58l38 -30c-49 -49 -94 -74 -174 -74c-86 0 -145 35 -178 105c-31 -68 -95 -105 -170 -105c-54 0 -99 18 -134 53c-51 51 -60 125 -60 194s9 143 60 194c35 35 80 53 134 53c76 0 139 -37 170 -105c31 68 89 105 166 105
c121 0 193 -87 193 -235v-23h-335zM406 241c0 56 -3 121 -43 161c-27 27 -61 41 -100 41s-73 -14 -100 -41c-40 -40 -43 -105 -43 -161s3 -121 43 -161c27 -27 61 -41 100 -41s73 14 100 41c40 40 43 105 43 161zM741 271c-3 46 -4 62 -17 91c-21 51 -69 81 -125 81
s-106 -31 -125 -81c-10 -27 -14 -44 -17 -91h284z" />
    <glyph glyph-name="Racute" unicode="&#x154;" horiz-adv-x="657" 
d="M593 0h-63l-170 328h-196v-328h-54v712h271c116 0 204 -67 204 -191c0 -107 -64 -175 -164 -192zM531 520c0 99 -65 144 -157 144h-210v-288h210c92 0 157 45 157 144zM445 927l-106 -147h-58l97 147h67z" />
    <glyph glyph-name="racute" unicode="&#x155;" horiz-adv-x="409" 
d="M368 405c-29 29 -51 38 -91 38c-83 0 -129 -69 -129 -146v-297h-51v482h51v-64c28 45 84 70 141 70c47 0 81 -11 116 -46zM322 737l-106 -147h-58l97 147h67z" />
    <glyph glyph-name="Rcommaaccent" unicode="&#x156;" horiz-adv-x="657" 
d="M593 0h-63l-170 328h-196v-328h-54v712h271c116 0 204 -67 204 -191c0 -107 -64 -175 -164 -192zM531 520c0 99 -65 144 -157 144h-210v-288h210c92 0 157 45 157 144zM385 -70l-64 -150h-63l72 150h55z" />
    <glyph glyph-name="rcommaaccent" unicode="&#x157;" horiz-adv-x="409" 
d="M368 405c-29 29 -51 38 -91 38c-83 0 -129 -69 -129 -146v-297h-51v482h51v-64c28 45 84 70 141 70c47 0 81 -11 116 -46zM151 -70l-64 -150h-63l72 150h55z" />
    <glyph glyph-name="Rcaron" unicode="&#x158;" horiz-adv-x="657" 
d="M593 0h-63l-170 328h-196v-328h-54v712h271c116 0 204 -67 204 -191c0 -107 -64 -175 -164 -192zM531 520c0 99 -65 144 -157 144h-210v-288h210c92 0 157 45 157 144zM478 927l-123 -147h-54l-123 147h57l93 -109l93 109h57z" />
    <glyph glyph-name="rcaron" unicode="&#x159;" horiz-adv-x="409" 
d="M368 405c-29 29 -51 38 -91 38c-83 0 -129 -69 -129 -146v-297h-51v482h51v-64c28 45 84 70 141 70c47 0 81 -11 116 -46zM355 737l-123 -147h-54l-123 147h57l93 -109l93 109h57z" />
    <glyph glyph-name="Sacute" unicode="&#x15a;" horiz-adv-x="587" 
d="M528 191c0 -120 -91 -197 -240 -197c-105 0 -172 29 -237 94l38 38c64 -64 117 -84 202 -84c113 0 183 54 183 147c0 43 -12 77 -39 100c-25 22 -46 29 -103 38l-83 13c-54 8 -96 24 -127 51c-37 31 -56 75 -56 132c0 119 84 195 221 195c88 0 144 -24 205 -77l-35 -35
c-42 40 -89 66 -173 66c-104 0 -165 -56 -165 -147c0 -41 11 -73 36 -94s62 -35 102 -41l83 -13c66 -10 94 -21 127 -49c38 -33 61 -79 61 -137zM410 927l-106 -147h-58l97 147h67z" />
    <glyph glyph-name="sacute" unicode="&#x15b;" horiz-adv-x="494" 
d="M438 137c0 -88 -74 -143 -193 -143c-84 0 -146 22 -195 69l35 35c37 -39 90 -59 158 -59c95 0 145 33 145 98c0 51 -28 75 -92 81l-80 7c-97 8 -145 50 -145 126c0 84 68 137 173 137c67 0 126 -19 169 -51l-34 -34c-37 27 -82 41 -135 41c-80 0 -123 -33 -123 -93
c0 -51 30 -74 98 -81l78 -7c80 -8 141 -32 141 -126zM364 737l-106 -147h-58l97 147h67z" />
    <glyph glyph-name="Scircumflex" unicode="&#x15c;" horiz-adv-x="587" 
d="M528 191c0 -120 -91 -197 -240 -197c-105 0 -172 29 -237 94l38 38c64 -64 117 -84 202 -84c113 0 183 54 183 147c0 43 -12 77 -39 100c-25 22 -46 29 -103 38l-83 13c-54 8 -96 24 -127 51c-37 31 -56 75 -56 132c0 119 84 195 221 195c88 0 144 -24 205 -77l-35 -35
c-42 40 -89 66 -173 66c-104 0 -165 -56 -165 -147c0 -41 11 -73 36 -94s62 -35 102 -41l83 -13c66 -10 94 -21 127 -49c38 -33 61 -79 61 -137zM441 780h-57l-93 109l-93 -109h-57l123 147h54z" />
    <glyph glyph-name="scircumflex" unicode="&#x15d;" horiz-adv-x="494" 
d="M438 137c0 -88 -74 -143 -193 -143c-84 0 -146 22 -195 69l35 35c37 -39 90 -59 158 -59c95 0 145 33 145 98c0 51 -28 75 -92 81l-80 7c-97 8 -145 50 -145 126c0 84 68 137 173 137c67 0 126 -19 169 -51l-34 -34c-37 27 -82 41 -135 41c-80 0 -123 -33 -123 -93
c0 -51 30 -74 98 -81l78 -7c80 -8 141 -32 141 -126zM400 590h-57l-93 109l-93 -109h-57l123 147h54z" />
    <glyph glyph-name="Scedilla" unicode="&#x15e;" horiz-adv-x="587" 
d="M528 191c0 -120 -91 -197 -240 -197c-105 0 -172 29 -237 94l38 38c64 -64 117 -84 202 -84c113 0 183 54 183 147c0 43 -12 77 -39 100c-25 22 -46 29 -103 38l-83 13c-54 8 -96 24 -127 51c-37 31 -56 75 -56 132c0 119 84 195 221 195c88 0 144 -24 205 -77l-35 -35
c-42 40 -89 66 -173 66c-104 0 -165 -56 -165 -147c0 -41 11 -73 36 -94s62 -35 102 -41l83 -13c66 -10 94 -21 127 -49c38 -33 61 -79 61 -137zM320 -70l-64 -150h-63l72 150h55z" />
    <glyph glyph-name="scedilla" unicode="&#x15f;" horiz-adv-x="494" 
d="M438 137c0 -88 -74 -143 -193 -143c-84 0 -146 22 -195 69l35 35c37 -39 90 -59 158 -59c95 0 145 33 145 98c0 51 -28 75 -92 81l-80 7c-97 8 -145 50 -145 126c0 84 68 137 173 137c67 0 126 -19 169 -51l-34 -34c-37 27 -82 41 -135 41c-80 0 -123 -33 -123 -93
c0 -51 30 -74 98 -81l78 -7c80 -8 141 -32 141 -126zM277 -70l-64 -150h-63l72 150h55z" />
    <glyph glyph-name="Scaron" unicode="&#x160;" horiz-adv-x="587" 
d="M528 191c0 -120 -91 -197 -240 -197c-105 0 -172 29 -237 94l38 38c64 -64 117 -84 202 -84c113 0 183 54 183 147c0 43 -12 77 -39 100c-25 22 -46 29 -103 38l-83 13c-54 8 -96 24 -127 51c-37 31 -56 75 -56 132c0 119 84 195 221 195c88 0 144 -24 205 -77l-35 -35
c-42 40 -89 66 -173 66c-104 0 -165 -56 -165 -147c0 -41 11 -73 36 -94s62 -35 102 -41l83 -13c66 -10 94 -21 127 -49c38 -33 61 -79 61 -137zM437 927l-123 -147h-54l-123 147h57l93 -109l93 109h57z" />
    <glyph glyph-name="scaron" unicode="&#x161;" horiz-adv-x="494" 
d="M438 137c0 -88 -74 -143 -193 -143c-84 0 -146 22 -195 69l35 35c37 -39 90 -59 158 -59c95 0 145 33 145 98c0 51 -28 75 -92 81l-80 7c-97 8 -145 50 -145 126c0 84 68 137 173 137c67 0 126 -19 169 -51l-34 -34c-37 27 -82 41 -135 41c-80 0 -123 -33 -123 -93
c0 -51 30 -74 98 -81l78 -7c80 -8 141 -32 141 -126zM394 737l-123 -147h-54l-123 147h57l93 -109l93 109h57z" />
    <glyph glyph-name="Tcommaaccent" unicode="&#x162;" horiz-adv-x="539" 
d="M509 664h-213v-664h-54v664h-212v48h479v-48zM297 -70l-64 -150h-63l72 150h55z" />
    <glyph glyph-name="tcommaaccent" unicode="&#x163;" horiz-adv-x="325" 
d="M269 0h-44c-76 0 -116 53 -116 126v318h-66v38h66v154h51v-154h109v-38h-109v-319c0 -51 23 -80 74 -80h35v-45zM221 -70l-64 -150h-63l72 150h55z" />
    <glyph glyph-name="Tcaron" unicode="&#x164;" horiz-adv-x="539" 
d="M509 664h-213v-664h-54v664h-212v48h479v-48zM419 927l-123 -147h-54l-123 147h57l93 -109l93 109h57z" />
    <glyph glyph-name="tcaron" unicode="&#x165;" horiz-adv-x="325" 
d="M269 0h-44c-76 0 -116 53 -116 126v318h-66v38h66v154h51v-154h109v-38h-109v-319c0 -51 23 -80 74 -80h35v-45zM318 712l-48 -148h-47l40 148h55z" />
    <glyph glyph-name="Tbar" unicode="&#x166;" horiz-adv-x="539" 
d="M509 664h-213v-284h129v-42h-129v-338h-54v338h-130v42h130v284h-212v48h479v-48z" />
    <glyph glyph-name="tbar" unicode="&#x167;" horiz-adv-x="325" 
d="M269 0h-44c-76 0 -116 53 -116 126v119h-66v38h66v161h-66v38h66v154h51v-154h109v-38h-109v-161h109v-38h-109v-120c0 -51 23 -80 74 -80h35v-45z" />
    <glyph glyph-name="Utilde" unicode="&#x168;" horiz-adv-x="688" 
d="M588 231c0 -139 -101 -237 -244 -237s-244 98 -244 237v481h54v-474c0 -118 75 -196 190 -196s190 78 190 196v474h54v-481zM496 843c-46 -46 -71 -48 -89 -48c-23 0 -38 6 -69 24c-19 11 -36 21 -56 21c-16 0 -28 -2 -59 -33l-30 29c46 46 70 48 89 48
c29 0 45 -9 69 -24c21 -13 36 -21 56 -21c15 0 28 2 59 33z" />
    <glyph glyph-name="utilde" unicode="&#x169;" horiz-adv-x="559" 
d="M462 0h-51v57c-36 -42 -83 -63 -142 -63c-53 0 -96 15 -128 46c-33 32 -50 77 -50 134v308h51v-299c0 -93 46 -144 133 -144s136 52 136 144v299h51v-482zM428 653c-46 -46 -71 -48 -89 -48c-23 0 -38 6 -69 24c-19 11 -36 21 -56 21c-16 0 -28 -2 -59 -33l-30 29
c46 46 70 48 89 48c29 0 45 -9 69 -24c21 -13 36 -21 56 -21c15 0 28 2 59 33z" />
    <glyph glyph-name="Umacron" unicode="&#x16a;" horiz-adv-x="688" 
d="M588 231c0 -139 -101 -237 -244 -237s-244 98 -244 237v481h54v-474c0 -118 75 -196 190 -196s190 78 190 196v474h54v-481zM492 800h-296v46h296v-46z" />
    <glyph glyph-name="umacron" unicode="&#x16b;" horiz-adv-x="559" 
d="M462 0h-51v57c-36 -42 -83 -63 -142 -63c-53 0 -96 15 -128 46c-33 32 -50 77 -50 134v308h51v-299c0 -93 46 -144 133 -144s136 52 136 144v299h51v-482zM427 610h-296v46h296v-46z" />
    <glyph glyph-name="Ubreve" unicode="&#x16c;" horiz-adv-x="688" 
d="M588 231c0 -139 -101 -237 -244 -237s-244 98 -244 237v481h54v-474c0 -118 75 -196 190 -196s190 78 190 196v474h54v-481zM509 927c-9 -85 -57 -135 -165 -135s-156 50 -165 135h45c8 -56 51 -90 120 -90s112 34 120 90h45z" />
    <glyph glyph-name="ubreve" unicode="&#x16d;" horiz-adv-x="559" 
d="M462 0h-51v57c-36 -42 -83 -63 -142 -63c-53 0 -96 15 -128 46c-33 32 -50 77 -50 134v308h51v-299c0 -93 46 -144 133 -144s136 52 136 144v299h51v-482zM440 722c-9 -85 -57 -135 -165 -135s-156 50 -165 135h45c8 -56 51 -90 120 -90s112 34 120 90h45z" />
    <glyph glyph-name="Uring" unicode="&#x16e;" horiz-adv-x="688" 
d="M588 231c0 -139 -101 -237 -244 -237s-244 98 -244 237v481h54v-474c0 -118 75 -196 190 -196s190 78 190 196v474h54v-481zM458 867c0 -63 -51 -115 -114 -115s-114 52 -114 115s51 114 114 114s114 -51 114 -114zM417 867c0 40 -33 72 -73 72s-73 -32 -73 -72
s33 -73 73 -73s73 33 73 73z" />
    <glyph glyph-name="uring" unicode="&#x16f;" horiz-adv-x="559" 
d="M462 0h-51v57c-36 -42 -83 -63 -142 -63c-53 0 -96 15 -128 46c-33 32 -50 77 -50 134v308h51v-299c0 -93 46 -144 133 -144s136 52 136 144v299h51v-482zM393 677c0 -63 -51 -115 -114 -115s-114 52 -114 115s51 114 114 114s114 -51 114 -114zM352 677
c0 40 -33 72 -73 72s-73 -32 -73 -72s33 -73 73 -73s73 33 73 73z" />
    <glyph glyph-name="Uhungarumlaut" unicode="&#x170;" horiz-adv-x="688" 
d="M588 231c0 -139 -101 -237 -244 -237s-244 98 -244 237v481h54v-474c0 -118 75 -196 190 -196s190 78 190 196v474h54v-481zM388 927l-106 -147h-58l97 147h67zM535 927l-107 -147h-57l97 147h67z" />
    <glyph glyph-name="uhungarumlaut" unicode="&#x171;" horiz-adv-x="559" 
d="M462 0h-51v57c-36 -42 -83 -63 -142 -63c-53 0 -96 15 -128 46c-33 32 -50 77 -50 134v308h51v-299c0 -93 46 -144 133 -144s136 52 136 144v299h51v-482zM323 737l-106 -147h-58l97 147h67zM470 737l-107 -147h-57l97 147h67z" />
    <glyph glyph-name="Uogonek" unicode="&#x172;" horiz-adv-x="688" 
d="M588 231c0 -139 -101 -237 -244 -237s-244 98 -244 237v481h54v-474c0 -118 75 -196 190 -196s190 78 190 196v474h54v-481zM484 -70l-64 -150h-63l72 150h55z" />
    <glyph glyph-name="uogonek" unicode="&#x173;" horiz-adv-x="559" 
d="M462 0h-51v57c-36 -42 -83 -63 -142 -63c-53 0 -96 15 -128 46c-33 32 -50 77 -50 134v308h51v-299c0 -93 46 -144 133 -144s136 52 136 144v299h51v-482zM466 -70l-64 -150h-63l72 150h55z" />
    <glyph glyph-name="Wcircumflex" unicode="&#x174;" horiz-adv-x="842" 
d="M822 712l-178 -712h-55l-168 620l-168 -620h-55l-178 712h57l150 -619l166 619h56l166 -619l150 619h57zM571 780h-57l-93 109l-93 -109h-57l123 147h54z" />
    <glyph glyph-name="wcircumflex" unicode="&#x175;" horiz-adv-x="712" 
d="M698 482l-154 -482h-52l-136 402l-136 -402h-52l-154 482h56l123 -422l138 422h50l138 -422l123 422h56zM506 590h-57l-93 109l-93 -109h-57l123 147h54z" />
    <glyph glyph-name="Ycircumflex" unicode="&#x176;" horiz-adv-x="494" 
d="M484 712l-210 -417v-295h-54v295l-210 417h58l181 -360l177 360h58zM399 780h-57l-93 109l-93 -109h-57l123 147h54z" />
    <glyph glyph-name="ycircumflex" unicode="&#x177;" horiz-adv-x="430" 
d="M416 482l-224 -613c-9 -26 -20 -45 -33 -56c-24 -23 -59 -31 -91 -31h-24v45h19c55 0 71 18 88 66l39 107l-176 482h56l145 -422l145 422h56zM365 590h-57l-93 109l-93 -109h-57l123 147h54z" />
    <glyph glyph-name="Ydieresis" unicode="&#x178;" horiz-adv-x="494" 
d="M484 712l-210 -417v-295h-54v295l-210 417h58l181 -360l177 360h58zM172 790h-58v77h58v-77zM380 790h-58v77h58v-77z" />
    <glyph glyph-name="Zacute" unicode="&#x179;" horiz-adv-x="559" 
d="M496 0h-433v57l375 607h-360v48h418v-48l-378 -616h378v-48zM396 927l-106 -147h-58l97 147h67z" />
    <glyph glyph-name="zacute" unicode="&#x17a;" horiz-adv-x="452" 
d="M398 0h-344v48l290 389h-274v45h328v-48l-291 -389h291v-45zM343 737l-106 -147h-58l97 147h67z" />
    <glyph glyph-name="Zdotaccent" unicode="&#x17b;" horiz-adv-x="559" 
d="M496 0h-433v57l375 607h-360v48h418v-48l-378 -616h378v-48zM310 800h-62v63h62v-63z" />
    <glyph glyph-name="zdotaccent" unicode="&#x17c;" horiz-adv-x="452" 
d="M398 0h-344v48l290 389h-274v45h328v-48l-291 -389h291v-45zM257 610h-62v63h62v-63z" />
    <glyph glyph-name="Zcaron" unicode="&#x17d;" horiz-adv-x="559" 
d="M496 0h-433v57l375 607h-360v48h418v-48l-378 -616h378v-48zM437 927l-123 -147h-54l-123 147h57l93 -109l93 109h57z" />
    <glyph glyph-name="zcaron" unicode="&#x17e;" horiz-adv-x="452" 
d="M398 0h-344v48l290 389h-274v45h328v-48l-291 -389h291v-45zM384 737l-123 -147h-54l-123 147h57l93 -109l93 109h57z" />
    <glyph glyph-name="longs" unicode="&#x17f;" horiz-adv-x="245" 
d="M257 667h-35c-51 0 -74 -29 -74 -80v-587h-51v586c0 73 40 126 116 126h44v-45z" />
    <glyph glyph-name="uni018F" unicode="&#x18f;" horiz-adv-x="651" 
d="M569 356c0 -173 -5 -228 -71 -294c-42 -42 -102 -68 -173 -68c-72 0 -141 31 -187 82c-42 47 -58 97 -58 172v116h435c0 144 -5 201 -55 251c-37 37 -83 55 -135 55c-96 0 -168 -61 -189 -160h-54c21 125 119 208 243 208c71 0 131 -26 173 -68c66 -66 71 -121 71 -294z
M515 316h-381v-64c0 -61 12 -102 43 -141c37 -45 92 -69 148 -69c52 0 98 18 135 55c46 46 54 98 55 219z" />
    <glyph glyph-name="florin" unicode="&#x192;" horiz-adv-x="394" 
d="M364 667h-43c-51 0 -79 -29 -88 -80l-36 -207h109v-38h-116l-101 -572h-51l101 572h-109v38h116l36 206c13 73 62 126 138 126h44v-45z" />
    <glyph glyph-name="uni01B5" unicode="&#x1b5;" horiz-adv-x="559" 
d="M496 0h-433v57l173 281h-113v42h139l176 284h-360v48h418v-48l-174 -284h114v-42h-140l-178 -290h378v-48z" />
    <glyph glyph-name="uni01B6" unicode="&#x1b6;" horiz-adv-x="452" 
d="M398 0h-344v48l130 175h-84v36h111l133 178h-274v45h328v-48l-131 -175h84v-36h-111l-133 -178h291v-45z" />
    <glyph glyph-name="uni01C4" unicode="&#x1c4;" horiz-adv-x="1237" 
d="M596 356c0 -106 -1 -223 -69 -291c-43 -43 -103 -65 -178 -65h-239v712h239c75 0 135 -22 178 -65c68 -68 69 -185 69 -291zM542 356c0 94 0 197 -53 253c-41 43 -96 55 -153 55h-172v-616h172c57 0 112 12 153 55c53 56 53 159 53 253zM1174 0h-433v57l375 607h-360v48
h418v-48l-378 -616h378v-48zM1115 927l-123 -147h-54l-123 147h57l93 -109l93 109h57z" />
    <glyph glyph-name="uni01C5" unicode="&#x1c5;" horiz-adv-x="1130" 
d="M596 356c0 -106 -1 -223 -69 -291c-43 -43 -103 -65 -178 -65h-239v712h239c75 0 135 -22 178 -65c68 -68 69 -185 69 -291zM542 356c0 94 0 197 -53 253c-41 43 -96 55 -153 55h-172v-616h172c57 0 112 12 153 55c53 56 53 159 53 253zM1076 0h-344v48l290 389h-274v45
h328v-48l-291 -389h291v-45zM1062 737l-123 -147h-54l-123 147h57l93 -109l93 109h57z" />
    <glyph glyph-name="uni01C6" unicode="&#x1c6;" horiz-adv-x="992" 
d="M443 0h-51v62c-43 -56 -88 -68 -143 -68c-51 0 -93 17 -118 42c-49 49 -62 129 -62 205s13 156 62 205c25 25 67 42 118 42c55 0 100 -12 143 -68v292h51v-712zM392 241c0 100 -18 202 -136 202s-136 -102 -136 -202s18 -202 136 -202s136 102 136 202zM938 0h-344v48
l290 389h-274v45h328v-48l-291 -389h291v-45zM924 737l-123 -147h-54l-123 147h57l93 -109l93 109h57z" />
    <glyph glyph-name="uni01C7" unicode="&#x1c7;" horiz-adv-x="1070" 
d="M542 0h-432v712h54v-664h378v-48zM970 210c0 -130 -83 -216 -212 -216c-63 0 -115 20 -156 61l37 37c27 -27 56 -50 119 -50c103 0 158 64 158 179v491h54v-502z" />
    <glyph glyph-name="uni01C8" unicode="&#x1c8;" horiz-adv-x="817" 
d="M542 0h-432v712h54v-664h378v-48zM720 -105c0 -76 -37 -125 -116 -125h-44v45h35c57 0 74 26 74 81v586h51v-587zM726 649h-63v63h63v-63z" />
    <glyph glyph-name="uni01C9" unicode="&#x1c9;" horiz-adv-x="532" 
d="M255 0h-44c-79 0 -116 49 -116 125v587h51v-586c0 -55 17 -81 74 -81h35v-45zM435 -105c0 -76 -37 -125 -116 -125h-44v45h35c57 0 74 26 74 81v586h51v-587zM441 649h-63v63h63v-63z" />
    <glyph glyph-name="uni01CA" unicode="&#x1ca;" horiz-adv-x="1237" 
d="M629 0h-54l-411 619v-619h-54v712h54l411 -617v617h54v-712zM1137 210c0 -130 -83 -216 -212 -216c-63 0 -115 20 -156 61l37 37c27 -27 56 -50 119 -50c103 0 158 64 158 179v491h54v-502z" />
    <glyph glyph-name="uni01CB" unicode="&#x1cb;" horiz-adv-x="984" 
d="M629 0h-54l-411 619v-619h-54v712h54l411 -617v617h54v-712zM887 -105c0 -76 -37 -125 -116 -125h-44v45h35c57 0 74 26 74 81v586h51v-587zM893 649h-63v63h63v-63z" />
    <glyph glyph-name="uni01CC" unicode="&#x1cc;" horiz-adv-x="804" 
d="M468 0h-51v299c0 93 -46 144 -133 144s-136 -52 -136 -144v-299h-51v482h51v-57c36 42 83 63 142 63c53 0 96 -15 128 -46c33 -32 50 -77 50 -134v-308zM707 -105c0 -76 -37 -125 -116 -125h-44v45h35c57 0 74 26 74 81v586h51v-587zM713 649h-63v63h63v-63z" />
    <glyph glyph-name="uni01F1" unicode="&#x1f1;" horiz-adv-x="1237" 
d="M596 356c0 -106 -1 -223 -69 -291c-43 -43 -103 -65 -178 -65h-239v712h239c75 0 135 -22 178 -65c68 -68 69 -185 69 -291zM542 356c0 94 0 197 -53 253c-41 43 -96 55 -153 55h-172v-616h172c57 0 112 12 153 55c53 56 53 159 53 253zM1174 0h-433v57l375 607h-360v48
h418v-48l-378 -616h378v-48z" />
    <glyph glyph-name="uni01F2" unicode="&#x1f2;" horiz-adv-x="1130" 
d="M596 356c0 -106 -1 -223 -69 -291c-43 -43 -103 -65 -178 -65h-239v712h239c75 0 135 -22 178 -65c68 -68 69 -185 69 -291zM542 356c0 94 0 197 -53 253c-41 43 -96 55 -153 55h-172v-616h172c57 0 112 12 153 55c53 56 53 159 53 253zM1076 0h-344v48l290 389h-274v45
h328v-48l-291 -389h291v-45z" />
    <glyph glyph-name="uni01F3" unicode="&#x1f3;" horiz-adv-x="992" 
d="M443 0h-51v62c-43 -56 -88 -68 -143 -68c-51 0 -93 17 -118 42c-49 49 -62 129 -62 205s13 156 62 205c25 25 67 42 118 42c55 0 100 -12 143 -68v292h51v-712zM392 241c0 100 -18 202 -136 202s-136 -102 -136 -202s18 -202 136 -202s136 102 136 202zM938 0h-344v48
l290 389h-274v45h328v-48l-291 -389h291v-45z" />
    <glyph glyph-name="Aringacute" unicode="&#x1fa;" horiz-adv-x="602" 
d="M587 0h-58l-62 173h-332l-62 -173h-58l262 712h48zM301 640l-149 -419h298zM415 861c0 -63 -51 -115 -114 -115s-114 52 -114 115s51 114 114 114s114 -51 114 -114zM374 861c0 40 -33 72 -73 72s-73 -32 -73 -72s33 -73 73 -73s73 33 73 73zM418 1132l-106 -147h-58
l97 147h67z" />
    <glyph glyph-name="aringacute" unicode="&#x1fb;" horiz-adv-x="524" 
d="M431 0h-51v48c-41 -41 -79 -54 -147 -54c-72 0 -111 12 -142 44c-23 23 -35 58 -35 94c0 88 63 139 168 139h156v54c0 77 -37 118 -136 118c-68 0 -102 -17 -133 -61l-37 32c41 57 91 74 170 74c128 0 187 -57 187 -158v-330zM380 168v62h-150c-82 0 -123 -32 -123 -97
c0 -64 38 -94 126 -94c44 0 85 4 120 37c18 17 27 48 27 92zM363 677c0 -63 -51 -115 -114 -115s-114 52 -114 115s51 114 114 114s114 -51 114 -114zM322 677c0 40 -33 72 -73 72s-73 -32 -73 -72s33 -73 73 -73s73 33 73 73zM366 948l-106 -147h-58l97 147h67z" />
    <glyph glyph-name="AEacute" unicode="&#x1fc;" horiz-adv-x="901" 
d="M845 0h-431v173h-255l-90 -173h-59l377 712h458v-48h-378v-284h322v-48h-322v-284h378v-48zM414 221v443l-232 -443h232zM571 927l-106 -147h-58l97 147h67z" />
    <glyph glyph-name="aeacute" unicode="&#x1fd;" horiz-adv-x="834" 
d="M766 230h-335c0 -123 54 -190 157 -190c57 0 92 17 133 58l38 -30c-49 -49 -95 -74 -175 -74c-81 0 -139 30 -172 90c-40 -65 -90 -90 -179 -90c-72 0 -111 12 -142 44c-23 23 -35 58 -35 94c0 88 63 139 168 139h156v54c0 77 -37 118 -136 118c-68 0 -102 -17 -133 -61
l-37 32c41 57 91 74 170 74c91 0 148 -28 173 -85c33 56 87 85 156 85c121 0 193 -87 193 -235v-23zM380 230h-150c-82 0 -123 -32 -123 -97c0 -64 38 -94 126 -94c44 0 85 4 120 37c18 17 27 48 27 92v62zM715 271c-3 46 -4 62 -17 91c-21 51 -69 81 -125 81
s-105 -29 -125 -81c-12 -31 -14 -44 -17 -91h284zM544 737l-106 -147h-58l97 147h67z" />
    <glyph glyph-name="Oslashacute" unicode="&#x1fe;" horiz-adv-x="652" 
d="M570 356c0 -173 -5 -228 -71 -294c-42 -42 -102 -68 -173 -68c-50 0 -93 13 -130 35l-35 -73h-53l49 102c-71 69 -75 125 -75 298s5 228 71 294c42 42 102 68 173 68c49 0 94 -13 130 -35l35 73h53l-49 -102c71 -70 75 -125 75 -298zM434 637c-32 22 -68 33 -108 33
c-52 0 -98 -18 -135 -55c-51 -51 -55 -109 -55 -259c0 -140 3 -200 45 -248zM516 356c0 139 -4 199 -45 248l-253 -529c32 -22 67 -33 108 -33c52 0 98 18 135 55c51 51 55 109 55 259zM443 927l-106 -147h-58l97 147h67z" />
    <glyph glyph-name="oslashacute" unicode="&#x1ff;" horiz-adv-x="526" 
d="M457 241c0 -69 -9 -143 -60 -194c-35 -35 -79 -53 -134 -53c-39 0 -74 10 -105 29l-40 -67h-48l56 94c-48 51 -57 123 -57 191c0 69 9 143 60 194c35 35 80 53 134 53c40 0 75 -10 105 -30l40 68h48l-56 -94c48 -51 57 -123 57 -191zM344 418c-24 17 -51 25 -81 25
c-39 0 -73 -14 -100 -41c-40 -40 -43 -105 -43 -161c0 -51 1 -107 32 -148zM406 241c0 51 -1 107 -32 148l-192 -325c24 -17 51 -25 81 -25c39 0 73 14 100 41c40 40 43 105 43 161zM380 737l-106 -147h-58l97 147h67z" />
    <glyph glyph-name="Scommaaccent" unicode="&#x218;" horiz-adv-x="587" 
d="M528 191c0 -120 -91 -197 -240 -197c-105 0 -172 29 -237 94l38 38c64 -64 117 -84 202 -84c113 0 183 54 183 147c0 43 -12 77 -39 100c-25 22 -46 29 -103 38l-83 13c-54 8 -96 24 -127 51c-37 31 -56 75 -56 132c0 119 84 195 221 195c88 0 144 -24 205 -77l-35 -35
c-42 40 -89 66 -173 66c-104 0 -165 -56 -165 -147c0 -41 11 -73 36 -94s62 -35 102 -41l83 -13c66 -10 94 -21 127 -49c38 -33 61 -79 61 -137zM320 -70l-64 -150h-63l72 150h55z" />
    <glyph glyph-name="scommaaccent" unicode="&#x219;" horiz-adv-x="494" 
d="M438 137c0 -88 -74 -143 -193 -143c-84 0 -146 22 -195 69l35 35c37 -39 90 -59 158 -59c95 0 145 33 145 98c0 51 -28 75 -92 81l-80 7c-97 8 -145 50 -145 126c0 84 68 137 173 137c67 0 126 -19 169 -51l-34 -34c-37 27 -82 41 -135 41c-80 0 -123 -33 -123 -93
c0 -51 30 -74 98 -81l78 -7c80 -8 141 -32 141 -126zM277 -70l-64 -150h-63l72 150h55z" />
    <glyph glyph-name="uni021A" unicode="&#x21a;" horiz-adv-x="539" 
d="M509 664h-213v-664h-54v664h-212v48h479v-48zM297 -70l-64 -150h-63l72 150h55z" />
    <glyph glyph-name="uni021B" unicode="&#x21b;" horiz-adv-x="325" 
d="M269 0h-44c-76 0 -116 53 -116 126v318h-66v38h66v154h51v-154h109v-38h-109v-319c0 -51 23 -80 74 -80h35v-45zM221 -70l-64 -150h-63l72 150h55z" />
    <glyph glyph-name="uni0237" unicode="&#x237;" horiz-adv-x="245" 
d="M148 -105c0 -76 -37 -125 -116 -125h-44v45h35c57 0 74 26 74 81v586h51v-587z" />
    <glyph glyph-name="uni0259" unicode="&#x259;" horiz-adv-x="523" 
d="M68 252h335c0 123 -54 190 -157 190c-57 0 -92 -17 -133 -58l-38 30c49 49 94 74 174 74c133 0 205 -86 205 -247c0 -156 -72 -247 -193 -247s-193 87 -193 235v23zM119 211c3 -46 4 -62 17 -91c21 -51 69 -81 125 -81s102 31 125 81c13 29 14 45 17 91h-284z" />
    <glyph glyph-name="uni02BB" unicode="&#x2bb;" horiz-adv-x="260" 
d="M165 642h-70v70l70 70v-140z" />
    <glyph glyph-name="afii57929" unicode="&#x2bc;" horiz-adv-x="260" 
d="M165 642l-70 -70v140h70v-70z" />
    <glyph glyph-name="circumflex" unicode="&#x2c6;" horiz-adv-x="500" 
d="M400 590h-57l-93 109l-93 -109h-57l123 147h54z" />
    <glyph glyph-name="caron" unicode="&#x2c7;" horiz-adv-x="500" 
d="M400 737l-123 -147h-54l-123 147h57l93 -109l93 109h57z" />
    <glyph glyph-name="breve" unicode="&#x2d8;" horiz-adv-x="500" 
d="M415 722c-9 -85 -57 -135 -165 -135s-156 50 -165 135h45c8 -56 51 -90 120 -90s112 34 120 90h45z" />
    <glyph glyph-name="dotaccent" unicode="&#x2d9;" horiz-adv-x="500" 
d="M281 610h-62v63h62v-63z" />
    <glyph glyph-name="ring" unicode="&#x2da;" horiz-adv-x="500" 
d="M364 677c0 -63 -51 -115 -114 -115s-114 52 -114 115s51 114 114 114s114 -51 114 -114zM323 677c0 40 -33 72 -73 72s-73 -32 -73 -72s33 -73 73 -73s73 33 73 73z" />
    <glyph glyph-name="ogonek" unicode="&#x2db;" horiz-adv-x="500" 
d="M355 -70l-64 -150h-63l72 150h55z" />
    <glyph glyph-name="tilde" unicode="&#x2dc;" horiz-adv-x="500" 
d="M399 653c-46 -46 -71 -48 -89 -48c-25 0 -41 8 -69 24c-19 11 -36 21 -56 21c-16 0 -28 -2 -59 -33l-30 29c46 46 70 48 89 48c29 0 45 -9 69 -24c21 -13 36 -21 56 -21c15 0 28 2 59 33z" />
    <glyph glyph-name="hungarumlaut" unicode="&#x2dd;" horiz-adv-x="500" 
d="M294 737l-106 -147h-58l97 147h67zM441 737l-107 -147h-57l97 147h67z" />
    <glyph glyph-name="uni037E" unicode="&#x37e;" horiz-adv-x="292" 
d="M193 -68l-68 -68v204h68v-136zM197 312h-74v74h74v-74z" />
    <glyph glyph-name="tonos" unicode="&#x384;" horiz-adv-x="253" 
d="M159 615l-58 -33v130h58v-97z" />
    <glyph glyph-name="dieresistonos" unicode="&#x385;" horiz-adv-x="500" 
d="M383 600h-58v77h58v-77zM279 615l-58 -33v130h58v-97zM175 600h-58v77h58v-77z" />
    <glyph glyph-name="Alphatonos" unicode="&#x386;" horiz-adv-x="602" 
d="M587 0h-58l-62 173h-332l-62 -173h-58l262 712h48zM450 221l-149 419l-149 -419h298zM68 615l-58 -33v130h58v-97z" />
    <glyph glyph-name="anoteleia" unicode="&#x387;" horiz-adv-x="264" 
d="M169 227h-74v74h74v-74z" />
    <glyph glyph-name="Epsilontonos" unicode="&#x388;" horiz-adv-x="598" 
d="M542 0h-432v712h432v-48h-378v-281h322v-48h-322v-287h378v-48zM8 615l-58 -33v130h58v-97z" />
    <glyph glyph-name="Etatonos" unicode="&#x389;" horiz-adv-x="699" 
d="M589 0h-54v335h-371v-335h-54v712h54v-329h371v329h54v-712zM8 615l-58 -33v130h58v-97z" />
    <glyph glyph-name="Iotatonos" unicode="&#x38a;" horiz-adv-x="274" 
d="M164 0h-54v712h54v-712zM8 615l-58 -33v130h58v-97z" />
    <glyph glyph-name="Omicrontonos" unicode="&#x38c;" horiz-adv-x="652" 
d="M570 356c0 -173 -5 -228 -71 -294c-42 -42 -102 -68 -173 -68s-131 26 -173 68c-66 66 -71 121 -71 294s5 228 71 294c42 42 102 68 173 68s131 -26 173 -68c66 -66 71 -121 71 -294zM516 356c0 150 -4 208 -55 259c-37 37 -83 55 -135 55s-98 -18 -135 -55
c-51 -51 -55 -109 -55 -259s4 -208 55 -259c37 -37 83 -55 135 -55s98 18 135 55c51 51 55 109 55 259zM28 615l-58 -33v130h58v-97z" />
    <glyph glyph-name="Upsilontonos" unicode="&#x38e;" horiz-adv-x="494" 
d="M484 712l-210 -417v-295h-54v295l-210 417h58l181 -360l177 360h58zM-12 615l-58 -33v130h58v-97z" />
    <glyph glyph-name="Omegatonos" unicode="&#x38f;" horiz-adv-x="652" 
d="M570 356c0 -114 -1 -187 -29 -238c-14 -26 -32 -47 -62 -71h91v-47h-186v47c46 22 79 45 105 88c25 41 27 114 27 221c0 150 -4 208 -55 259c-37 37 -83 55 -135 55s-98 -18 -135 -55c-51 -51 -55 -109 -55 -259c0 -107 2 -180 27 -221c26 -43 59 -66 105 -88v-47h-186
v47h91c-30 24 -48 45 -62 71c-28 51 -29 124 -29 238c0 173 5 228 71 294c42 42 102 68 173 68s131 -26 173 -68c66 -66 71 -121 71 -294zM28 615l-58 -33v130h58v-97z" />
    <glyph glyph-name="iotadieresistonos" unicode="&#x390;" horiz-adv-x="287" 
d="M255 0h-44c-79 0 -116 49 -116 125v357h51v-356c0 -55 17 -81 74 -81h35v-45zM253 600h-58v77h58v-77zM149 615l-58 -33v130h58v-97zM45 600h-58v77h58v-77z" />
    <glyph glyph-name="Alpha" unicode="&#x391;" horiz-adv-x="602" 
d="M587 0h-58l-62 173h-332l-62 -173h-58l262 712h48zM450 221l-149 419l-149 -419h298z" />
    <glyph glyph-name="Beta" unicode="&#x392;" horiz-adv-x="671" 
d="M589 194c0 -127 -84 -194 -209 -194h-270v712h262c118 0 206 -69 206 -186c0 -75 -42 -137 -111 -160c77 -27 122 -89 122 -172zM535 194c0 92 -64 146 -161 146h-210v-292h210c97 0 161 54 161 146zM524 526c0 98 -72 138 -158 138h-202v-276h202c86 0 158 40 158 138z
" />
    <glyph glyph-name="Gamma" unicode="&#x393;" horiz-adv-x="554" 
d="M530 664h-358v-664h-54v712h412v-48z" />
    <glyph glyph-name="uni0394" unicode="&#x394;" horiz-adv-x="591" 
d="M581 0h-571l262 712h47zM511 48l-216 592l-215 -592h431z" />
    <glyph glyph-name="Epsilon" unicode="&#x395;" horiz-adv-x="598" 
d="M542 0h-432v712h432v-48h-378v-281h322v-48h-322v-287h378v-48z" />
    <glyph glyph-name="Zeta" unicode="&#x396;" horiz-adv-x="559" 
d="M496 0h-433v57l375 607h-360v48h418v-48l-378 -616h378v-48z" />
    <glyph glyph-name="Eta" unicode="&#x397;" horiz-adv-x="699" 
d="M589 0h-54v335h-371v-335h-54v712h54v-329h371v329h54v-712z" />
    <glyph glyph-name="Theta" unicode="&#x398;" horiz-adv-x="652" 
d="M570 356c0 -173 -5 -228 -71 -294c-42 -42 -102 -68 -173 -68s-131 26 -173 68c-66 66 -71 121 -71 294s5 228 71 294c42 42 102 68 173 68s131 -26 173 -68c66 -66 71 -121 71 -294zM516 335h-380c0 -134 6 -190 55 -238c37 -37 83 -55 135 -55s98 18 135 55
c48 48 54 104 55 238zM516 383c-1 130 -7 184 -55 232c-37 37 -83 55 -135 55s-98 -18 -135 -55c-48 -48 -55 -102 -55 -232h380z" />
    <glyph glyph-name="Iota" unicode="&#x399;" horiz-adv-x="274" 
d="M164 0h-54v712h54v-712z" />
    <glyph glyph-name="Kappa" unicode="&#x39a;" horiz-adv-x="645" 
d="M627 0h-64l-229 399l-170 -206v-193h-54v712h54v-445l361 445h65l-220 -272z" />
    <glyph glyph-name="Lambda" unicode="&#x39b;" horiz-adv-x="570" 
d="M545 0h-57l-203 640l-203 -640h-57l234 712h52z" />
    <glyph glyph-name="Mu" unicode="&#x39c;" horiz-adv-x="818" 
d="M708 0h-54v587l-216 -487h-54l-220 487v-587h-54v712h54l248 -549l242 549h54v-712z" />
    <glyph glyph-name="Nu" unicode="&#x39d;" horiz-adv-x="739" 
d="M629 0h-54l-411 619v-619h-54v712h54l411 -617v617h54v-712z" />
    <glyph glyph-name="Xi" unicode="&#x39e;" horiz-adv-x="564" 
d="M508 0h-452v48h199v287h-143v48h143v281h-199v48h452v-48h-199v-281h143v-48h-143v-287h199v-48z" />
    <glyph glyph-name="Omicron" unicode="&#x39f;" horiz-adv-x="652" 
d="M570 356c0 -173 -5 -228 -71 -294c-42 -42 -102 -68 -173 -68s-131 26 -173 68c-66 66 -71 121 -71 294s5 228 71 294c42 42 102 68 173 68s131 -26 173 -68c66 -66 71 -121 71 -294zM516 356c0 150 -4 208 -55 259c-37 37 -83 55 -135 55s-98 -18 -135 -55
c-51 -51 -55 -109 -55 -259s4 -208 55 -259c37 -37 83 -55 135 -55s98 18 135 55c51 51 55 109 55 259z" />
    <glyph glyph-name="Pi" unicode="&#x3a0;" horiz-adv-x="680" 
d="M569 0h-54v664h-351v-664h-54v712h459v-712z" />
    <glyph glyph-name="Rho" unicode="&#x3a1;" horiz-adv-x="631" 
d="M586 507c0 -130 -92 -205 -215 -205h-207v-302h-54v712h261c123 0 215 -75 215 -205zM532 507c0 107 -68 157 -167 157h-201v-314h201c99 0 167 50 167 157z" />
    <glyph glyph-name="Sigma" unicode="&#x3a3;" horiz-adv-x="552" 
d="M496 0h-433v57l199 324l-184 283v48h418v-48h-359l185 -282l-204 -334h378v-48z" />
    <glyph glyph-name="Tau" unicode="&#x3a4;" horiz-adv-x="539" 
d="M509 664h-213v-664h-54v664h-212v48h479v-48z" />
    <glyph glyph-name="Upsilon" unicode="&#x3a5;" horiz-adv-x="494" 
d="M484 712l-210 -417v-295h-54v295l-210 417h58l181 -360l177 360h58z" />
    <glyph glyph-name="Phi" unicode="&#x3a6;" horiz-adv-x="715" 
d="M649 361c0 -78 -3 -161 -62 -220c-58 -58 -122 -77 -202 -77v-64h-54v64c-80 0 -144 19 -202 77c-59 59 -62 142 -62 220s3 161 62 220c58 58 122 77 202 77v54h54v-54c80 0 144 -19 202 -77c59 -59 62 -142 62 -220zM331 112v498c-63 0 -113 -13 -159 -59
c-49 -49 -51 -126 -51 -190s2 -141 51 -190c46 -46 96 -59 159 -59zM595 361c0 64 -2 141 -51 190c-46 46 -96 59 -159 59v-498c63 0 113 13 159 59c49 49 51 126 51 190z" />
    <glyph glyph-name="Chi" unicode="&#x3a7;" horiz-adv-x="532" 
d="M514 0h-63l-186 317l-186 -317h-61l218 365l-204 347h63l170 -299l171 299h62l-204 -347z" />
    <glyph glyph-name="Psi" unicode="&#x3a8;" horiz-adv-x="654" 
d="M600 376c0 -73 -22 -115 -66 -159c-47 -47 -110 -73 -178 -73h-2v-144h-54v144h-2c-68 0 -131 26 -178 73c-44 44 -66 86 -66 159v336h54v-336c0 -62 22 -96 55 -129c36 -36 84 -55 135 -55h2v520h54v-520h2c51 0 99 19 135 55c33 33 55 67 55 129v336h54v-336z" />
    <glyph glyph-name="uni03A9" unicode="&#x3a9;" horiz-adv-x="652" 
d="M570 356c0 -114 -1 -187 -29 -238c-14 -26 -32 -47 -62 -71h91v-47h-186v47c46 22 79 45 105 88c25 41 27 114 27 221c0 150 -4 208 -55 259c-37 37 -83 55 -135 55s-98 -18 -135 -55c-51 -51 -55 -109 -55 -259c0 -107 2 -180 27 -221c26 -43 59 -66 105 -88v-47h-186
v47h91c-30 24 -48 45 -62 71c-28 51 -29 124 -29 238c0 173 5 228 71 294c42 42 102 68 173 68s131 -26 173 -68c66 -66 71 -121 71 -294z" />
    <glyph glyph-name="Iotadieresis" unicode="&#x3aa;" horiz-adv-x="274" 
d="M164 0h-54v712h54v-712zM62 790h-58v77h58v-77zM270 790h-58v77h58v-77z" />
    <glyph glyph-name="Upsilondieresis" unicode="&#x3ab;" horiz-adv-x="494" 
d="M484 712l-210 -417v-295h-54v295l-210 417h58l181 -360l177 360h58zM172 790h-58v77h58v-77zM380 790h-58v77h58v-77z" />
    <glyph glyph-name="alphatonos" unicode="&#x3ac;" horiz-adv-x="540" 
d="M443 0h-51v62c-43 -56 -88 -68 -143 -68c-51 0 -93 17 -118 42c-49 49 -62 129 -62 205s13 156 62 205c25 25 67 42 118 42c55 0 100 -12 143 -68v62h51v-482zM392 241c0 100 -18 202 -136 202s-136 -102 -136 -202s18 -202 136 -202s136 102 136 202zM291 615l-58 -33
v130h58v-97z" />
    <glyph glyph-name="epsilontonos" unicode="&#x3ad;" horiz-adv-x="492" 
d="M437 68c-62 -62 -125 -74 -197 -74c-96 0 -172 47 -172 136c0 60 26 92 82 115c-48 19 -72 56 -72 108c0 84 79 135 168 135c82 0 143 -22 190 -74l-34 -33c-34 36 -87 63 -155 63c-52 0 -114 -34 -114 -92c0 -54 31 -84 96 -84h82v-44h-82c-74 0 -106 -36 -106 -94
c0 -59 56 -92 115 -92c40 0 106 2 164 61zM291 615l-58 -33v130h58v-97z" />
    <glyph glyph-name="etatonos" unicode="&#x3ae;" horiz-adv-x="559" 
d="M311 615l-58 -33v130h58v-97zM468 0h-51v299c0 93 -46 144 -133 144s-136 -52 -136 -144v-299h-51v482h51v-57c36 42 83 63 142 63c53 0 96 -15 128 -46c33 -32 50 -77 50 -134v-308z" />
    <glyph glyph-name="iotatonos" unicode="&#x3af;" horiz-adv-x="287" 
d="M255 0h-44c-79 0 -116 49 -116 125v357h51v-356c0 -55 17 -81 74 -81h35v-45zM153 615l-58 -33v130h58v-97z" />
    <glyph glyph-name="upsilondieresistonos" unicode="&#x3b0;" horiz-adv-x="511" 
d="M255 -6c-56 0 -103 15 -135 46c-33 32 -50 77 -50 134v308h51v-295c0 -99 47 -148 134 -148s135 50 135 148v295h51v-308c0 -57 -18 -102 -51 -134c-32 -31 -79 -46 -135 -46zM385 600h-58v77h58v-77zM281 615l-58 -33v130h58v-97zM177 600h-58v77h58v-77z" />
    <glyph glyph-name="alpha" unicode="&#x3b1;" horiz-adv-x="540" 
d="M443 0h-51v62c-43 -56 -88 -68 -143 -68c-51 0 -93 17 -118 42c-49 49 -62 129 -62 205s13 156 62 205c25 25 67 42 118 42c55 0 100 -12 143 -68v62h51v-482zM392 241c0 100 -18 202 -136 202s-136 -102 -136 -202s18 -202 136 -202s136 102 136 202z" />
    <glyph glyph-name="beta" unicode="&#x3b2;" horiz-adv-x="540" 
d="M491 197c0 -109 -78 -203 -177 -203c-61 0 -114 2 -167 69v-63h-50v538c0 99 72 174 180 174c103 0 177 -55 177 -164c0 -61 -19 -150 -104 -167c92 -11 141 -74 141 -184zM442 200c0 140 -87 159 -173 159h-61v38h63c124 0 135 88 135 140c0 97 -59 134 -127 134
c-91 0 -131 -66 -131 -152v-319c0 -80 41 -163 144 -163c107 0 150 86 150 163z" />
    <glyph glyph-name="gamma" unicode="&#x3b3;" horiz-adv-x="430" 
d="M416 482l-175 -482v-230h-51v230l-176 482h56l145 -422l145 422h56z" />
    <glyph glyph-name="delta" unicode="&#x3b4;" horiz-adv-x="526" 
d="M457 241c0 -69 -9 -143 -60 -194c-35 -35 -79 -53 -134 -53c-54 0 -99 18 -134 53c-51 51 -60 125 -60 194s9 143 60 194c35 35 80 53 134 53c25 0 53 -5 73 -17l-213 202v39h285v-39h-229l179 -172c92 -88 99 -175 99 -260zM406 241c0 56 -3 121 -43 161
c-27 27 -61 41 -100 41s-73 -14 -100 -41c-40 -40 -43 -105 -43 -161s3 -121 43 -161c27 -27 61 -41 100 -41s73 14 100 41c40 40 43 105 43 161z" />
    <glyph glyph-name="epsilon" unicode="&#x3b5;" horiz-adv-x="492" 
d="M437 68c-62 -62 -125 -74 -197 -74c-96 0 -172 47 -172 136c0 60 26 92 82 115c-48 19 -72 56 -72 108c0 84 79 135 168 135c82 0 143 -22 190 -74l-34 -33c-34 36 -87 63 -155 63c-52 0 -114 -34 -114 -92c0 -54 31 -84 96 -84h82v-44h-82c-74 0 -106 -36 -106 -94
c0 -59 56 -92 115 -92c40 0 106 2 164 61z" />
    <glyph glyph-name="zeta" unicode="&#x3b6;" horiz-adv-x="458" 
d="M413 -52c0 -64 -35 -101 -125 -101v39c46 0 81 14 81 56c0 41 -25 58 -84 58h-36c-132 0 -194 23 -194 113c0 60 23 93 84 143l219 181h-274v45h328v-48c-6 -7 -242 -214 -242 -214c-56 -49 -62 -63 -62 -111c0 -52 54 -64 141 -64h33c62 0 131 -18 131 -97z" />
    <glyph glyph-name="eta" unicode="&#x3b7;" horiz-adv-x="559" 
d="M468 0h-51v299c0 93 -46 144 -133 144s-136 -52 -136 -144v-299h-51v482h51v-57c36 42 83 63 142 63c53 0 96 -15 128 -46c33 -32 50 -77 50 -134v-308z" />
    <glyph glyph-name="theta" unicode="&#x3b8;" horiz-adv-x="534" 
d="M464 356c0 -114 0 -242 -66 -308c-35 -35 -74 -54 -131 -54s-96 19 -131 54c-66 66 -66 194 -66 308s0 242 66 308c35 35 74 54 131 54s96 -19 131 -54c66 -66 66 -194 66 -308zM413 353h-292c0 -116 2 -224 51 -273c27 -27 55 -41 95 -41s68 14 95 41
c49 49 51 157 51 273zM413 398c0 78 -3 186 -51 234c-27 27 -55 41 -95 41s-68 -14 -95 -41c-48 -48 -51 -156 -51 -234h292z" />
    <glyph glyph-name="iota" unicode="&#x3b9;" horiz-adv-x="287" 
d="M255 0h-44c-79 0 -116 49 -116 125v357h51v-356c0 -55 17 -81 74 -81h35v-45z" />
    <glyph glyph-name="kappa" unicode="&#x3ba;" horiz-adv-x="527" 
d="M487 0h-63l-166 265l-110 -127v-138h-51v482h51v-272l239 272h65l-159 -180z" />
    <glyph glyph-name="lambda" unicode="&#x3bb;" horiz-adv-x="465" 
d="M473 0h-24c-32 0 -52 9 -76 31c-12 12 -23 30 -31 56l-109 334l-159 -421h-56l191 481l-44 129c-16 48 -26 57 -81 57h-9v45h15c66 0 97 -18 117 -78l176 -523c16 -48 35 -66 72 -66h18v-45z" />
    <glyph glyph-name="uni03BC" unicode="&#x3bc;" horiz-adv-x="556" 
d="M408 0v57c-36 -42 -83 -63 -142 -63c-53 0 -95 15 -127 45v-269h-51v712h51v-299c0 -93 46 -144 133 -144s136 52 136 144v299h51v-482h-51z" />
    <glyph glyph-name="nu" unicode="&#x3bd;" horiz-adv-x="430" 
d="M416 482l-176 -482h-50l-176 482h56l145 -422l145 422h56z" />
    <glyph glyph-name="xi" unicode="&#x3be;" horiz-adv-x="475" 
d="M455 614l-34 -33c-34 36 -79 62 -139 62c-81 0 -133 -48 -133 -131s50 -121 131 -121h121v-45h-119c-98 0 -162 -62 -162 -154c0 -88 66 -147 152 -147h43c63 0 131 -18 131 -97c0 -64 -35 -101 -125 -101v39c46 0 81 14 81 56c0 41 -25 58 -84 58h-46
c-115 0 -204 78 -204 192c0 100 59 158 124 178c-59 15 -98 77 -98 142c0 104 77 176 188 176c64 0 126 -22 173 -74z" />
    <glyph glyph-name="omicron" unicode="&#x3bf;" horiz-adv-x="526" 
d="M457 241c0 -69 -9 -143 -60 -194c-35 -35 -80 -53 -134 -53s-99 18 -134 53c-51 51 -60 125 -60 194s9 143 60 194c35 35 80 53 134 53s99 -18 134 -53c51 -51 60 -125 60 -194zM406 241c0 56 -3 121 -43 161c-27 27 -61 41 -100 41s-73 -14 -100 -41
c-40 -40 -43 -105 -43 -161s3 -121 43 -161c27 -27 61 -41 100 -41s73 14 100 41c40 40 43 105 43 161z" />
    <glyph glyph-name="pi" unicode="&#x3c0;" horiz-adv-x="559" 
d="M468 0h-51v437h-269v-437h-51v482h371v-482z" />
    <glyph glyph-name="rho" unicode="&#x3c1;" horiz-adv-x="513" 
d="M444 241c0 -76 -14 -156 -63 -205c-25 -25 -67 -42 -118 -42c-55 0 -100 12 -143 68v-292h-51v520c0 92 51 198 186 198c146 0 189 -112 189 -247zM392 241c0 100 -16 201 -134 201s-138 -103 -138 -196c0 -100 18 -207 136 -207s136 102 136 202z" />
    <glyph glyph-name="sigma1" unicode="&#x3c2;" horiz-adv-x="493" 
d="M440 414l-35 -32c-41 46 -73 61 -124 61c-55 0 -99 -21 -128 -64c-24 -35 -33 -73 -33 -138s9 -103 33 -138c34 -51 79 -58 136 -58c66 0 143 -13 143 -97c0 -64 -36 -101 -126 -101v39c46 0 81 14 81 56c0 57 -49 58 -98 58c-153 0 -220 93 -220 241
c0 153 80 247 212 247c66 0 108 -17 159 -74z" />
    <glyph glyph-name="sigma" unicode="&#x3c3;" horiz-adv-x="536" 
d="M472 437h-92c54 -42 79 -116 79 -196c0 -69 -9 -143 -60 -194c-35 -35 -79 -53 -134 -53c-54 0 -99 18 -134 53c-51 51 -60 125 -60 194s7 137 58 188c35 35 80 53 134 53h209v-45zM408 241c0 56 -5 115 -45 155c-27 27 -61 41 -100 41s-73 -14 -100 -41
c-40 -40 -41 -99 -41 -155s3 -121 43 -161c27 -27 61 -41 100 -41s73 14 100 41c40 40 43 105 43 161z" />
    <glyph glyph-name="tau" unicode="&#x3c4;" horiz-adv-x="349" 
d="M321 437h-121v-437h-51v437h-121v45h293v-45z" />
    <glyph glyph-name="upsilon" unicode="&#x3c5;" horiz-adv-x="511" 
d="M255 -6c-56 0 -103 15 -135 46c-33 32 -50 77 -50 134v308h51v-295c0 -99 47 -148 134 -148s135 50 135 148v295h51v-308c0 -57 -18 -102 -51 -134c-32 -31 -79 -46 -135 -46z" />
    <glyph glyph-name="phi" unicode="&#x3c6;" horiz-adv-x="646" 
d="M577 243c0 -159 -50 -249 -230 -249v-224h-51v224c-182 0 -227 107 -227 249c0 111 39 192 116 239l14 -42c-64 -47 -79 -129 -79 -200c0 -101 16 -197 176 -201v443h69c151 0 212 -78 212 -239zM526 246c0 109 -21 192 -179 192v-399c166 5 179 98 179 207z" />
    <glyph glyph-name="chi" unicode="&#x3c7;" horiz-adv-x="460" 
d="M420 0h-62l-127 203l-129 -203h-62l163 246l-156 236h62l122 -194l120 194h62l-156 -236z" />
    <glyph glyph-name="psi" unicode="&#x3c8;" horiz-adv-x="614" 
d="M540 241c0 -164 -57 -239 -212 -246v-225h-51v225c-155 7 -211 81 -211 246v241h50v-241c0 -139 33 -195 161 -201v442h51v-442c129 6 161 64 161 201v241h51v-241z" />
    <glyph glyph-name="omega" unicode="&#x3c9;" horiz-adv-x="704" 
d="M635 233c0 -63 -9 -128 -36 -173c-25 -41 -65 -66 -124 -66s-108 47 -123 102c-15 -55 -64 -102 -123 -102s-99 25 -124 66c-27 45 -36 110 -36 173c0 66 19 145 47 182c19 25 56 67 110 73v-45c-32 -6 -65 -39 -78 -64c-19 -35 -29 -66 -29 -146c0 -39 0 -104 26 -146
c16 -27 46 -48 84 -48c93 0 97 120 97 183v128h52v-128c0 -63 4 -183 97 -183c38 0 68 21 84 48c26 42 26 107 26 146c0 80 -10 111 -29 146c-13 25 -46 58 -78 64v45c54 -6 91 -48 110 -73c28 -37 47 -116 47 -182z" />
    <glyph glyph-name="iotadieresis" unicode="&#x3ca;" horiz-adv-x="287" 
d="M255 0h-44c-79 0 -116 49 -116 125v357h51v-356c0 -55 17 -81 74 -81h35v-45zM48 600h-58v77h58v-77zM256 600h-58v77h58v-77z" />
    <glyph glyph-name="upsilondieresis" unicode="&#x3cb;" horiz-adv-x="511" 
d="M255 -6c-56 0 -103 15 -135 46c-33 32 -50 77 -50 134v308h51v-295c0 -99 47 -148 134 -148s135 50 135 148v295h51v-308c0 -57 -18 -102 -51 -134c-32 -31 -79 -46 -135 -46zM181 600h-58v77h58v-77zM389 600h-58v77h58v-77z" />
    <glyph glyph-name="omicrontonos" unicode="&#x3cc;" horiz-adv-x="526" 
d="M291 615l-58 -33v130h58v-97zM457 241c0 -69 -9 -143 -60 -194c-35 -35 -80 -53 -134 -53s-99 18 -134 53c-51 51 -60 125 -60 194s9 143 60 194c35 35 80 53 134 53s99 -18 134 -53c51 -51 60 -125 60 -194zM406 241c0 56 -3 121 -43 161c-27 27 -61 41 -100 41
s-73 -14 -100 -41c-40 -40 -43 -105 -43 -161s3 -121 43 -161c27 -27 61 -41 100 -41s73 14 100 41c40 40 43 105 43 161z" />
    <glyph glyph-name="upsilontonos" unicode="&#x3cd;" horiz-adv-x="511" 
d="M255 -6c-56 0 -103 15 -135 46c-33 32 -50 77 -50 134v308h51v-295c0 -99 47 -148 134 -148s135 50 135 148v295h51v-308c0 -57 -18 -102 -51 -134c-32 -31 -79 -46 -135 -46zM281 615l-58 -33v130h58v-97z" />
    <glyph glyph-name="omegatonos" unicode="&#x3ce;" horiz-adv-x="704" 
d="M635 233c0 -63 -9 -128 -36 -173c-25 -41 -65 -66 -124 -66s-108 47 -123 102c-15 -55 -64 -102 -123 -102s-99 25 -124 66c-27 45 -36 110 -36 173c0 66 19 145 47 182c19 25 56 67 110 73v-45c-32 -6 -65 -39 -78 -64c-19 -35 -29 -66 -29 -146c0 -39 0 -104 26 -146
c16 -27 46 -48 84 -48c93 0 97 120 97 183v128h52v-128c0 -63 4 -183 97 -183c38 0 68 21 84 48c26 42 26 107 26 146c0 80 -10 111 -29 146c-13 25 -46 58 -78 64v45c54 -6 91 -48 110 -73c28 -37 47 -116 47 -182zM376 615l-58 -33v130h58v-97z" />
    <glyph glyph-name="uni03D0" unicode="&#x3d0;" horiz-adv-x="540" 
d="M491 197c0 -109 -78 -203 -177 -203c-61 0 -113 1 -166 68v-292h-51v768c0 99 72 174 180 174c103 0 177 -55 177 -164c0 -61 -19 -150 -104 -167c92 -11 141 -74 141 -184zM442 200c0 140 -87 159 -173 159h-61v38h63c124 0 135 88 135 140c0 97 -59 134 -127 134
c-91 0 -131 -66 -131 -152v-319c0 -80 41 -163 144 -163c107 0 150 86 150 163z" />
    <glyph glyph-name="uni0400" unicode="&#x400;" horiz-adv-x="598" 
d="M542 0h-432v712h432v-48h-378v-281h322v-48h-322v-287h378v-48zM361 780h-58l-106 147h67z" />
    <glyph glyph-name="afii10023" unicode="&#x401;" horiz-adv-x="598" 
d="M542 0h-432v712h432v-48h-378v-281h322v-48h-322v-287h378v-48zM239 790h-58v77h58v-77zM447 790h-58v77h58v-77z" />
    <glyph glyph-name="afii10051" unicode="&#x402;" horiz-adv-x="743" 
d="M646 216c0 -138 -85 -216 -215 -216h-40v48h34c106 0 167 54 167 167s-61 167 -167 167h-164v-382h-54v664h-182v48h479v-48h-243v-234h170c130 0 215 -77 215 -214z" />
    <glyph glyph-name="afii10052" unicode="&#x403;" horiz-adv-x="564" 
d="M540 664h-368v-664h-54v712h422v-48zM424 927l-106 -147h-58l97 147h67z" />
    <glyph glyph-name="afii10053" unicode="&#x404;" horiz-adv-x="644" 
d="M568 202c-24 -128 -116 -208 -242 -208c-71 0 -131 26 -173 68c-66 66 -71 121 -71 294s5 228 71 294c42 42 102 68 173 68c128 0 218 -80 242 -208h-55c-21 99 -91 160 -187 160c-52 0 -98 -18 -135 -55c-48 -48 -55 -102 -55 -232h286v-48h-286c0 -134 6 -190 55 -238
c37 -37 83 -55 135 -55c96 0 168 61 189 160h53z" />
    <glyph glyph-name="afii10054" unicode="&#x405;" horiz-adv-x="587" 
d="M528 191c0 -120 -91 -197 -240 -197c-105 0 -172 29 -237 94l38 38c64 -64 117 -84 202 -84c113 0 183 54 183 147c0 43 -12 77 -39 100c-25 22 -46 29 -103 38l-83 13c-54 8 -96 24 -127 51c-37 31 -56 75 -56 132c0 119 84 195 221 195c88 0 144 -24 205 -77l-35 -35
c-42 40 -89 66 -173 66c-104 0 -165 -56 -165 -147c0 -41 11 -73 36 -94s62 -35 102 -41l83 -13c66 -10 94 -21 127 -49c38 -33 61 -79 61 -137z" />
    <glyph glyph-name="afii10055" unicode="&#x406;" horiz-adv-x="274" 
d="M164 0h-54v712h54v-712z" />
    <glyph glyph-name="afii10056" unicode="&#x407;" horiz-adv-x="274" 
d="M164 0h-54v712h54v-712zM62 790h-58v77h58v-77zM270 790h-58v77h58v-77z" />
    <glyph glyph-name="afii10057" unicode="&#x408;" horiz-adv-x="498" 
d="M398 210c0 -130 -83 -216 -212 -216c-64 0 -115 20 -156 61l37 37c27 -27 56 -50 119 -50c102 0 158 65 158 179v491h54v-502z" />
    <glyph glyph-name="afii10058" unicode="&#x409;" horiz-adv-x="1037" 
d="M238 664v-257c0 -301 -72 -407 -204 -407h-29v48h18c95 0 162 65 162 387v277h385v-302h209c130 0 215 -81 215 -205s-85 -205 -215 -205h-263v664h-278zM940 205c0 100 -61 157 -167 157h-203v-314h203c106 0 167 57 167 157z" />
    <glyph glyph-name="afii10059" unicode="&#x40a;" horiz-adv-x="1056" 
d="M1013 205c0 -124 -85 -205 -215 -205h-263v362h-371v-362h-54v712h54v-302h371v302h54v-302h209c130 0 215 -81 215 -205zM959 205c0 100 -61 157 -167 157h-203v-314h203c106 0 167 57 167 157z" />
    <glyph glyph-name="afii10060" unicode="&#x40b;" horiz-adv-x="743" 
d="M646 0h-54v225c0 100 -61 157 -167 157h-164v-382h-54v664h-182v48h479v-48h-243v-234h170c130 0 215 -81 215 -205v-225z" />
    <glyph glyph-name="afii10061" unicode="&#x40c;" horiz-adv-x="600" 
d="M600 0h-76l-354 371l331 341h72l-338 -340zM115 0v712h54v-712h-54zM429 927l-106 -147h-58l97 147h67z" />
    <glyph glyph-name="uni040D" unicode="&#x40d;" horiz-adv-x="720" 
d="M610 0h-54v624l-392 -624h-54v712h54v-622l392 622h54v-712zM392 780h-58l-106 147h67z" />
    <glyph glyph-name="afii10062" unicode="&#x40e;" horiz-adv-x="534" 
d="M407 880c-7 -83 -56 -120 -140 -120s-133 37 -140 120h51c5 -52 35 -80 89 -80s84 28 89 80h51zM522 712l-259 -604c-28 -66 -67 -108 -134 -108h-54v48h42c53 0 77 24 101 80l31 74l-237 510h58l207 -449l187 449h58z" />
    <glyph glyph-name="afii10145" unicode="&#x40f;" horiz-adv-x="699" 
d="M589 0h-212v-180h-54v180h-213v712h54v-664h371v664h54v-712z" />
    <glyph glyph-name="afii10017" unicode="&#x410;" horiz-adv-x="602" 
d="M587 0h-58l-62 173h-332l-62 -173h-58l262 712h48zM450 221l-149 419l-149 -419h298z" />
    <glyph glyph-name="afii10018" unicode="&#x411;" horiz-adv-x="657" 
d="M588 205c0 -124 -85 -205 -215 -205h-263v712h434v-48h-380v-254h209c130 0 215 -81 215 -205zM534 205c0 100 -61 157 -167 157h-203v-314h203c106 0 167 57 167 157z" />
    <glyph glyph-name="afii10019" unicode="&#x412;" horiz-adv-x="671" 
d="M589 192c0 -120 -78 -192 -209 -192h-270v712h262c123 0 206 -74 206 -184c0 -52 -19 -96 -54 -129c-16 -14 -27 -21 -57 -33c35 -14 48 -22 66 -38c37 -34 56 -80 56 -136zM535 194c0 89 -62 146 -161 146h-210v-292h210c99 0 161 56 161 146zM524 526
c0 87 -59 138 -158 138h-202v-276h202c100 0 158 51 158 138z" />
    <glyph glyph-name="afii10020" unicode="&#x413;" horiz-adv-x="564" 
d="M540 664h-368v-664h-54v712h422v-48z" />
    <glyph glyph-name="afii10021" unicode="&#x414;" horiz-adv-x="680" 
d="M640 -180h-54v180h-512v-180h-54v228h65c67 106 92 226 92 404v260h378v-664h85v-228zM501 48v616h-273v-260c0 -129 -23 -256 -83 -356h356z" />
    <glyph glyph-name="afii10022" unicode="&#x415;" horiz-adv-x="598" 
d="M542 0h-432v712h432v-48h-378v-281h322v-48h-322v-287h378v-48z" />
    <glyph glyph-name="afii10024" unicode="&#x416;" horiz-adv-x="886" 
d="M536 372l350 -372h-76l-339 371l316 341h72zM0 0l350 372l-323 340h72l316 -341l-339 -371h-76zM470 0h-54v712h54v-712z" />
    <glyph glyph-name="afii10025" unicode="&#x417;" horiz-adv-x="620" 
d="M538 192c0 -122 -101 -198 -232 -198c-120 0 -213 79 -236 208h53c21 -98 93 -160 189 -160c97 0 172 57 172 152c0 99 -58 146 -158 146h-89v48h92c91 0 143 51 143 143c0 90 -63 139 -159 139s-166 -62 -187 -160h-55c23 129 115 208 242 208c123 0 213 -72 213 -186
c0 -80 -34 -134 -107 -165c79 -27 119 -84 119 -175z" />
    <glyph glyph-name="afii10026" unicode="&#x418;" horiz-adv-x="720" 
d="M610 0h-54v624l-392 -624h-54v712h54v-622l392 622h54v-712z" />
    <glyph glyph-name="afii10027" unicode="&#x419;" horiz-adv-x="720" 
d="M500 880c-7 -83 -56 -120 -140 -120s-133 37 -140 120h51c5 -52 35 -80 89 -80s84 28 89 80h51zM610 0h-54v624l-392 -624h-54v712h54v-622l392 622h54v-712z" />
    <glyph glyph-name="afii10028" unicode="&#x41a;" horiz-adv-x="600" 
d="M600 0h-76l-354 371l331 341h72l-338 -340zM115 0v712h54v-712h-54z" />
    <glyph glyph-name="afii10029" unicode="&#x41b;" horiz-adv-x="680" 
d="M570 0h-54v664h-278v-257c0 -301 -72 -407 -204 -407h-29v48h18c95 0 162 65 162 387v277h385v-712z" />
    <glyph glyph-name="afii10030" unicode="&#x41c;" horiz-adv-x="818" 
d="M708 0h-54v587l-216 -487h-54l-220 487v-587h-54v712h54l248 -549l242 549h54v-712z" />
    <glyph glyph-name="afii10031" unicode="&#x41d;" horiz-adv-x="699" 
d="M589 0h-54v335h-371v-335h-54v712h54v-329h371v329h54v-712z" />
    <glyph glyph-name="afii10032" unicode="&#x41e;" horiz-adv-x="652" 
d="M516 356c0 150 -4 208 -55 259c-37 37 -83 55 -135 55s-98 -18 -135 -55c-51 -51 -55 -109 -55 -259s4 -208 55 -259c37 -37 83 -55 135 -55s98 18 135 55c51 51 55 109 55 259zM570 356c0 -173 -5 -228 -71 -294c-42 -42 -102 -68 -173 -68s-131 26 -173 68
c-66 66 -71 121 -71 294s5 228 71 294c42 42 102 68 173 68s131 -26 173 -68c66 -66 71 -121 71 -294z" />
    <glyph glyph-name="afii10033" unicode="&#x41f;" horiz-adv-x="699" 
d="M589 0h-54v664h-371v-664h-54v712h479v-712z" />
    <glyph glyph-name="afii10034" unicode="&#x420;" horiz-adv-x="631" 
d="M586 507c0 -130 -92 -205 -215 -205h-207v-302h-54v712h261c123 0 215 -75 215 -205zM532 507c0 107 -68 157 -167 157h-201v-314h201c99 0 167 50 167 157z" />
    <glyph glyph-name="afii10035" unicode="&#x421;" horiz-adv-x="644" 
d="M568 202c-24 -128 -116 -208 -242 -208c-71 0 -131 26 -173 68c-66 66 -71 121 -71 294s5 228 71 294c42 42 102 68 173 68c128 0 218 -80 242 -208h-55c-21 99 -91 160 -187 160c-52 0 -98 -18 -135 -55c-51 -51 -55 -109 -55 -259s4 -208 55 -259
c37 -37 83 -55 135 -55c96 0 168 61 189 160h53z" />
    <glyph glyph-name="afii10036" unicode="&#x422;" horiz-adv-x="539" 
d="M509 664h-213v-664h-54v664h-212v48h479v-48z" />
    <glyph glyph-name="afii10037" unicode="&#x423;" horiz-adv-x="534" 
d="M522 712l-259 -604c-28 -66 -67 -108 -134 -108h-54v48h42c53 0 77 24 101 80l31 74l-237 510h58l207 -449l187 449h58z" />
    <glyph glyph-name="afii10038" unicode="&#x424;" horiz-adv-x="760" 
d="M704 380c0 -187 -87 -284 -297 -290v-93h-54v93c-210 6 -297 103 -297 290s87 284 297 290v65h54v-65c210 -6 297 -103 297 -290zM353 137v486c-188 -3 -243 -96 -243 -243s55 -240 243 -243zM650 380c0 147 -55 240 -243 243v-486c188 3 243 96 243 243z" />
    <glyph glyph-name="afii10039" unicode="&#x425;" horiz-adv-x="532" 
d="M514 0h-63l-186 317l-186 -317h-61l218 365l-204 347h63l170 -299l171 299h62l-204 -347z" />
    <glyph glyph-name="afii10040" unicode="&#x426;" horiz-adv-x="714" 
d="M674 -180h-54v180h-510v712h54v-664h371v664h54v-664h85v-228z" />
    <glyph glyph-name="afii10041" unicode="&#x427;" horiz-adv-x="644" 
d="M534 0h-54v300c-47 -10 -149 -30 -208 -30c-99 0 -192 40 -192 179v263h54v-256c0 -118 76 -138 147 -138c54 0 148 18 199 28v366h54v-712z" />
    <glyph glyph-name="afii10042" unicode="&#x428;" horiz-adv-x="1000" 
d="M890 0h-780v712h54v-664h309v664h54v-664h309v664h54v-712z" />
    <glyph glyph-name="afii10043" unicode="&#x429;" horiz-adv-x="1015" 
d="M975 -180h-54v180h-811v712h54v-664h309v664h54v-664h309v664h54v-664h85v-228z" />
    <glyph glyph-name="afii10044" unicode="&#x42a;" horiz-adv-x="728" 
d="M685 205c0 -124 -85 -205 -215 -205h-263v664h-177v48h231v-302h209c130 0 215 -81 215 -205zM631 205c0 100 -61 157 -167 157h-203v-314h203c106 0 167 57 167 157z" />
    <glyph glyph-name="afii10045" unicode="&#x42b;" horiz-adv-x="854" 
d="M588 205c0 -124 -85 -205 -215 -205h-263v712h54v-302h209c130 0 215 -81 215 -205zM534 205c0 100 -61 157 -167 157h-203v-314h203c106 0 167 57 167 157zM744 0h-54v712h54v-712z" />
    <glyph glyph-name="afii10046" unicode="&#x42c;" horiz-adv-x="631" 
d="M588 205c0 -124 -85 -205 -215 -205h-263v712h54v-302h209c130 0 215 -81 215 -205zM534 205c0 100 -61 157 -167 157h-203v-314h203c106 0 167 57 167 157z" />
    <glyph glyph-name="afii10047" unicode="&#x42d;" horiz-adv-x="644" 
d="M562 356c0 -173 -5 -228 -71 -294c-42 -42 -102 -68 -173 -68c-126 0 -218 80 -242 208h53c21 -99 93 -160 189 -160c52 0 98 18 135 55c49 48 55 104 55 238h-286v48h286c0 130 -7 184 -55 232c-37 37 -83 55 -135 55c-96 0 -166 -61 -187 -160h-55
c24 128 114 208 242 208c71 0 131 -26 173 -68c66 -66 71 -121 71 -294z" />
    <glyph glyph-name="afii10048" unicode="&#x42e;" horiz-adv-x="900" 
d="M818 356c0 -173 -5 -228 -71 -294c-42 -42 -102 -68 -173 -68s-131 26 -173 68c-63 63 -71 117 -71 273h-166v-335h-54v712h54v-329h166c0 151 8 204 71 267c42 42 102 68 173 68s131 -26 173 -68c66 -66 71 -121 71 -294zM764 356c0 150 -4 208 -55 259
c-37 37 -83 55 -135 55s-98 -18 -135 -55c-51 -51 -55 -109 -55 -259s4 -208 55 -259c37 -37 83 -55 135 -55s98 18 135 55c51 51 55 109 55 259z" />
    <glyph glyph-name="afii10049" unicode="&#x42f;" horiz-adv-x="657" 
d="M547 0h-54v302h-200l-166 -302h-63l170 307c-100 19 -163 94 -163 200c0 124 85 205 215 205h261v-712zM493 350v314h-201c-106 0 -167 -57 -167 -157s61 -157 167 -157h201z" />
    <glyph glyph-name="afii10065" unicode="&#x430;" horiz-adv-x="524" 
d="M431 0h-51v48c-41 -41 -79 -54 -147 -54c-71 0 -111 12 -142 44c-22 23 -35 58 -35 94c0 88 63 139 168 139h156v54c0 77 -38 118 -136 118c-68 0 -103 -17 -133 -61l-37 32c41 57 92 74 170 74c127 0 187 -57 187 -158v-330zM380 168v62h-150c-83 0 -123 -33 -123 -97
s39 -94 126 -94c44 0 86 4 120 37c18 17 27 47 27 92z" />
    <glyph glyph-name="afii10066" unicode="&#x431;" horiz-adv-x="528" 
d="M461 241c0 -96 -17 -153 -59 -195c-32 -33 -80 -52 -132 -52c-96 0 -165 57 -185 148c-9 39 -10 96 -10 148c0 236 1 298 58 355c67 67 213 65 293 72v-49c-65 -6 -197 0 -253 -56c-45 -45 -49 -112 -49 -202c22 45 90 77 149 77c51 0 94 -14 125 -44
c43 -41 63 -111 63 -202zM410 236c0 87 -10 134 -42 166c-24 25 -61 40 -98 40s-73 -15 -98 -40c-30 -31 -46 -79 -46 -164s15 -127 46 -159c25 -25 61 -40 98 -40s74 15 98 40c31 31 42 74 42 157z" />
    <glyph glyph-name="afii10067" unicode="&#x432;" horiz-adv-x="535" 
d="M463 131c0 -81 -53 -131 -142 -131h-224v482h219c83 0 139 -49 139 -124c0 -54 -31 -92 -82 -108c53 -17 90 -58 90 -119zM412 135c0 56 -38 93 -102 93h-162v-185h162c64 0 102 36 102 92zM404 355c0 54 -36 84 -99 84h-157v-169h157c63 0 99 32 99 85z" />
    <glyph glyph-name="afii10068" unicode="&#x433;" horiz-adv-x="411" 
d="M401 437h-249v-437h-51v482h300v-45z" />
    <glyph glyph-name="afii10069" unicode="&#x434;" horiz-adv-x="551" 
d="M515 -150h-51v150h-388v-150h-51v195h59c37 53 70 120 70 297v140h286v-437h75v-195zM389 45v392h-186v-108c0 -162 -29 -239 -61 -284h247z" />
    <glyph glyph-name="afii10070" unicode="&#x435;" horiz-adv-x="523" 
d="M455 230h-335c0 -123 54 -190 157 -190c57 0 92 17 133 58l38 -30c-49 -49 -94 -74 -174 -74c-133 0 -205 86 -205 247c0 156 72 247 193 247s193 -87 193 -235v-23zM404 271c-3 46 -4 62 -17 91c-21 51 -69 81 -125 81s-102 -31 -125 -81c-13 -29 -14 -45 -17 -91h284z
" />
    <glyph glyph-name="afii10072" unicode="&#x436;" horiz-adv-x="699" 
d="M376 249l225 233h66l-225 -229l248 -253h-70zM98 482l225 -233l-244 -249h-70l248 253l-225 229h66zM375 0h-51v482h51v-482z" />
    <glyph glyph-name="afii10073" unicode="&#x437;" horiz-adv-x="477" 
d="M405 133c0 -86 -85 -138 -182 -138c-77 0 -129 17 -186 69l35 35c46 -45 83 -59 148 -59c64 0 136 35 136 94c0 61 -46 92 -111 92h-69v43h71c58 0 100 31 100 88c0 55 -47 86 -119 86c-52 0 -97 -13 -139 -42l-30 36c53 37 105 51 169 51c96 0 169 -47 169 -130
c0 -50 -28 -93 -81 -109c54 -15 89 -59 89 -116z" />
    <glyph glyph-name="afii10074" unicode="&#x438;" horiz-adv-x="573" 
d="M476 0h-51v408l-277 -408h-51v482h51v-408l277 408h51v-482z" />
    <glyph glyph-name="afii10075" unicode="&#x439;" horiz-adv-x="573" 
d="M427 697c-7 -83 -56 -120 -140 -120s-133 37 -140 120h51c5 -52 35 -80 89 -80s84 28 89 80h51zM476 0h-51v408l-277 -408h-51v482h51v-408l277 408h51v-482z" />
    <glyph glyph-name="afii10076" unicode="&#x43a;" horiz-adv-x="485" 
d="M154 249l233 233h66l-233 -229l256 -253h-70zM153 482v-482h-51v482h51z" />
    <glyph glyph-name="afii10077" unicode="&#x43b;" horiz-adv-x="533" 
d="M145 482h291v-482h-51v439h-190v-187c0 -200 -69 -252 -153 -252h-22v43h15c44 0 110 17 110 228v211z" />
    <glyph glyph-name="afii10078" unicode="&#x43c;" horiz-adv-x="648" 
d="M551 0h-51v378l-151 -310h-48l-153 310v-378h-51v482h51l178 -363l174 363h51v-482z" />
    <glyph glyph-name="afii10079" unicode="&#x43d;" horiz-adv-x="559" 
d="M462 0h-51v227h-263v-227h-51v482h51v-210h263v210h51v-482z" />
    <glyph glyph-name="afii10080" unicode="&#x43e;" horiz-adv-x="526" 
d="M457 241c0 -69 -9 -143 -60 -194c-35 -35 -80 -53 -134 -53s-99 18 -134 53c-51 51 -60 125 -60 194s9 143 60 194c35 35 80 53 134 53s99 -18 134 -53c51 -51 60 -125 60 -194zM406 241c0 56 -3 121 -43 161c-27 27 -61 41 -100 41s-73 -14 -100 -41
c-40 -40 -43 -105 -43 -161s3 -121 43 -161c27 -27 61 -41 100 -41s73 14 100 41c40 40 43 105 43 161z" />
    <glyph glyph-name="afii10081" unicode="&#x43f;" horiz-adv-x="553" 
d="M462 0h-51v437h-263v-437h-51v482h365v-482z" />
    <glyph glyph-name="afii10082" unicode="&#x440;" horiz-adv-x="540" 
d="M471 241c0 -76 -13 -156 -62 -205c-25 -25 -67 -42 -118 -42c-55 0 -100 12 -143 68v-292h-51v712h51v-62c43 56 88 68 143 68c51 0 93 -17 118 -42c49 -49 62 -129 62 -205zM420 241c0 100 -18 202 -136 202s-136 -102 -136 -202s18 -202 136 -202s136 102 136 202z" />
    <glyph glyph-name="afii10083" unicode="&#x441;" horiz-adv-x="493" 
d="M440 68c-51 -57 -93 -74 -159 -74c-132 0 -212 94 -212 247s80 247 212 247c66 0 108 -17 159 -74l-35 -32c-41 46 -73 61 -124 61c-55 0 -99 -21 -128 -64c-24 -35 -33 -73 -33 -138s9 -103 33 -138c29 -43 73 -64 128 -64c51 0 83 16 124 61z" />
    <glyph glyph-name="afii10084" unicode="&#x442;" horiz-adv-x="409" 
d="M399 437h-164v-437h-51v437h-174v45h389v-45z" />
    <glyph glyph-name="afii10085" unicode="&#x443;" horiz-adv-x="430" 
d="M416 482l-224 -613c-9 -26 -20 -45 -33 -56c-24 -23 -59 -31 -91 -31h-24v45h19c55 0 71 18 88 66l39 107l-176 482h56l145 -422l145 422h56z" />
    <glyph glyph-name="afii10086" unicode="&#x444;" horiz-adv-x="667" 
d="M607 241c0 -157 -91 -240 -248 -247v-224h-51v224c-157 7 -248 90 -248 247s91 240 248 247v224h51v-224c157 -7 248 -90 248 -247zM308 39v404c-132 -4 -197 -85 -197 -202s65 -198 197 -202zM556 241c0 117 -65 198 -197 202v-404c132 4 197 85 197 202z" />
    <glyph glyph-name="afii10087" unicode="&#x445;" horiz-adv-x="460" 
d="M420 0h-62l-127 203l-129 -203h-62l163 246l-156 236h62l122 -194l120 194h62l-156 -236z" />
    <glyph glyph-name="afii10088" unicode="&#x446;" horiz-adv-x="573" 
d="M537 -150h-51v150h-389v482h51v-439h263v439h51v-439h75v-193z" />
    <glyph glyph-name="afii10089" unicode="&#x447;" horiz-adv-x="530" 
d="M433 0h-51v195c-38 -8 -104 -21 -160 -21c-87 0 -143 40 -143 140v168h51v-163c0 -73 40 -97 101 -97c57 0 113 10 151 18v242h51v-482z" />
    <glyph glyph-name="afii10090" unicode="&#x448;" horiz-adv-x="793" 
d="M696 0h-599v482h51v-437h223v437h51v-437h223v437h51v-482z" />
    <glyph glyph-name="afii10091" unicode="&#x449;" horiz-adv-x="807" 
d="M771 -150h-51v150h-623v482h51v-437h223v437h51v-437h223v437h51v-437h75v-195z" />
    <glyph glyph-name="afii10092" unicode="&#x44a;" horiz-adv-x="543" 
d="M503 142c0 -86 -59 -142 -149 -142h-212v439h-132v43h183v-198h161c90 0 149 -56 149 -142zM452 142c0 63 -35 97 -106 97h-153v-194h153c71 0 106 33 106 97z" />
    <glyph glyph-name="afii10093" unicode="&#x44b;" horiz-adv-x="679" 
d="M448 142c0 -86 -59 -142 -149 -142h-202v482h51v-198h151c90 0 149 -56 149 -142zM397 142c0 63 -35 97 -106 97h-143v-194h143c71 0 106 33 106 97zM582 0h-51v482h51v-482z" />
    <glyph glyph-name="afii10094" unicode="&#x44c;" horiz-adv-x="498" 
d="M458 142c0 -86 -59 -142 -149 -142h-212v482h51v-198h161c90 0 149 -56 149 -142zM407 142c0 63 -35 97 -106 97h-153v-194h153c71 0 106 33 106 97z" />
    <glyph glyph-name="afii10095" unicode="&#x44d;" horiz-adv-x="493" 
d="M424 241c0 -154 -81 -247 -215 -247c-72 0 -108 23 -156 74l35 32c37 -40 67 -61 123 -61c117 0 162 88 162 191h-229v41h228c-5 97 -56 172 -162 172c-55 0 -86 -22 -122 -61l-35 32c49 51 84 74 156 74c134 0 215 -93 215 -247z" />
    <glyph glyph-name="afii10096" unicode="&#x44e;" horiz-adv-x="712" 
d="M643 241c0 -69 -9 -143 -60 -194c-35 -35 -79 -53 -134 -53c-54 0 -99 18 -134 53c-48 47 -59 114 -60 179h-107v-226h-51v482h51v-213h107c3 60 16 122 60 166c35 35 80 53 134 53c55 0 99 -18 134 -53c51 -51 60 -125 60 -194zM592 241c0 56 -3 121 -43 161
c-27 27 -61 41 -100 41s-73 -14 -100 -41c-40 -40 -43 -105 -43 -161s3 -121 43 -161c27 -27 61 -41 100 -41s73 14 100 41c40 40 43 105 43 161z" />
    <glyph glyph-name="afii10097" unicode="&#x44f;" horiz-adv-x="524" 
d="M427 0h-51v196h-135l-114 -196h-60l118 198c-74 11 -121 66 -121 142c0 86 59 142 149 142h214v-482zM376 239v200h-153c-69 0 -107 -36 -107 -100s38 -100 107 -100h153z" />
    <glyph glyph-name="uni0450" unicode="&#x450;" horiz-adv-x="523" 
d="M455 230h-335c0 -123 54 -190 157 -190c57 0 92 17 133 58l38 -30c-49 -49 -94 -74 -174 -74c-133 0 -205 86 -205 247c0 156 72 247 193 247s193 -87 193 -235v-23zM404 271c-3 46 -4 62 -17 91c-21 51 -69 81 -125 81s-102 -31 -125 -81c-13 -29 -14 -45 -17 -91h284z
M311 590h-58l-106 147h67z" />
    <glyph glyph-name="afii10071" unicode="&#x451;" horiz-adv-x="523" 
d="M455 230h-335c0 -123 54 -190 157 -190c57 0 92 17 133 58l38 -30c-49 -49 -94 -74 -174 -74c-133 0 -205 86 -205 247c0 156 72 247 193 247s193 -87 193 -235v-23zM404 271c-3 46 -4 62 -17 91c-21 51 -69 81 -125 81s-102 -31 -125 -81c-13 -29 -14 -45 -17 -91h284z
M189 600h-58v77h58v-77zM397 600h-58v77h58v-77z" />
    <glyph glyph-name="afii10099" unicode="&#x452;" horiz-adv-x="559" 
d="M468 -85c0 -79 -44 -145 -136 -145h-44v45h35c59 0 94 43 94 101v383c0 93 -42 144 -128 144s-141 -53 -141 -144v-299h-51v564h-61v38h61v110h51v-110h254v-38h-254v-139c42 44 86 63 148 63c109 0 172 -69 172 -180v-393z" />
    <glyph glyph-name="afii10100" unicode="&#x453;" horiz-adv-x="411" 
d="M401 437h-249v-437h-51v482h300v-45zM348 737l-106 -147h-58l97 147h67z" />
    <glyph glyph-name="afii10101" unicode="&#x454;" horiz-adv-x="493" 
d="M440 68c-48 -51 -84 -74 -156 -74c-134 0 -215 93 -215 247s81 247 215 247c72 0 107 -23 156 -74l-35 -32c-36 39 -67 61 -122 61c-106 0 -157 -75 -162 -172h228v-41h-229c0 -103 45 -191 162 -191c56 0 86 21 123 61z" />
    <glyph glyph-name="afii10102" unicode="&#x455;" horiz-adv-x="494" 
d="M438 137c0 -88 -74 -143 -193 -143c-84 0 -146 22 -195 69l35 35c37 -39 90 -59 158 -59c95 0 145 33 145 98c0 51 -28 75 -92 81l-80 7c-97 8 -145 50 -145 126c0 84 68 137 173 137c67 0 126 -19 169 -51l-34 -34c-37 27 -82 41 -135 41c-80 0 -123 -33 -123 -93
c0 -51 30 -74 98 -81l78 -7c80 -8 141 -32 141 -126z" />
    <glyph glyph-name="afii10103" unicode="&#x456;" horiz-adv-x="245" 
d="M148 0h-51v482h51v-482zM154 649h-63v63h63v-63z" />
    <glyph glyph-name="afii10104" unicode="&#x457;" horiz-adv-x="245" 
d="M148 0h-51v482h51v-482zM48 600h-58v77h58v-77zM256 600h-58v77h58v-77z" />
    <glyph glyph-name="afii10105" unicode="&#x458;" horiz-adv-x="245" 
d="M148 -105c0 -76 -37 -125 -116 -125h-44v45h35c57 0 74 26 74 81v586h51v-587zM154 649h-63v63h63v-63z" />
    <glyph glyph-name="afii10106" unicode="&#x459;" horiz-adv-x="797" 
d="M757 142c0 -86 -59 -142 -149 -142h-212v439h-201v-187c0 -200 -69 -252 -153 -252h-22v43h15c44 0 110 17 110 228v211h302v-198h161c90 0 149 -56 149 -142zM706 142c0 63 -37 99 -106 99h-153v-198h153c69 0 106 35 106 99z" />
    <glyph glyph-name="afii10107" unicode="&#x45a;" horiz-adv-x="812" 
d="M772 142c0 -86 -59 -142 -149 -142h-212v241h-263v-241h-51v482h51v-198h263v198h51v-198h161c90 0 149 -56 149 -142zM721 142c0 63 -37 99 -106 99h-153v-198h153c69 0 106 35 106 99z" />
    <glyph glyph-name="afii10108" unicode="&#x45b;" horiz-adv-x="559" 
d="M468 0h-51v299c0 93 -47 144 -133 144s-136 -53 -136 -144v-299h-51v564h-61v38h61v110h51v-110h254v-38h-254v-139c42 44 81 63 143 63c109 0 177 -69 177 -180v-308z" />
    <glyph glyph-name="afii10109" unicode="&#x45c;" horiz-adv-x="485" 
d="M154 249l233 233h66l-233 -229l256 -253h-70zM153 482v-482h-51v482h51zM374 737l-106 -147h-58l97 147h67z" />
    <glyph glyph-name="uni045D" unicode="&#x45d;" horiz-adv-x="573" 
d="M476 0h-51v408l-277 -408h-51v482h51v-408l277 408h51v-482zM317 590h-58l-106 147h67z" />
    <glyph glyph-name="afii10110" unicode="&#x45e;" horiz-adv-x="430" 
d="M416 482l-224 -613c-9 -26 -20 -45 -33 -56c-24 -23 -59 -31 -91 -31h-24v45h19c55 0 71 18 88 66l39 107l-176 482h56l145 -422l145 422h56zM355 697c-7 -83 -56 -120 -140 -120s-133 37 -140 120h51c5 -52 35 -80 89 -80s84 28 89 80h51z" />
    <glyph glyph-name="afii10193" unicode="&#x45f;" horiz-adv-x="559" 
d="M462 0h-157v-150h-51v150h-157v482h51v-439h263v439h51v-482z" />
    <glyph glyph-name="afii10146" unicode="&#x462;" horiz-adv-x="642" 
d="M599 205c0 -124 -85 -205 -215 -205h-263v559h-81v42h81v111h54v-111h178v-42h-178v-149h209c130 0 215 -81 215 -205zM545 205c0 100 -61 157 -167 157h-203v-314h203c106 0 167 57 167 157z" />
    <glyph glyph-name="afii10194" unicode="&#x463;" horiz-adv-x="498" 
d="M458 142c0 -86 -59 -142 -149 -142h-212v390h-65v36h65v56h51v-56h136v-36h-136v-106h161c90 0 149 -56 149 -142zM407 142c0 63 -37 99 -106 99h-153v-198h153c69 0 106 35 106 99z" />
    <glyph glyph-name="afii10147" unicode="&#x472;" horiz-adv-x="652" 
d="M570 356c0 -173 -5 -228 -71 -294c-42 -42 -102 -68 -173 -68s-131 26 -173 68c-66 66 -71 121 -71 294s5 228 71 294c42 42 102 68 173 68s131 -26 173 -68c66 -66 71 -121 71 -294zM516 335h-380c0 -134 6 -190 55 -238c37 -37 83 -55 135 -55s98 18 135 55
c48 48 54 104 55 238zM516 383c-1 130 -7 184 -55 232c-37 37 -83 55 -135 55s-98 -18 -135 -55c-48 -48 -55 -102 -55 -232h380z" />
    <glyph glyph-name="afii10195" unicode="&#x473;" horiz-adv-x="526" 
d="M457 241c0 -69 -9 -143 -60 -194c-35 -35 -79 -53 -134 -53c-54 0 -99 18 -134 53c-51 51 -60 125 -60 194s9 143 60 194c35 35 80 53 134 53c55 0 99 -18 134 -53c51 -51 60 -125 60 -194zM363 80c37 37 42 96 43 150h-286c0 -54 5 -113 43 -150c27 -27 61 -41 100 -41
s73 14 100 41zM163 402c-33 -33 -41 -83 -43 -131h285c-1 48 -9 98 -42 131c-27 27 -61 41 -100 41s-73 -14 -100 -41z" />
    <glyph glyph-name="afii10148" unicode="&#x474;" horiz-adv-x="534" 
d="M620 664h-37c-53 0 -83 -26 -101 -80l-192 -584h-46l-234 712h57l200 -617l165 509c21 64 67 108 134 108h54v-48z" />
    <glyph glyph-name="afii10196" unicode="&#x475;" horiz-adv-x="430" 
d="M478 439h-19c-49 0 -64 -14 -83 -66l-136 -373h-50l-176 482h56l145 -422l115 335c9 26 19 43 33 56c22 20 53 31 91 31h24v-43z" />
    <glyph glyph-name="afii10050" unicode="&#x490;" horiz-adv-x="564" 
d="M540 664h-368v-664h-54v712h368v170h54v-218z" />
    <glyph glyph-name="afii10098" unicode="&#x491;" horiz-adv-x="411" 
d="M401 439h-249v-439h-51v482h249v160h51v-203z" />
    <glyph glyph-name="uni0492" unicode="&#x492;" horiz-adv-x="558" 
d="M534 664h-368v-284h178v-42h-178v-338h-54v338h-81v42h81v332h422v-48z" />
    <glyph glyph-name="uni0493" unicode="&#x493;" horiz-adv-x="397" 
d="M387 439h-249v-157h136v-36h-136v-246h-51v246h-65v36h65v200h300v-43z" />
    <glyph glyph-name="uni0496" unicode="&#x496;" horiz-adv-x="886" 
d="M886 -180h-54v180h-22l-339 371l316 341h72l-323 -340l305 -324h45v-228zM0 0l350 372l-323 340h72l316 -341l-339 -371h-76zM470 0h-54v712h54v-712z" />
    <glyph glyph-name="uni0497" unicode="&#x497;" horiz-adv-x="699" 
d="M690 -150h-51v150h-19l-244 249l225 233h66l-225 -229l204 -208h44v-195zM98 482l225 -233l-244 -249h-70l248 253l-225 229h66zM375 0h-51v482h51v-482z" />
    <glyph glyph-name="uni049A" unicode="&#x49a;" horiz-adv-x="600" 
d="M600 -180h-54v180h-22l-354 371l331 341h72l-338 -340l318 -324h47v-228zM115 0v712h54v-712h-54z" />
    <glyph glyph-name="uni049B" unicode="&#x49b;" horiz-adv-x="485" 
d="M476 -150h-51v150h-19l-252 249l233 233h66l-233 -229l210 -208h46v-195zM153 482v-482h-51v482h51z" />
    <glyph glyph-name="uni049C" unicode="&#x49c;" horiz-adv-x="642" 
d="M211 184v161h-42v-345h-54v712h54v-319h42v161h53v-161h27l252 319h72l-278 -340l305 -372h-76l-272 345h-30v-161h-53z" />
    <glyph glyph-name="uni049D" unicode="&#x49d;" horiz-adv-x="530" 
d="M193 94v134h-40v-228h-51v482h51v-211h40v134h50v-134h25l164 211h66l-183 -229l206 -253h-70l-184 228h-24v-134h-50z" />
    <glyph glyph-name="uni04A2" unicode="&#x4a2;" horiz-adv-x="699" 
d="M616 -180h-54v180h-27v335h-371v-335h-54v712h54v-329h371v329h54v-664h27v-228z" />
    <glyph glyph-name="uni04A3" unicode="&#x4a3;" horiz-adv-x="559" 
d="M487 -150h-51v150h-25v227h-263v-227h-51v482h51v-210h263v210h51v-437h25v-195z" />
    <glyph glyph-name="uni04AE" unicode="&#x4ae;" horiz-adv-x="494" 
d="M484 712l-210 -417v-295h-54v295l-210 417h58l181 -360l177 360h58z" />
    <glyph glyph-name="uni04AF" unicode="&#x4af;" horiz-adv-x="430" 
d="M416 482l-175 -482v-230h-51v230l-176 482h56l145 -422l145 422h56z" />
    <glyph glyph-name="uni04B0" unicode="&#x4b0;" horiz-adv-x="494" 
d="M484 712l-210 -417h129v-42h-129v-253h-54v253h-129v42h129l-210 417h58l181 -360l177 360h58z" />
    <glyph glyph-name="uni04B1" unicode="&#x4b1;" horiz-adv-x="430" 
d="M416 482l-175 -482h95v-36h-95v-194h-51v194h-95v36h95l-176 482h56l145 -422l145 422h56z" />
    <glyph glyph-name="uni04B2" unicode="&#x4b2;" horiz-adv-x="532" 
d="M514 -180h-54v180h-9l-186 317l-186 -317h-61l218 365l-204 347h63l170 -299l171 299h62l-204 -347l191 -317h29v-228z" />
    <glyph glyph-name="uni04B3" unicode="&#x4b3;" horiz-adv-x="460" 
d="M420 -150h-51v150h-11l-127 203l-129 -203h-62l163 246l-156 236h62l122 -194l120 194h62l-156 -236l133 -201h30v-195z" />
    <glyph glyph-name="uni04B6" unicode="&#x4b6;" horiz-adv-x="644" 
d="M561 -180h-54v180h-27v300c-47 -10 -149 -30 -208 -30c-99 0 -192 40 -192 179v263h54v-256c0 -118 76 -138 147 -138c54 0 148 18 199 28v366h54v-664h27v-228z" />
    <glyph glyph-name="uni04B7" unicode="&#x4b7;" horiz-adv-x="530" 
d="M458 -150h-51v150h-25v195c-38 -8 -104 -21 -160 -21c-87 0 -143 40 -143 140v168h51v-163c0 -73 40 -97 101 -97c57 0 113 10 151 18v242h51v-437h25v-195z" />
    <glyph glyph-name="uni04B8" unicode="&#x4b8;" horiz-adv-x="644" 
d="M281 107v163h-9c-99 0 -192 40 -192 179v263h54v-256c0 -118 76 -138 147 -138v162h53v-159c50 6 109 18 146 25v366h54v-712h-54v300c-33 -7 -93 -19 -146 -26v-167h-53z" />
    <glyph glyph-name="uni04B9" unicode="&#x4b9;" horiz-adv-x="530" 
d="M231 42v132h-9c-87 0 -143 40 -143 140v168h51v-163c0 -73 40 -97 101 -97v132h50v-130c38 3 74 10 101 16v242h51v-482h-51v195c-25 -6 -63 -13 -101 -17v-136h-50z" />
    <glyph glyph-name="uni04BA" unicode="&#x4ba;" horiz-adv-x="644" 
d="M564 0h-54v256c0 118 -76 138 -147 138c-54 0 -148 -18 -199 -28v-366h-54v712h54v-300c47 10 149 30 208 30c99 0 192 -40 192 -179v-263z" />
    <glyph glyph-name="uni04BB" unicode="&#x4bb;" horiz-adv-x="530" 
d="M451 0h-51v163c0 73 -40 97 -101 97c-57 0 -113 -10 -151 -18v-242h-51v482h51v-195c38 8 104 21 160 21c87 0 143 -40 143 -140v-168z" />
    <glyph glyph-name="uni04C0" unicode="&#x4c0;" horiz-adv-x="274" 
d="M164 0h-54v712h54v-712z" />
    <glyph glyph-name="uni04CF" unicode="&#x4cf;" horiz-adv-x="241" 
d="M146 0h-51v712h51v-712z" />
    <glyph glyph-name="uni04D8" unicode="&#x4d8;" horiz-adv-x="651" 
d="M569 356c0 -173 -5 -228 -71 -294c-42 -42 -102 -68 -173 -68c-72 0 -141 31 -187 82c-42 47 -58 97 -58 172v116h435c0 144 -5 201 -55 251c-37 37 -83 55 -135 55c-96 0 -168 -61 -189 -160h-54c21 125 119 208 243 208c71 0 131 -26 173 -68c66 -66 71 -121 71 -294z
M515 316h-381v-64c0 -61 12 -102 43 -141c37 -45 92 -69 148 -69c52 0 98 18 135 55c46 46 54 98 55 219z" />
    <glyph glyph-name="afii10846" unicode="&#x4d9;" horiz-adv-x="523" 
d="M403 252c0 123 -54 190 -157 190c-57 0 -92 -17 -133 -58l-38 30c49 49 94 74 174 74c133 0 205 -86 205 -247c0 -156 -72 -247 -193 -247s-193 87 -193 235v23h335zM403 211h-284c3 -46 4 -62 17 -91c21 -51 69 -81 125 -81s104 30 125 81c12 30 14 47 17 91z" />
    <glyph glyph-name="uni04E2" unicode="&#x4e2;" horiz-adv-x="720" 
d="M610 0h-54v624l-392 -624h-54v712h54v-622l392 622h54v-712zM508 800h-296v46h296v-46z" />
    <glyph glyph-name="uni04E3" unicode="&#x4e3;" horiz-adv-x="573" 
d="M476 0h-51v408l-277 -408h-51v482h51v-408l277 408h51v-482zM434 610h-296v46h296v-46z" />
    <glyph glyph-name="uni04E8" unicode="&#x4e8;" horiz-adv-x="652" 
d="M570 356c0 -173 -5 -228 -71 -294c-42 -42 -102 -68 -173 -68s-131 26 -173 68c-66 66 -71 121 -71 294s5 228 71 294c42 42 102 68 173 68s131 -26 173 -68c66 -66 71 -121 71 -294zM516 335h-380c0 -134 6 -190 55 -238c37 -37 83 -55 135 -55s98 18 135 55
c48 48 54 104 55 238zM516 383c-1 130 -7 184 -55 232c-37 37 -83 55 -135 55s-98 -18 -135 -55c-48 -48 -55 -102 -55 -232h380z" />
    <glyph glyph-name="uni04E9" unicode="&#x4e9;" horiz-adv-x="526" 
d="M457 241c0 -69 -9 -143 -60 -194c-35 -35 -79 -53 -134 -53c-54 0 -99 18 -134 53c-51 51 -60 125 -60 194s9 143 60 194c35 35 80 53 134 53c55 0 99 -18 134 -53c51 -51 60 -125 60 -194zM363 80c37 37 42 96 43 150h-286c0 -54 5 -113 43 -150c27 -27 61 -41 100 -41
s73 14 100 41zM163 402c-33 -33 -41 -83 -43 -131h285c-1 48 -9 98 -42 131c-27 27 -61 41 -100 41s-73 -14 -100 -41z" />
    <glyph glyph-name="uni04EE" unicode="&#x4ee;" horiz-adv-x="534" 
d="M522 712l-259 -604c-28 -66 -67 -108 -134 -108h-54v48h42c53 0 77 24 101 80l31 74l-237 510h58l207 -449l187 449h58zM425 800h-296v46h296v-46z" />
    <glyph glyph-name="uni04EF" unicode="&#x4ef;" horiz-adv-x="430" 
d="M363 610h-296v46h296v-46zM416 482l-224 -613c-9 -26 -20 -45 -33 -56c-24 -23 -59 -31 -91 -31h-24v45h19c55 0 71 18 88 66l39 107l-176 482h56l145 -422l145 422h56z" />
    <glyph glyph-name="Wgrave" unicode="&#x1e80;" horiz-adv-x="842" 
d="M822 712l-178 -712h-55l-168 620l-168 -620h-55l-178 712h57l150 -619l166 619h56l166 -619l150 619h57zM447 780h-58l-106 147h67z" />
    <glyph glyph-name="wgrave" unicode="&#x1e81;" horiz-adv-x="712" 
d="M698 482l-154 -482h-52l-136 402l-136 -402h-52l-154 482h56l123 -422l138 422h50l138 -422l123 422h56zM387 590h-58l-106 147h67z" />
    <glyph glyph-name="Wacute" unicode="&#x1e82;" horiz-adv-x="842" 
d="M822 712l-178 -712h-55l-168 620l-168 -620h-55l-178 712h57l150 -619l166 619h56l166 -619l150 619h57zM558 927l-106 -147h-58l97 147h67z" />
    <glyph glyph-name="wacute" unicode="&#x1e83;" horiz-adv-x="712" 
d="M698 482l-154 -482h-52l-136 402l-136 -402h-52l-154 482h56l123 -422l138 422h50l138 -422l123 422h56zM490 737l-106 -147h-58l97 147h67z" />
    <glyph glyph-name="Wdieresis" unicode="&#x1e84;" horiz-adv-x="842" 
d="M822 712l-178 -712h-55l-168 620l-168 -620h-55l-178 712h57l150 -619l166 619h56l166 -619l150 619h57zM345 790h-58v77h58v-77zM553 790h-58v77h58v-77z" />
    <glyph glyph-name="wdieresis" unicode="&#x1e85;" horiz-adv-x="712" 
d="M698 482l-154 -482h-52l-136 402l-136 -402h-52l-154 482h56l123 -422l138 422h50l138 -422l123 422h56zM281 600h-58v77h58v-77zM489 600h-58v77h58v-77z" />
    <glyph glyph-name="uni1E8A" unicode="&#x1e8a;" horiz-adv-x="532" 
d="M514 0h-63l-186 317l-186 -317h-61l218 365l-204 347h63l170 -299l171 299h62l-204 -347zM296 800h-62v63h62v-63z" />
    <glyph glyph-name="uni1E8B" unicode="&#x1e8b;" horiz-adv-x="460" 
d="M420 0h-62l-127 203l-129 -203h-62l163 246l-156 236h62l122 -194l120 194h62l-156 -236zM262 610h-62v63h62v-63z" />
    <glyph glyph-name="Ygrave" unicode="&#x1ef2;" horiz-adv-x="494" 
d="M484 712l-210 -417v-295h-54v295l-210 417h58l181 -360l177 360h58zM283 780h-58l-106 147h67z" />
    <glyph glyph-name="ygrave" unicode="&#x1ef3;" horiz-adv-x="430" 
d="M416 482l-224 -613c-9 -26 -20 -45 -33 -56c-24 -23 -59 -31 -91 -31h-24v45h19c55 0 71 18 88 66l39 107l-176 482h56l145 -422l145 422h56zM237 590h-58l-106 147h67z" />
    <glyph glyph-name="uni2007" unicode="&#x2007;" 
 />
    <glyph glyph-name="uni2008" unicode="&#x2008;" horiz-adv-x="264" 
 />
    <glyph glyph-name="uni200B" unicode="&#x200b;" horiz-adv-x="0" 
 />
    <glyph glyph-name="uniFEFF" unicode="&#xfeff;" horiz-adv-x="0" 
 />
    <glyph glyph-name="endash" unicode="&#x2013;" 
d="M461 240h-408v47h408v-47z" />
    <glyph glyph-name="emdash" unicode="&#x2014;" horiz-adv-x="873" 
d="M791 240h-709v47h709v-47z" />
    <glyph glyph-name="afii00208" unicode="&#x2015;" horiz-adv-x="873" 
d="M791 240h-709v47h709v-47z" />
    <glyph glyph-name="quoteleft" unicode="&#x2018;" horiz-adv-x="260" 
d="M165 642h-70v70l70 70v-140z" />
    <glyph glyph-name="quoteright" unicode="&#x2019;" horiz-adv-x="260" 
d="M165 642l-70 -70v140h70v-70z" />
    <glyph glyph-name="quotesinglbase" unicode="&#x201a;" horiz-adv-x="260" 
d="M165 0l-70 -70v140h70v-70z" />
    <glyph glyph-name="quotedblleft" unicode="&#x201c;" horiz-adv-x="416" 
d="M165 642h-70v70l70 70v-140zM321 642h-70v70l70 70v-140z" />
    <glyph glyph-name="quotedblright" unicode="&#x201d;" horiz-adv-x="416" 
d="M165 642l-70 -70v140h70v-70zM321 642l-70 -70v140h70v-70z" />
    <glyph glyph-name="quotedblbase" unicode="&#x201e;" horiz-adv-x="416" 
d="M165 0l-70 -70v140h70v-70zM321 0l-70 -70v140h70v-70z" />
    <glyph glyph-name="dagger" unicode="&#x2020;" horiz-adv-x="614" 
d="M534 457h-203v-457h-51v457h-200v45h200v210h51v-210h203v-45z" />
    <glyph glyph-name="daggerdbl" unicode="&#x2021;" horiz-adv-x="614" 
d="M534 -20h-203v-210h-51v210h-200v45h200v432h-200v45h200v210h51v-210h203v-45h-203v-432h203v-45z" />
    <glyph glyph-name="bullet" unicode="&#x2022;" horiz-adv-x="546" 
d="M436 334c0 -90 -73 -163 -163 -163s-163 73 -163 163s73 163 163 163s163 -73 163 -163z" />
    <glyph glyph-name="ellipsis" unicode="&#x2026;" horiz-adv-x="724" 
d="M95 0v74h74v-74h-74zM325 0v74h74v-74h-74zM555 0v74h74v-74h-74z" />
    <glyph glyph-name="perthousand" unicode="&#x2030;" horiz-adv-x="1168" 
d="M288 480v103c0 60 -24 98 -87 98s-88 -38 -88 -98v-103c0 -60 25 -97 88 -97s87 37 87 97zM332 478c0 -80 -53 -133 -131 -133s-132 53 -132 133v107c0 80 54 134 132 134s131 -54 131 -134v-107zM271 0h-45l332 712h45zM715 128v103c0 60 -24 98 -87 98s-88 -38 -88 -98
v-103c0 -60 25 -97 88 -97s87 37 87 97zM759 126c0 -80 -53 -133 -131 -133s-132 53 -132 133v107c0 80 54 134 132 134s131 -54 131 -134v-107zM1055 128v103c0 60 -24 98 -87 98s-88 -38 -88 -98v-103c0 -60 25 -97 88 -97s87 37 87 97zM1099 126
c0 -80 -53 -133 -131 -133s-132 53 -132 133v107c0 80 54 134 132 134s131 -54 131 -134v-107z" />
    <glyph glyph-name="guilsinglleft" unicode="&#x2039;" horiz-adv-x="320" 
d="M238 69l-196 196l196 196v-66l-130 -130l130 -130v-66z" />
    <glyph glyph-name="guilsinglright" unicode="&#x203a;" horiz-adv-x="320" 
d="M278 265l-196 -196v66l130 130l-130 130v66z" />
    <glyph glyph-name="fraction" unicode="&#x2044;" horiz-adv-x="177" 
d="M277 712l-332 -712h-45l332 712h45z" />
    <glyph glyph-name="uni2070" unicode="&#x2070;" horiz-adv-x="313" 
d="M274 399c0 -71 -50 -118 -117 -118s-117 47 -117 118v199c0 71 50 118 117 118s117 -47 117 -118v-199zM230 401v195c0 46 -26 81 -73 81s-73 -34 -73 -81v-195c0 -47 26 -80 73 -80s73 34 73 80z" />
    <glyph glyph-name="uni2074" unicode="&#x2074;" horiz-adv-x="313" 
d="M290 352h-52v-67h-44v67h-170v40l154 320h47l-153 -320h122v120h44v-120h52v-40z" />
    <glyph glyph-name="uni2075" unicode="&#x2075;" horiz-adv-x="313" 
d="M278 426c0 -43 -4 -83 -34 -113c-20 -20 -49 -32 -86 -32c-38 0 -67 11 -86 30c-20 20 -28 46 -30 75h44c5 -42 27 -65 72 -65c21 0 40 6 53 19c22 22 23 55 23 86c0 52 -12 103 -72 103c-37 0 -62 -16 -70 -42h-40v225h216v-40h-176v-133c16 18 42 28 76 28
c32 0 57 -9 74 -26c31 -32 36 -75 36 -115z" />
    <glyph glyph-name="uni2076" unicode="&#x2076;" horiz-adv-x="313" 
d="M276 408c0 -73 -45 -127 -118 -127s-119 50 -119 124c0 29 7 55 26 95l105 212h46l-95 -191c13 6 28 8 44 8c66 0 111 -51 111 -121zM232 406c0 47 -26 86 -75 86c-45 0 -74 -33 -74 -86c0 -52 29 -85 74 -85s75 33 75 85z" />
    <glyph glyph-name="uni2077" unicode="&#x2077;" horiz-adv-x="313" 
d="M283 673l-148 -388h-44l148 387h-151v-71h-43v111h238v-39z" />
    <glyph glyph-name="uni2078" unicode="&#x2078;" horiz-adv-x="313" 
d="M283 403c0 -73 -55 -122 -126 -122s-126 49 -126 122c0 50 28 84 64 104c-34 19 -56 50 -56 94c0 66 50 115 118 115s118 -49 118 -115c0 -44 -21 -75 -56 -94c36 -20 64 -54 64 -104zM239 403c0 47 -35 83 -82 83s-82 -36 -82 -83s35 -82 82 -82s82 35 82 82zM231 601
c0 44 -29 75 -74 75s-74 -31 -74 -75s30 -76 74 -76s74 32 74 76z" />
    <glyph glyph-name="uni2079" unicode="&#x2079;" horiz-adv-x="313" 
d="M275 592c0 -30 -8 -56 -27 -94l-105 -213h-46l96 191c-13 -5 -29 -8 -45 -8c-67 0 -111 51 -111 121c0 73 46 127 119 127s119 -50 119 -124zM231 591c0 52 -29 85 -75 85s-75 -33 -75 -85c0 -47 26 -86 75 -86c45 0 75 33 75 86z" />
    <glyph glyph-name="uni2080" unicode="&#x2080;" horiz-adv-x="313" 
d="M274 -36c0 -71 -50 -118 -117 -118s-117 47 -117 118v199c0 71 50 118 117 118s117 -47 117 -118v-199zM230 -34v195c0 46 -26 81 -73 81s-73 -34 -73 -81v-195c0 -47 26 -80 73 -80s73 34 73 80z" />
    <glyph glyph-name="uni2081" unicode="&#x2081;" horiz-adv-x="313" 
d="M196 -150h-44v378l-80 -71v51l80 69h44v-427z" />
    <glyph glyph-name="uni2082" unicode="&#x2082;" horiz-adv-x="313" 
d="M280 -150h-236v40l168 213c15 20 23 41 23 62c0 47 -26 76 -73 76c-39 0 -74 -20 -74 -76h-44c0 68 46 116 118 116c71 0 118 -44 118 -116c0 -35 -10 -56 -34 -87l-149 -188h183v-40z" />
    <glyph glyph-name="uni2083" unicode="&#x2083;" horiz-adv-x="313" 
d="M287 -32c0 -79 -55 -122 -125 -122c-68 0 -124 37 -127 114h45c3 -53 41 -74 82 -74c45 0 81 31 81 82c0 50 -27 81 -84 81h-8v39h8c50 0 76 29 76 76c0 50 -35 77 -74 77c-45 0 -72 -27 -76 -70h-44c5 69 55 110 120 110c71 0 118 -45 118 -116c0 -46 -19 -77 -57 -94
c43 -16 65 -50 65 -103z" />
    <glyph glyph-name="uni2084" unicode="&#x2084;" horiz-adv-x="313" 
d="M290 -83h-52v-67h-44v67h-170v40l154 320h47l-153 -320h122v120h44v-120h52v-40z" />
    <glyph glyph-name="uni2085" unicode="&#x2085;" horiz-adv-x="313" 
d="M278 -9c0 -43 -4 -83 -34 -113c-20 -20 -49 -32 -86 -32c-38 0 -67 11 -86 30c-20 20 -28 46 -30 75h44c5 -42 27 -65 72 -65c21 0 40 6 53 19c22 22 23 55 23 86c0 52 -12 103 -72 103c-37 0 -62 -16 -70 -42h-40v225h216v-40h-176v-133c16 18 42 28 76 28
c32 0 57 -9 74 -26c31 -32 36 -75 36 -115z" />
    <glyph glyph-name="uni2086" unicode="&#x2086;" horiz-adv-x="313" 
d="M276 -27c0 -73 -45 -127 -118 -127s-119 50 -119 124c0 29 7 55 26 95l105 212h46l-95 -191c13 6 28 8 44 8c66 0 111 -51 111 -121zM232 -29c0 47 -26 86 -75 86c-45 0 -74 -33 -74 -86c0 -52 29 -85 74 -85s75 33 75 85z" />
    <glyph glyph-name="uni2087" unicode="&#x2087;" horiz-adv-x="313" 
d="M283 238l-148 -388h-44l148 387h-151v-71h-43v111h238v-39z" />
    <glyph glyph-name="uni2088" unicode="&#x2088;" horiz-adv-x="313" 
d="M283 -32c0 -73 -55 -122 -126 -122s-126 49 -126 122c0 50 28 84 64 104c-34 19 -56 50 -56 94c0 66 50 115 118 115s118 -49 118 -115c0 -44 -21 -75 -56 -94c36 -20 64 -54 64 -104zM239 -32c0 47 -35 83 -82 83s-82 -36 -82 -83s35 -82 82 -82s82 35 82 82zM231 166
c0 44 -29 75 -74 75s-74 -31 -74 -75s30 -76 74 -76s74 32 74 76z" />
    <glyph glyph-name="uni2089" unicode="&#x2089;" horiz-adv-x="313" 
d="M275 157c0 -30 -8 -56 -27 -94l-105 -213h-46l96 191c-13 -5 -29 -8 -45 -8c-67 0 -111 51 -111 121c0 73 46 127 119 127s119 -50 119 -124zM231 156c0 52 -29 85 -75 85s-75 -33 -75 -85c0 -47 26 -86 75 -86c45 0 75 33 75 86z" />
    <glyph glyph-name="Euro" unicode="&#x20ac;" horiz-adv-x="676" 
d="M600 202c-24 -128 -116 -208 -242 -208c-71 0 -131 26 -173 68c-53 53 -67 99 -70 206h-65v38h64v106h-64v38h65c3 102 18 148 70 200c42 42 102 68 173 68c128 0 218 -80 242 -208h-55c-21 99 -91 160 -187 160c-52 0 -98 -18 -135 -55c-39 -39 -50 -82 -54 -165h244
v-38h-245v-106h245v-38h-244c3 -88 14 -132 54 -171c37 -37 83 -55 135 -55c96 0 168 61 189 160h53z" />
    <glyph glyph-name="uni20B4" unicode="&#x20b4;" horiz-adv-x="651" 
d="M601 412h-77c-6 -8 -13 -15 -21 -21c-31 -27 -73 -43 -127 -51l-83 -13c-39 -6 -62 -11 -80 -21h388v-38h-430c-14 -21 -20 -48 -20 -79c0 -93 70 -147 183 -147c85 0 138 20 202 84l38 -38c-65 -65 -132 -94 -237 -94c-149 0 -240 77 -240 197c0 28 5 54 15 77h-62v38
h86c7 8 14 15 22 22c33 28 61 39 127 49l83 13c26 4 51 11 72 22h-390v38h437c13 19 19 45 19 75c0 91 -61 147 -165 147c-84 0 -131 -26 -173 -66l-35 35c61 53 117 77 205 77c137 0 221 -76 221 -195c0 -28 -5 -52 -13 -73h55v-38z" />
    <glyph glyph-name="afii61352" unicode="&#x2116;" horiz-adv-x="940" 
d="M548 0h-51l-361 616v-616h-51v712h51l361 -614v614h51v-712zM834 542c0 38 -2 84 -25 107c-15 15 -36 24 -60 24s-45 -9 -60 -24c-23 -23 -25 -69 -25 -107s2 -84 25 -107c15 -15 36 -24 60 -24s45 9 60 24c23 23 25 69 25 107zM881 542c0 -51 -6 -104 -41 -139
c-23 -23 -53 -35 -91 -35s-68 12 -91 35c-35 35 -41 88 -41 139s6 104 41 139c23 23 53 35 91 35s68 -12 91 -35c35 -35 41 -88 41 -139zM879 285h-262v44h262v-44z" />
    <glyph glyph-name="trademark" unicode="&#x2122;" horiz-adv-x="809" 
d="M753 285h-44v328l-110 -218h-46l-110 218v-328h-44v427h44l133 -270l133 270h44v-427zM320 671h-122v-386h-44v386h-122v41h288v-41z" />
    <glyph glyph-name="Omega" unicode="&#x2126;" horiz-adv-x="652" 
d="M570 356c0 -114 -1 -187 -29 -238c-14 -26 -32 -47 -62 -71h91v-47h-186v47c46 22 79 45 105 88c25 41 27 114 27 221c0 150 -4 208 -55 259c-37 37 -83 55 -135 55s-98 -18 -135 -55c-51 -51 -55 -109 -55 -259c0 -107 2 -180 27 -221c26 -43 59 -66 105 -88v-47h-186
v47h91c-30 24 -48 45 -62 71c-28 51 -29 124 -29 238c0 173 5 228 71 294c42 42 102 68 173 68s131 -26 173 -68c66 -66 71 -121 71 -294z" />
    <glyph glyph-name="uni2150" unicode="&#x2150;" horiz-adv-x="803" 
d="M196 285h-44v378l-80 -71v51l80 69h44v-427zM590 712l-332 -712h-45l332 712h45zM773 388l-148 -388h-44l148 387h-151v-71h-43v111h238v-39z" />
    <glyph glyph-name="uni2151" unicode="&#x2151;" horiz-adv-x="803" 
d="M196 285h-44v378l-80 -71v51l80 69h44v-427zM590 712l-332 -712h-45l332 712h45zM765 307c0 -30 -8 -56 -27 -94l-105 -213h-46l96 191c-13 -5 -29 -8 -45 -8c-67 0 -111 51 -111 121c0 73 46 127 119 127s119 -50 119 -124zM721 306c0 52 -29 85 -75 85s-75 -33 -75 -85
c0 -47 26 -86 75 -86c45 0 75 33 75 86z" />
    <glyph glyph-name="uni2152" unicode="&#x2152;" horiz-adv-x="1116" 
d="M196 285h-44v378l-80 -71v51l80 69h44v-427zM590 712l-332 -712h-45l332 712h45zM686 0h-44v378l-80 -71v51l80 69h44v-427zM1077 114c0 -71 -50 -118 -117 -118s-117 47 -117 118v199c0 71 50 118 117 118s117 -47 117 -118v-199zM1033 116v195c0 46 -26 81 -73 81
s-73 -34 -73 -81v-195c0 -47 26 -80 73 -80s73 34 73 80z" />
    <glyph glyph-name="onethird" unicode="&#x2153;" horiz-adv-x="803" 
d="M196 285h-44v378l-80 -71v51l80 69h44v-427zM590 712l-332 -712h-45l332 712h45zM772 118c0 -79 -55 -122 -125 -122c-68 0 -124 37 -127 114h45c3 -53 41 -74 82 -74c45 0 81 31 81 82c0 50 -27 81 -84 81h-8v39h8c50 0 76 29 76 76c0 50 -35 77 -74 77
c-45 0 -72 -27 -76 -70h-44c5 69 55 110 120 110c71 0 118 -45 118 -116c0 -46 -19 -77 -57 -94c43 -16 65 -50 65 -103z" />
    <glyph glyph-name="twothirds" unicode="&#x2154;" horiz-adv-x="803" 
d="M280 285h-236v40l168 213c15 20 23 41 23 62c0 47 -26 76 -73 76c-39 0 -74 -20 -74 -76h-44c0 68 46 116 118 116c71 0 118 -44 118 -116c0 -35 -10 -56 -34 -87l-149 -188h183v-40zM590 712l-332 -712h-45l332 712h45zM772 118c0 -79 -55 -122 -125 -122
c-68 0 -124 37 -127 114h45c3 -53 41 -74 82 -74c45 0 81 31 81 82c0 50 -27 81 -84 81h-8v39h8c50 0 76 29 76 76c0 50 -35 77 -74 77c-45 0 -72 -27 -76 -70h-44c5 69 55 110 120 110c71 0 118 -45 118 -116c0 -46 -19 -77 -57 -94c43 -16 65 -50 65 -103z" />
    <glyph glyph-name="uni2155" unicode="&#x2155;" horiz-adv-x="803" 
d="M196 285h-44v378l-80 -71v51l80 69h44v-427zM590 712l-332 -712h-45l332 712h45zM768 141c0 -43 -4 -83 -34 -113c-20 -20 -49 -32 -86 -32c-38 0 -67 11 -86 30c-20 20 -28 46 -30 75h44c5 -42 27 -65 72 -65c21 0 40 6 53 19c22 22 23 55 23 86c0 52 -12 103 -72 103
c-37 0 -62 -16 -70 -42h-40v225h216v-40h-176v-133c16 18 42 28 76 28c32 0 57 -9 74 -26c31 -32 36 -75 36 -115z" />
    <glyph glyph-name="uni2156" unicode="&#x2156;" horiz-adv-x="803" 
d="M280 285h-236v40l168 213c15 20 23 41 23 62c0 47 -26 76 -73 76c-39 0 -74 -20 -74 -76h-44c0 68 46 116 118 116c71 0 118 -44 118 -116c0 -35 -10 -56 -34 -87l-149 -188h183v-40zM590 712l-332 -712h-45l332 712h45zM768 141c0 -43 -4 -83 -34 -113
c-20 -20 -49 -32 -86 -32c-38 0 -67 11 -86 30c-20 20 -28 46 -30 75h44c5 -42 27 -65 72 -65c21 0 40 6 53 19c22 22 23 55 23 86c0 52 -12 103 -72 103c-37 0 -62 -16 -70 -42h-40v225h216v-40h-176v-133c16 18 42 28 76 28c32 0 57 -9 74 -26c31 -32 36 -75 36 -115z" />
    <glyph glyph-name="uni2157" unicode="&#x2157;" horiz-adv-x="803" 
d="M282 403c0 -79 -55 -122 -125 -122c-68 0 -124 37 -127 114h45c3 -53 41 -74 82 -74c45 0 81 31 81 82c0 50 -27 81 -84 81h-8v39h8c50 0 76 29 76 76c0 50 -35 77 -74 77c-45 0 -72 -27 -76 -70h-44c5 69 55 110 120 110c71 0 118 -45 118 -116c0 -46 -19 -77 -57 -94
c43 -16 65 -50 65 -103zM590 712l-332 -712h-45l332 712h45zM768 141c0 -43 -4 -83 -34 -113c-20 -20 -49 -32 -86 -32c-38 0 -67 11 -86 30c-20 20 -28 46 -30 75h44c5 -42 27 -65 72 -65c21 0 40 6 53 19c22 22 23 55 23 86c0 52 -12 103 -72 103c-37 0 -62 -16 -70 -42
h-40v225h216v-40h-176v-133c16 18 42 28 76 28c32 0 57 -9 74 -26c31 -32 36 -75 36 -115z" />
    <glyph glyph-name="uni2158" unicode="&#x2158;" horiz-adv-x="803" 
d="M290 352h-52v-67h-44v67h-170v40l154 320h47l-153 -320h122v120h44v-120h52v-40zM590 712l-332 -712h-45l332 712h45zM768 141c0 -43 -4 -83 -34 -113c-20 -20 -49 -32 -86 -32c-38 0 -67 11 -86 30c-20 20 -28 46 -30 75h44c5 -42 27 -65 72 -65c21 0 40 6 53 19
c22 22 23 55 23 86c0 52 -12 103 -72 103c-37 0 -62 -16 -70 -42h-40v225h216v-40h-176v-133c16 18 42 28 76 28c32 0 57 -9 74 -26c31 -32 36 -75 36 -115z" />
    <glyph glyph-name="uni2159" unicode="&#x2159;" horiz-adv-x="803" 
d="M196 285h-44v378l-80 -71v51l80 69h44v-427zM590 712l-332 -712h-45l332 712h45zM766 123c0 -73 -45 -127 -118 -127s-119 50 -119 124c0 29 7 55 26 95l105 212h46l-95 -191c13 6 28 8 44 8c66 0 111 -51 111 -121zM722 121c0 47 -26 86 -75 86c-45 0 -74 -33 -74 -86
c0 -52 29 -85 74 -85s75 33 75 85z" />
    <glyph glyph-name="uni215A" unicode="&#x215a;" horiz-adv-x="803" 
d="M278 426c0 -43 -4 -83 -34 -113c-20 -20 -49 -32 -86 -32c-38 0 -67 11 -86 30c-20 20 -28 46 -30 75h44c5 -42 27 -65 72 -65c21 0 40 6 53 19c22 22 23 55 23 86c0 52 -12 103 -72 103c-37 0 -62 -16 -70 -42h-40v225h216v-40h-176v-133c16 18 42 28 76 28
c32 0 57 -9 74 -26c31 -32 36 -75 36 -115zM590 712l-332 -712h-45l332 712h45zM766 123c0 -73 -45 -127 -118 -127s-119 50 -119 124c0 29 7 55 26 95l105 212h46l-95 -191c13 6 28 8 44 8c66 0 111 -51 111 -121zM722 121c0 47 -26 86 -75 86c-45 0 -74 -33 -74 -86
c0 -52 29 -85 74 -85s75 33 75 85z" />
    <glyph glyph-name="oneeighth" unicode="&#x215b;" horiz-adv-x="803" 
d="M196 285h-44v378l-80 -71v51l80 69h44v-427zM590 712l-332 -712h-45l332 712h45zM773 118c0 -73 -55 -122 -126 -122s-126 49 -126 122c0 50 28 84 64 104c-34 19 -56 50 -56 94c0 66 50 115 118 115s118 -49 118 -115c0 -44 -21 -75 -56 -94c36 -20 64 -54 64 -104z
M729 118c0 47 -35 83 -82 83s-82 -36 -82 -83s35 -82 82 -82s82 35 82 82zM721 316c0 44 -29 75 -74 75s-74 -31 -74 -75s30 -76 74 -76s74 32 74 76z" />
    <glyph glyph-name="threeeighths" unicode="&#x215c;" horiz-adv-x="803" 
d="M282 403c0 -79 -55 -122 -125 -122c-68 0 -124 37 -127 114h45c3 -53 41 -74 82 -74c45 0 81 31 81 82c0 50 -27 81 -84 81h-8v39h8c50 0 76 29 76 76c0 50 -35 77 -74 77c-45 0 -72 -27 -76 -70h-44c5 69 55 110 120 110c71 0 118 -45 118 -116c0 -46 -19 -77 -57 -94
c43 -16 65 -50 65 -103zM590 712l-332 -712h-45l332 712h45zM773 118c0 -73 -55 -122 -126 -122s-126 49 -126 122c0 50 28 84 64 104c-34 19 -56 50 -56 94c0 66 50 115 118 115s118 -49 118 -115c0 -44 -21 -75 -56 -94c36 -20 64 -54 64 -104zM729 118
c0 47 -35 83 -82 83s-82 -36 -82 -83s35 -82 82 -82s82 35 82 82zM721 316c0 44 -29 75 -74 75s-74 -31 -74 -75s30 -76 74 -76s74 32 74 76z" />
    <glyph glyph-name="fiveeighths" unicode="&#x215d;" horiz-adv-x="803" 
d="M278 426c0 -43 -4 -83 -34 -113c-20 -20 -49 -32 -86 -32c-38 0 -67 11 -86 30c-20 20 -28 46 -30 75h44c5 -42 27 -65 72 -65c21 0 40 6 53 19c22 22 23 55 23 86c0 52 -12 103 -72 103c-37 0 -62 -16 -70 -42h-40v225h216v-40h-176v-133c16 18 42 28 76 28
c32 0 57 -9 74 -26c31 -32 36 -75 36 -115zM590 712l-332 -712h-45l332 712h45zM773 118c0 -73 -55 -122 -126 -122s-126 49 -126 122c0 50 28 84 64 104c-34 19 -56 50 -56 94c0 66 50 115 118 115s118 -49 118 -115c0 -44 -21 -75 -56 -94c36 -20 64 -54 64 -104zM729 118
c0 47 -35 83 -82 83s-82 -36 -82 -83s35 -82 82 -82s82 35 82 82zM721 316c0 44 -29 75 -74 75s-74 -31 -74 -75s30 -76 74 -76s74 32 74 76z" />
    <glyph glyph-name="seveneighths" unicode="&#x215e;" horiz-adv-x="803" 
d="M283 673l-148 -388h-44l148 387h-151v-71h-43v111h238v-39zM590 712l-332 -712h-45l332 712h45zM773 118c0 -73 -55 -122 -126 -122s-126 49 -126 122c0 50 28 84 64 104c-34 19 -56 50 -56 94c0 66 50 115 118 115s118 -49 118 -115c0 -44 -21 -75 -56 -94
c36 -20 64 -54 64 -104zM729 118c0 47 -35 83 -82 83s-82 -36 -82 -83s35 -82 82 -82s82 35 82 82zM721 316c0 44 -29 75 -74 75s-74 -31 -74 -75s30 -76 74 -76s74 32 74 76z" />
    <glyph glyph-name="uni215F" unicode="&#x215f;" horiz-adv-x="490" 
d="M196 285h-44v378l-80 -71v51l80 69h44v-427zM590 712l-332 -712h-45l332 712h45z" />
    <glyph glyph-name="uni2189" unicode="&#x2189;" horiz-adv-x="803" 
d="M274 399c0 -71 -50 -118 -117 -118s-117 47 -117 118v199c0 71 50 118 117 118s117 -47 117 -118v-199zM230 401v195c0 46 -26 81 -73 81s-73 -34 -73 -81v-195c0 -47 26 -80 73 -80s73 34 73 80zM590 712l-332 -712h-45l332 712h45zM772 118c0 -79 -55 -122 -125 -122
c-68 0 -124 37 -127 114h45c3 -53 41 -74 82 -74c45 0 81 31 81 82c0 50 -27 81 -84 81h-8v39h8c50 0 76 29 76 76c0 50 -35 77 -74 77c-45 0 -72 -27 -76 -70h-44c5 69 55 110 120 110c71 0 118 -45 118 -116c0 -46 -19 -77 -57 -94c43 -16 65 -50 65 -103z" />
    <glyph glyph-name="arrowleft" unicode="&#x2190;" horiz-adv-x="1027" 
d="M971 238h-819l379 -379h-69l-404 404l404 404h69l-379 -379h819v-50z" />
    <glyph glyph-name="arrowup" unicode="&#x2191;" horiz-adv-x="1027" 
d="M918 247l-379 379v-819h-50v819l-379 -379v69l404 404l404 -404v-69z" />
    <glyph glyph-name="arrowright" unicode="&#x2192;" horiz-adv-x="1027" 
d="M971 263l-404 -404h-69l379 379h-819v50h819l-379 379h69z" />
    <glyph glyph-name="arrowdown" unicode="&#x2193;" horiz-adv-x="1027" 
d="M918 211l-404 -404l-404 404v69l379 -379v819h50v-819l379 379v-69z" />
    <glyph glyph-name="uni2196" unicode="&#x2196;" horiz-adv-x="1027" 
d="M854 -42l-35 -35l-580 579v-536l-48 48v572h571l49 -49h-536z" />
    <glyph glyph-name="uni2197" unicode="&#x2197;" horiz-adv-x="1027" 
d="M836 14l-48 -48v536l-580 -579l-35 35l579 579h-536l49 49h571v-572z" />
    <glyph glyph-name="uni2198" unicode="&#x2198;" horiz-adv-x="1027" 
d="M836 -77h-571l-49 48h536l-579 579l35 36l580 -579v536l48 -49v-571z" />
    <glyph glyph-name="uni2199" unicode="&#x2199;" horiz-adv-x="1027" 
d="M854 550l-579 -579h536l-49 -48h-571v571l48 49v-536l580 579z" />
    <glyph glyph-name="partialdiff" unicode="&#x2202;" horiz-adv-x="540" 
d="M443 241c0 -69 -9 -143 -58 -194c-33 -34 -77 -53 -129 -53s-96 19 -129 53c-49 51 -58 125 -58 194c0 76 9 148 58 197c27 27 70 50 122 50c54 0 101 -12 143 -68v86c0 95 -45 167 -146 167c-61 0 -87 -19 -125 -53l-33 33c51 45 86 65 158 65c126 0 197 -85 197 -209
v-268zM392 241c0 56 -3 121 -41 161c-25 26 -58 41 -95 41s-70 -15 -95 -41c-38 -40 -41 -105 -41 -161s3 -121 41 -161c25 -26 58 -41 95 -41s70 15 95 41c38 40 41 105 41 161z" />
    <glyph glyph-name="Delta" unicode="&#x2206;" horiz-adv-x="591" 
d="M581 0h-571l262 712h47zM511 48l-216 592l-215 -592h431z" />
    <glyph glyph-name="product" unicode="&#x220f;" horiz-adv-x="699" 
d="M589 -230h-54v942h-371v-942h-54v990h479v-990z" />
    <glyph glyph-name="summation" unicode="&#x2211;" horiz-adv-x="551" 
d="M495 -230h-432v48l207 461l-207 433v48h432v-48h-371l195 -409v-48l-195 -437h371v-48z" />
    <glyph glyph-name="minus" unicode="&#x2212;" 
d="M461 240h-408v47h408v-47z" />
    <glyph glyph-name="uni2219" unicode="&#x2219;" 
d="M420 334c0 -90 -73 -163 -163 -163s-163 73 -163 163s73 163 163 163s163 -73 163 -163z" />
    <glyph glyph-name="radical" unicode="&#x221a;" horiz-adv-x="550" 
d="M520 664h-88l-217 -664h-46l-159 482h56l126 -387l199 617h129v-48z" />
    <glyph glyph-name="infinity" unicode="&#x221e;" horiz-adv-x="792" 
d="M720 260c0 -85 -61 -148 -147 -148c-69 0 -115 31 -177 108c-62 -77 -109 -109 -176 -109c-86 0 -148 64 -148 149s62 150 148 150c65 0 114 -33 176 -110c62 77 107 110 177 110c86 0 147 -65 147 -150zM366 260c-52 63 -89 105 -143 105c-61 0 -103 -44 -103 -105
s42 -102 103 -102c54 0 91 39 143 102zM672 260c0 61 -42 103 -103 103c-54 0 -91 -40 -143 -103c52 -63 89 -102 143 -102c61 0 103 41 103 102z" />
    <glyph glyph-name="integral" unicode="&#x222b;" horiz-adv-x="329" 
d="M299 667h-35c-51 0 -74 -30 -74 -80v-691c0 -73 -40 -126 -116 -126h-44v45h35c51 0 74 30 74 80v691c0 73 40 126 116 126h44v-45z" />
    <glyph glyph-name="approxequal" unicode="&#x2248;" 
d="M461 357c-54 -54 -77 -62 -116 -62c-33 0 -66 16 -102 31c-28 12 -50 23 -76 23c-28 0 -43 -5 -83 -45l-31 31c54 54 77 62 116 62c33 0 66 -16 102 -31c28 -12 50 -23 76 -23c28 0 43 5 83 45zM461 197c-54 -54 -77 -62 -116 -62c-33 0 -66 16 -102 31
c-28 12 -50 23 -76 23c-28 0 -43 -5 -83 -45l-31 31c54 54 77 62 116 62c33 0 66 -16 102 -31c28 -12 50 -23 76 -23c28 0 43 5 83 45z" />
    <glyph glyph-name="notequal" unicode="&#x2260;" 
d="M461 163h-271l-104 -104l-33 33l71 71h-71v47h118l106 106h-224v47h271l104 104l33 -33l-71 -71h71v-47h-118l-106 -106h224v-47z" />
    <glyph glyph-name="lessequal" unicode="&#x2264;" 
d="M409 119l-304 161v48l304 161v-55l-254 -130l254 -130v-55zM409 -6l-304 161v55l304 -161v-55z" />
    <glyph glyph-name="greaterequal" unicode="&#x2265;" 
d="M409 280l-304 -161v55l254 130l-254 130v55l304 -161v-48zM409 155l-304 -161v55l304 161v-55z" />
    <glyph glyph-name="dotmath" unicode="&#x22c5;" 
d="M294 227h-74v74h74v-74z" />
    <glyph glyph-name="lozenge" unicode="&#x25ca;" horiz-adv-x="654" 
d="M582 356l-255 -363l-255 363l255 363zM525 356l-198 285l-198 -285l198 -287z" />
    <glyph glyph-name="fi" unicode="&#xfb01;" horiz-adv-x="547" 
d="M272 444h-109v-444h-51v444h-66v38h66v104c0 73 40 126 116 126h44v-45h-35c-51 0 -74 -29 -74 -80v-105h109v-38zM450 0h-51v482h51v-482zM456 649h-63v63h63v-63z" />
    <glyph glyph-name="fl" unicode="&#xfb02;" horiz-adv-x="586" 
d="M272 444h-109v-444h-51v444h-66v38h66v104c0 73 40 126 116 126h44v-45h-35c-51 0 -74 -29 -74 -80v-105h109v-38zM554 0h-44c-79 0 -116 49 -116 125v587h51v-586c0 -55 17 -81 74 -81h35v-45z" />
    <glyph glyph-name="i.latn_TRK" horiz-adv-x="245" 
d="M148 0h-51v482h51v-482zM154 649h-63v63h63v-63z" />
    <glyph glyph-name="Ldot.latn_CAT" horiz-adv-x="572" 
d="M542 0h-432v712h54v-664h378v-48zM459 327h-62v63h62v-63z" />
    <glyph glyph-name="ldot.latn_CAT" horiz-adv-x="293" 
d="M255 0h-44c-79 0 -116 49 -116 125v587h51v-586c0 -55 17 -81 74 -81h35v-45zM298 232h-62v63h62v-63z" />
    <glyph glyph-name="zero.numr" horiz-adv-x="313" 
d="M274 399c0 -71 -50 -118 -117 -118s-117 47 -117 118v199c0 71 50 118 117 118s117 -47 117 -118v-199zM230 401v195c0 46 -26 81 -73 81s-73 -34 -73 -81v-195c0 -47 26 -80 73 -80s73 34 73 80z" />
    <glyph glyph-name="one.numr" horiz-adv-x="313" 
d="M196 285h-44v378l-80 -71v51l80 69h44v-427z" />
    <glyph glyph-name="two.numr" horiz-adv-x="313" 
d="M280 285h-236v40l168 213c15 20 23 41 23 62c0 47 -26 76 -73 76c-39 0 -74 -20 -74 -76h-44c0 68 46 116 118 116c71 0 118 -44 118 -116c0 -35 -10 -56 -34 -87l-149 -188h183v-40z" />
    <glyph glyph-name="three.numr" horiz-adv-x="313" 
d="M282 403c0 -79 -55 -122 -125 -122c-68 0 -124 37 -127 114h45c3 -53 41 -74 82 -74c45 0 81 31 81 82c0 50 -27 81 -84 81h-8v39h8c50 0 76 29 76 76c0 50 -35 77 -74 77c-45 0 -72 -27 -76 -70h-44c5 69 55 110 120 110c71 0 118 -45 118 -116c0 -46 -19 -77 -57 -94
c43 -16 65 -50 65 -103z" />
    <glyph glyph-name="four.numr" horiz-adv-x="313" 
d="M290 352h-52v-67h-44v67h-170v40l154 320h47l-153 -320h122v120h44v-120h52v-40z" />
    <glyph glyph-name="five.numr" horiz-adv-x="313" 
d="M278 426c0 -43 -4 -83 -34 -113c-20 -20 -49 -32 -86 -32c-38 0 -67 11 -86 30c-20 20 -28 46 -30 75h44c5 -42 27 -65 72 -65c21 0 40 6 53 19c22 22 23 55 23 86c0 52 -12 103 -72 103c-37 0 -62 -16 -70 -42h-40v225h216v-40h-176v-133c16 18 42 28 76 28
c32 0 57 -9 74 -26c31 -32 36 -75 36 -115z" />
    <glyph glyph-name="six.numr" horiz-adv-x="313" 
d="M276 408c0 -73 -45 -127 -118 -127s-119 50 -119 124c0 29 7 55 26 95l105 212h46l-95 -191c13 6 28 8 44 8c66 0 111 -51 111 -121zM232 406c0 47 -26 86 -75 86c-45 0 -74 -33 -74 -86c0 -52 29 -85 74 -85s75 33 75 85z" />
    <glyph glyph-name="seven.numr" horiz-adv-x="313" 
d="M283 673l-148 -388h-44l148 387h-151v-71h-43v111h238v-39z" />
    <glyph glyph-name="eight.numr" horiz-adv-x="313" 
d="M283 403c0 -73 -55 -122 -126 -122s-126 49 -126 122c0 50 28 84 64 104c-34 19 -56 50 -56 94c0 66 50 115 118 115s118 -49 118 -115c0 -44 -21 -75 -56 -94c36 -20 64 -54 64 -104zM239 403c0 47 -35 83 -82 83s-82 -36 -82 -83s35 -82 82 -82s82 35 82 82zM231 601
c0 44 -29 75 -74 75s-74 -31 -74 -75s30 -76 74 -76s74 32 74 76z" />
    <glyph glyph-name="nine.numr" horiz-adv-x="313" 
d="M275 592c0 -30 -8 -56 -27 -94l-105 -213h-46l96 191c-13 -5 -29 -8 -45 -8c-67 0 -111 51 -111 121c0 73 46 127 119 127s119 -50 119 -124zM231 591c0 52 -29 85 -75 85s-75 -33 -75 -85c0 -47 26 -86 75 -86c45 0 75 33 75 86z" />
    <glyph glyph-name="zero.dnom" horiz-adv-x="313" 
d="M274 114c0 -71 -50 -118 -117 -118s-117 47 -117 118v199c0 71 50 118 117 118s117 -47 117 -118v-199zM230 116v195c0 46 -26 81 -73 81s-73 -34 -73 -81v-195c0 -47 26 -80 73 -80s73 34 73 80z" />
    <glyph glyph-name="one.dnom" horiz-adv-x="313" 
d="M196 0h-44v378l-80 -71v51l80 69h44v-427z" />
    <glyph glyph-name="two.dnom" horiz-adv-x="313" 
d="M280 0h-236v40l168 213c15 20 23 41 23 62c0 47 -26 76 -73 76c-39 0 -74 -20 -74 -76h-44c0 68 46 116 118 116c71 0 118 -44 118 -116c0 -35 -10 -56 -34 -87l-149 -188h183v-40z" />
    <glyph glyph-name="three.dnom" horiz-adv-x="313" 
d="M282 118c0 -79 -55 -122 -125 -122c-68 0 -124 37 -127 114h45c3 -53 41 -74 82 -74c45 0 81 31 81 82c0 50 -27 81 -84 81h-8v39h8c50 0 76 29 76 76c0 50 -35 77 -74 77c-45 0 -72 -27 -76 -70h-44c5 69 55 110 120 110c71 0 118 -45 118 -116c0 -46 -19 -77 -57 -94
c43 -16 65 -50 65 -103z" />
    <glyph glyph-name="four.dnom" horiz-adv-x="313" 
d="M290 67h-52v-67h-44v67h-170v40l154 320h47l-153 -320h122v120h44v-120h52v-40z" />
    <glyph glyph-name="five.dnom" horiz-adv-x="313" 
d="M278 141c0 -43 -4 -83 -34 -113c-20 -20 -49 -32 -86 -32c-38 0 -67 11 -86 30c-20 20 -28 46 -30 75h44c5 -42 27 -65 72 -65c21 0 40 6 53 19c22 22 23 55 23 86c0 52 -12 103 -72 103c-37 0 -62 -16 -70 -42h-40v225h216v-40h-176v-133c16 18 42 28 76 28
c32 0 57 -9 74 -26c31 -32 36 -75 36 -115z" />
    <glyph glyph-name="six.dnom" horiz-adv-x="313" 
d="M276 123c0 -73 -45 -127 -118 -127s-119 50 -119 124c0 29 7 55 26 95l105 212h46l-95 -191c13 6 28 8 44 8c66 0 111 -51 111 -121zM232 121c0 47 -26 86 -75 86c-45 0 -74 -33 -74 -86c0 -52 29 -85 74 -85s75 33 75 85z" />
    <glyph glyph-name="seven.dnom" horiz-adv-x="313" 
d="M283 388l-148 -388h-44l148 387h-151v-71h-43v111h238v-39z" />
    <glyph glyph-name="eight.dnom" horiz-adv-x="313" 
d="M283 118c0 -73 -55 -122 -126 -122s-126 49 -126 122c0 50 28 84 64 104c-34 19 -56 50 -56 94c0 66 50 115 118 115s118 -49 118 -115c0 -44 -21 -75 -56 -94c36 -20 64 -54 64 -104zM239 118c0 47 -35 83 -82 83s-82 -36 -82 -83s35 -82 82 -82s82 35 82 82zM231 316
c0 44 -29 75 -74 75s-74 -31 -74 -75s30 -76 74 -76s74 32 74 76z" />
    <glyph glyph-name="nine.dnom" horiz-adv-x="313" 
d="M275 307c0 -30 -8 -56 -27 -94l-105 -213h-46l96 191c-13 -5 -29 -8 -45 -8c-67 0 -111 51 -111 121c0 73 46 127 119 127s119 -50 119 -124zM231 306c0 52 -29 85 -75 85s-75 -33 -75 -85c0 -47 26 -86 75 -86c45 0 75 33 75 86z" />
    <glyph glyph-name="space.frac" horiz-adv-x="51" 
 />
    <glyph glyph-name="zero.osf" 
d="M444 184c0 -111 -77 -190 -187 -190s-187 79 -187 190v229c0 111 77 190 187 190s187 -79 187 -190v-229zM393 189v219c0 84 -47 150 -136 150s-136 -66 -136 -150v-219c0 -84 47 -150 136 -150s136 66 136 150z" />
    <glyph glyph-name="one.osf" horiz-adv-x="350" 
d="M230 0h-51v539l-129 -114v61l129 111h51v-597z" />
    <glyph glyph-name="two.osf" horiz-adv-x="491" 
d="M436 0h-396v45l258 258c42 42 67 89 67 143c0 73 -57 132 -136 132c-75 0 -136 -55 -136 -133h-51c0 99 78 178 187 178c114 0 187 -80 187 -177c0 -70 -33 -124 -80 -171l-230 -230h330v-45z" />
    <glyph glyph-name="three.osf" horiz-adv-x="509" 
d="M445 74c0 -127 -88 -197 -202 -197c-111 0 -196 57 -203 180h51c7 -97 78 -135 152 -135c85 0 151 57 151 152c0 96 -46 152 -155 152h-12v45h12c95 0 141 52 141 143c0 94 -61 144 -138 144c-84 0 -133 -51 -142 -130h-51c10 111 90 175 193 175c112 0 189 -75 189 -189
c0 -75 -30 -132 -101 -162c79 -27 115 -88 115 -178z" />
    <glyph glyph-name="four.osf" horiz-adv-x="523" 
d="M483 30h-95v-153h-51v153h-302v45l272 550h53l-272 -550h249v226h51v-226h95v-45z" />
    <glyph glyph-name="five.osf" horiz-adv-x="505" 
d="M437 118c0 -68 -4 -138 -55 -189c-33 -33 -78 -51 -137 -51c-58 0 -106 16 -137 48c-27 27 -44 65 -48 116h51c10 -76 51 -119 134 -119c39 0 75 13 98 36c42 42 43 106 43 159c0 89 -16 190 -133 190c-65 0 -114 -27 -129 -75h-45v364h342v-45h-297v-252
c31 36 77 53 135 53c51 0 92 -15 120 -43c50 -50 58 -125 58 -192z" />
    <glyph glyph-name="six.osf" horiz-adv-x="519" 
d="M464 219c0 -124 -74 -225 -204 -225s-205 90 -205 217c0 49 14 106 46 162l202 355h53l-183 -314c32 16 57 21 91 21c127 0 200 -95 200 -216zM413 214c0 94 -52 178 -154 178c-94 0 -153 -71 -153 -178c0 -106 59 -177 153 -177s154 71 154 177z" />
    <glyph glyph-name="seven.osf" horiz-adv-x="483" 
d="M448 552l-300 -677h-53l300 677h-299v-112h-51v157h403v-45z" />
    <glyph glyph-name="eight.osf" horiz-adv-x="526" 
d="M466 192c0 -114 -88 -198 -203 -198s-203 84 -203 198c0 82 45 142 113 178c-63 34 -98 89 -98 162c0 105 77 186 188 186s188 -81 188 -186c0 -73 -34 -128 -97 -162c68 -36 112 -96 112 -178zM415 192c0 87 -66 154 -152 154s-152 -67 -152 -154s66 -153 152 -153
s152 66 152 153zM400 532c0 82 -56 141 -137 141s-137 -59 -137 -141c0 -83 56 -141 137 -141s137 58 137 141z" />
    <glyph glyph-name="nine.osf" horiz-adv-x="519" 
d="M464 386c0 -49 -14 -106 -46 -162l-202 -355h-53l183 314c-32 -16 -57 -21 -91 -21c-127 0 -200 95 -200 216c0 124 74 225 204 225s205 -90 205 -217zM413 383c0 106 -59 177 -153 177s-154 -71 -154 -177c0 -94 52 -178 154 -178c94 0 153 71 153 178z" />
    <glyph glyph-name="zero.lf" 
d="M444 184c0 -111 -77 -190 -187 -190c-109 0 -187 79 -187 190v344c0 111 78 190 187 190c110 0 187 -79 187 -190v-344zM393 189v334c0 84 -47 150 -136 150s-136 -66 -136 -150v-334c0 -84 47 -150 136 -150s136 66 136 150z" />
    <glyph glyph-name="one.lf" horiz-adv-x="350" 
d="M230 0h-51v654l-129 -114v61l129 111h51v-712z" />
    <glyph glyph-name="two.lf" horiz-adv-x="472" 
d="M417 0h-377v45l286 375c28 36 40 70 40 111c0 85 -50 142 -137 142c-74 0 -137 -42 -137 -142h-51c0 106 71 187 188 187c114 0 188 -75 188 -187c0 -53 -13 -90 -49 -137l-267 -349h316v-45z" />
    <glyph glyph-name="three.lf" horiz-adv-x="505" 
d="M445 190c0 -127 -87 -197 -202 -197c-111 0 -195 57 -203 180h51c8 -97 77 -135 152 -135c85 0 151 57 151 152c0 96 -46 152 -155 152h-12v45h12c96 0 141 51 141 143c0 93 -61 144 -138 144c-84 0 -133 -50 -142 -130h-51c11 112 89 175 193 175
c112 0 189 -74 189 -189c0 -76 -29 -131 -101 -162c80 -27 115 -87 115 -178z" />
    <glyph glyph-name="four.lf" horiz-adv-x="503" 
d="M463 117h-95v-117h-51v117h-282v45l262 550h54l-262 -550h228v226h51v-226h95v-45z" />
    <glyph glyph-name="five.lf" horiz-adv-x="505" 
d="M437 233c0 -68 -4 -138 -55 -189c-34 -34 -80 -51 -137 -51c-59 0 -106 16 -137 48c-28 28 -44 67 -48 116h51c11 -76 50 -119 134 -119c39 0 75 13 98 36c42 42 43 105 43 159c0 89 -17 190 -133 190c-65 0 -114 -27 -129 -75h-45v364h342v-45h-297v-252
c31 35 76 53 135 53c51 0 91 -14 120 -43c51 -51 58 -125 58 -192z" />
    <glyph glyph-name="six.lf" horiz-adv-x="477" 
d="M427 201c0 -114 -68 -207 -188 -207s-189 84 -189 200c0 47 11 89 40 149l183 369h51l-164 -329c24 11 52 17 83 17c116 0 184 -88 184 -199zM376 197c0 85 -47 158 -138 158c-84 0 -137 -62 -137 -158s53 -158 137 -158s138 62 138 158z" />
    <glyph glyph-name="seven.lf" horiz-adv-x="448" 
d="M413 667l-252 -667h-52l252 667h-270v-112h-51v157h373v-45z" />
    <glyph glyph-name="eight.lf" horiz-adv-x="526" 
d="M466 192c0 -114 -88 -198 -203 -198s-203 84 -203 198c0 83 45 142 113 178c-64 35 -98 89 -98 162c0 104 77 186 188 186s188 -82 188 -186c0 -73 -32 -127 -97 -162c68 -36 112 -95 112 -178zM415 192c0 87 -66 154 -152 154s-152 -67 -152 -154
c0 -88 66 -153 152 -153s152 65 152 153zM400 532c0 83 -56 141 -137 141s-137 -58 -137 -141s56 -141 137 -141s137 58 137 141z" />
    <glyph glyph-name="nine.lf" horiz-adv-x="477" 
d="M427 518c0 -47 -11 -89 -40 -149l-183 -369h-51l164 329c-24 -11 -52 -17 -84 -17c-117 0 -183 88 -183 199c0 114 68 207 188 207s189 -84 189 -200zM376 515c0 96 -54 158 -138 158s-137 -62 -137 -158c0 -85 46 -158 137 -158c84 0 138 62 138 158z" />
    <glyph glyph-name="zero.tosf" 
d="M444 184c0 -111 -77 -190 -187 -190s-187 79 -187 190v229c0 111 77 190 187 190s187 -79 187 -190v-229zM393 189v219c0 84 -47 150 -136 150s-136 -66 -136 -150v-219c0 -84 47 -150 136 -150s136 66 136 150z" />
    <glyph glyph-name="one.tosf" 
d="M313 0h-51v539l-129 -114v61l129 111h51v-597z" />
    <glyph glyph-name="two.tosf" 
d="M460 0h-396v45l258 258c42 42 67 89 67 143c0 73 -57 132 -136 132c-75 0 -136 -55 -136 -133h-51c0 99 78 178 187 178c114 0 187 -80 187 -177c0 -70 -33 -124 -80 -171l-230 -230h330v-45z" />
    <glyph glyph-name="three.tosf" 
d="M447 74c0 -127 -88 -197 -202 -197c-111 0 -196 57 -203 180h51c7 -97 78 -135 152 -135c85 0 151 57 151 152c0 96 -46 152 -155 152h-12v45h12c95 0 141 52 141 143c0 94 -61 144 -138 144c-84 0 -133 -51 -142 -130h-51c10 111 90 175 193 175c112 0 189 -75 189 -189
c0 -75 -30 -132 -101 -162c79 -27 115 -88 115 -178z" />
    <glyph glyph-name="four.tosf" 
d="M481 30h-95v-153h-51v153h-302v45l272 550h53l-272 -550h249v226h51v-226h95v-45z" />
    <glyph glyph-name="five.tosf" 
d="M446 118c0 -68 -4 -138 -55 -189c-33 -33 -78 -51 -137 -51c-58 0 -106 16 -137 48c-27 27 -44 65 -48 116h51c10 -76 51 -119 134 -119c39 0 75 13 98 36c42 42 43 106 43 159c0 89 -16 190 -133 190c-65 0 -114 -27 -129 -75h-45v364h342v-45h-297v-252
c31 36 77 53 135 53c51 0 92 -15 120 -43c50 -50 58 -125 58 -192z" />
    <glyph glyph-name="six.tosf" 
d="M464 219c0 -124 -74 -225 -204 -225s-205 90 -205 217c0 49 14 106 46 162l202 355h53l-183 -314c32 16 57 21 91 21c127 0 200 -95 200 -216zM413 214c0 94 -52 178 -154 178c-94 0 -153 -71 -153 -178c0 -106 59 -177 153 -177s154 71 154 177z" />
    <glyph glyph-name="seven.tosf" 
d="M469 552l-300 -677h-53l300 677h-299v-112h-51v157h403v-45z" />
    <glyph glyph-name="eight.tosf" 
d="M460 192c0 -114 -88 -198 -203 -198s-203 84 -203 198c0 82 45 142 113 178c-63 34 -98 89 -98 162c0 105 77 186 188 186s188 -81 188 -186c0 -73 -34 -128 -97 -162c68 -36 112 -96 112 -178zM409 192c0 87 -66 154 -152 154s-152 -67 -152 -154s66 -153 152 -153
s152 66 152 153zM394 532c0 82 -56 141 -137 141s-137 -59 -137 -141c0 -83 56 -141 137 -141s137 58 137 141z" />
    <glyph glyph-name="nine.tosf" 
d="M459 386c0 -49 -14 -106 -46 -162l-202 -355h-53l183 314c-32 -16 -57 -21 -91 -21c-127 0 -200 95 -200 216c0 124 74 225 204 225s205 -90 205 -217zM408 383c0 106 -59 177 -153 177s-154 -71 -154 -177c0 -94 52 -178 154 -178c94 0 153 71 153 178z" />
    <glyph glyph-name="uni2007.tosf" 
 />
    <glyph glyph-name="hyphen.case" horiz-adv-x="426" 
d="M344 332h-262v47h262v-47z" />
    <glyph glyph-name="exclamdown.case" horiz-adv-x="304" 
d="M165 0h-55l3 520h49zM171 645h-67v67h67v-67z" />
    <glyph glyph-name="guillemotleft.case" horiz-adv-x="527" 
d="M238 160l-196 196l196 196v-66l-130 -130l130 -130v-66zM445 160l-196 196l196 196v-66l-130 -130l130 -130v-66z" />
    <glyph glyph-name="uni00AD.case" horiz-adv-x="426" 
d="M344 332h-262v47h262v-47z" />
    <glyph glyph-name="guillemotright.case" horiz-adv-x="527" 
d="M278 356l-196 -196v66l130 130l-130 130v66zM485 356l-196 -196v66l130 130l-130 130v66z" />
    <glyph glyph-name="questiondown.case" horiz-adv-x="488" 
d="M408 170c0 -96 -72 -176 -179 -176c-102 0 -179 76 -179 176c0 47 17 80 44 119l85 125c13 19 18 44 18 60v47h51v-45c0 -39 -9 -61 -29 -90l-84 -124c-20 -31 -34 -53 -34 -92c0 -75 55 -131 128 -131c78 0 128 61 128 131h51zM256 645h-67v67h67v-67z" />
    <glyph glyph-name="endash.case" 
d="M461 332h-408v47h408v-47z" />
    <glyph glyph-name="emdash.case" horiz-adv-x="873" 
d="M791 332h-709v47h709v-47z" />
    <glyph glyph-name="afii00208.case" horiz-adv-x="873" 
d="M791 333h-709v47h709v-47z" />
    <glyph glyph-name="guilsinglleft.case" horiz-adv-x="320" 
d="M238 160l-196 196l196 196v-66l-130 -130l130 -130v-66z" />
    <glyph glyph-name="guilsinglright.case" horiz-adv-x="320" 
d="M278 356l-196 -196v66l130 130l-130 130v66z" />
    <glyph glyph-name="caroncomma.ss01" horiz-adv-x="526" 
d="M596 584l-53 -56v184h53v-128z" />
    <glyph glyph-name="commaaccent.ss01" horiz-adv-x="258" 
d="M188 -133c0 -54 -40 -94 -100 -94v37c33 0 59 25 59 57s-26 57 -59 57v37c60 0 100 -40 100 -94z" />
    <glyph glyph-name="commaturn.ss01" horiz-adv-x="258" 
d="M164 549c-60 0 -100 40 -100 94s40 94 100 94v-37c-33 0 -59 -25 -59 -57s26 -57 59 -57v-37z" />
    <glyph glyph-name="exclam.ss01" horiz-adv-x="304" 
d="M195 712l-6 -520h-44l-6 520h56zM207 37c0 -22 -18 -40 -40 -40s-40 18 -40 40s18 40 40 40s40 -18 40 -40z" />
    <glyph glyph-name="period.ss01" horiz-adv-x="264" 
d="M178 43c0 -25 -21 -46 -46 -46s-46 21 -46 46s21 46 46 46s46 -21 46 -46z" />
    <glyph glyph-name="colon.ss01" horiz-adv-x="292" 
d="M206 343c0 -25 -21 -46 -46 -46s-46 21 -46 46s21 46 46 46s46 -21 46 -46zM206 43c0 -25 -21 -46 -46 -46s-46 21 -46 46s21 46 46 46s46 -21 46 -46z" />
    <glyph glyph-name="semicolon.ss01" horiz-adv-x="292" 
d="M194 -68l-68 -68v204h68v-136zM206 343c0 -25 -21 -46 -46 -46s-46 21 -46 46s21 46 46 46s46 -21 46 -46z" />
    <glyph glyph-name="question.ss01" horiz-adv-x="488" 
d="M438 542c0 -46 -18 -81 -44 -119l-85 -125c-13 -19 -18 -44 -18 -60v-47h-51v45c0 38 9 61 29 90l84 124c20 30 34 54 34 92c0 74 -55 131 -128 131c-78 0 -128 -61 -128 -131h-51c0 95 73 176 179 176c102 0 179 -76 179 -176zM305 37c0 -22 -18 -40 -40 -40
s-40 18 -40 40s18 40 40 40s40 -18 40 -40z" />
    <glyph glyph-name="at.ss01" horiz-adv-x="942" 
d="M873 316c0 -157 -121 -292 -286 -292h-48l13 61c-32 -43 -72 -67 -126 -67c-78 0 -139 42 -139 144c0 26 4 60 8 80c14 77 41 139 83 176c38 33 80 46 120 46c67 0 102 -36 114 -73l14 68h45l-79 -395c135 0 232 123 232 252c0 181 -134 305 -315 305
c-207 0 -376 -171 -376 -384c0 -219 151 -388 383 -388h41l-9 -44h-40c-247 0 -426 185 -426 432c0 240 191 431 427 431c216 0 364 -142 364 -352zM588 321c0 75 -47 100 -92 100c-33 0 -66 -14 -89 -37c-28 -28 -48 -66 -63 -143c-5 -28 -9 -58 -9 -79
c0 -75 46 -101 91 -101c7 0 52 1 90 39c28 28 48 65 63 142c5 28 9 58 9 79z" />
    <glyph glyph-name="C.ss01" horiz-adv-x="596" 
d="M527 83c-57 -54 -116 -89 -201 -89c-71 0 -131 26 -173 68c-66 66 -71 121 -71 294s5 228 71 294c42 42 102 68 173 68c85 0 144 -35 201 -89l-36 -36c-49 48 -91 77 -165 77c-52 0 -98 -18 -135 -55c-51 -51 -55 -109 -55 -259s4 -208 55 -259c37 -37 83 -55 135 -55
c74 0 116 29 165 77z" />
    <glyph glyph-name="G.ss01" horiz-adv-x="648" 
d="M571 248c0 -74 -16 -127 -58 -172c-47 -52 -115 -82 -187 -82c-71 0 -131 26 -173 68c-66 66 -71 121 -71 294s5 228 71 294c42 42 102 68 173 68c92 0 149 -36 212 -99l-36 -36c-54 54 -96 87 -176 87c-52 0 -98 -18 -135 -55c-51 -51 -55 -109 -55 -259s4 -208 55 -259
c37 -37 83 -55 135 -55c56 0 111 24 148 69c31 38 43 80 43 141v64h-191v48h245v-116z" />
    <glyph glyph-name="i.ss01" horiz-adv-x="245" 
d="M148 0h-51v482h51v-482zM160 681c0 -21 -17 -38 -37 -38c-21 0 -38 17 -38 37c0 21 17 38 37 38c21 0 38 -17 38 -37z" />
    <glyph glyph-name="j.ss01" horiz-adv-x="245" 
d="M148 -105c0 -75 -38 -125 -116 -125h-44v45h35c57 0 74 27 74 81v586h51v-587zM160 681c0 -21 -17 -38 -37 -38c-21 0 -38 17 -38 37c0 21 17 38 37 38c21 0 38 -17 38 -37z" />
    <glyph glyph-name="exclamdown.ss01" horiz-adv-x="304" 
d="M165 -230h-56l6 520h44zM177 445c0 -22 -18 -40 -40 -40s-40 18 -40 40s18 40 40 40s40 -18 40 -40z" />
    <glyph glyph-name="dieresis.ss01" horiz-adv-x="500" 
d="M184 638c0 -21 -17 -38 -37 -38c-21 0 -38 17 -38 37c0 21 17 38 37 38c21 0 38 -17 38 -37zM391 638c0 -21 -17 -38 -37 -38c-21 0 -38 17 -38 37c0 21 17 38 37 38c21 0 38 -17 38 -37z" />
    <glyph glyph-name="periodcentered.ss01" horiz-adv-x="264" 
d="M178 260c0 -25 -21 -46 -46 -46s-46 21 -46 46s21 46 46 46s46 -21 46 -46z" />
    <glyph glyph-name="cedilla.ss01" horiz-adv-x="500" 
d="M320 -133c0 -54 -40 -94 -100 -94v37c33 0 59 25 59 57s-26 57 -59 57v37c60 0 100 -40 100 -94z" />
    <glyph glyph-name="questiondown.ss01" horiz-adv-x="488" 
d="M408 -60c0 -95 -73 -176 -179 -176c-102 0 -179 76 -179 176c0 46 18 81 44 119l85 125c13 19 18 44 18 60v47h51v-45c0 -38 -9 -61 -29 -90l-84 -124c-20 -30 -34 -54 -34 -92c0 -74 55 -131 128 -131c78 0 128 61 128 131h51zM263 445c0 -22 -18 -40 -40 -40
s-40 18 -40 40s18 40 40 40s40 -18 40 -40z" />
    <glyph glyph-name="Adieresis.ss01" horiz-adv-x="602" 
d="M587 0h-58l-62 173h-332l-62 -173h-58l262 712h48zM301 640l-149 -419h298zM442 828c0 -21 -17 -38 -37 -38c-21 0 -38 17 -38 37c0 21 17 38 37 38c21 0 38 -17 38 -37zM235 828c0 -21 -17 -38 -37 -38c-21 0 -38 17 -38 37c0 21 17 38 37 38c21 0 38 -17 38 -37z" />
    <glyph glyph-name="Ccedilla.ss01" horiz-adv-x="596" 
d="M527 83c-57 -54 -116 -89 -201 -89c-71 0 -131 26 -173 68c-66 66 -71 121 -71 294s5 228 71 294c42 42 102 68 173 68c85 0 144 -35 201 -89l-36 -36c-49 48 -91 77 -165 77c-52 0 -98 -18 -135 -55c-51 -51 -55 -109 -55 -259s4 -208 55 -259c37 -37 83 -55 135 -55
c74 0 116 29 165 77zM379 -133c0 -54 -40 -94 -100 -94v37c33 0 59 25 59 57s-26 57 -59 57v37c60 0 100 -40 100 -94z" />
    <glyph glyph-name="Edieresis.ss01" horiz-adv-x="598" 
d="M542 0h-432v712h432v-48h-378v-281h322v-48h-322v-287h378v-48zM455 828c0 -21 -17 -38 -37 -38c-21 0 -38 17 -38 37c0 21 17 38 37 38c21 0 38 -17 38 -37zM248 828c0 -21 -17 -38 -37 -38c-21 0 -38 17 -38 37c0 21 17 38 37 38c21 0 38 -17 38 -37z" />
    <glyph glyph-name="Idieresis.ss01" horiz-adv-x="274" 
d="M164 0h-54v712h54v-712zM279 828c0 -21 -17 -38 -37 -38c-21 0 -38 17 -38 37c0 21 17 38 37 38c21 0 38 -17 38 -37zM72 828c0 -21 -17 -38 -37 -38c-21 0 -38 17 -38 37c0 21 17 38 37 38c21 0 38 -17 38 -37z" />
    <glyph glyph-name="Odieresis.ss01" horiz-adv-x="652" 
d="M570 356c0 -173 -5 -228 -71 -294c-42 -42 -102 -68 -173 -68s-131 26 -173 68c-66 66 -71 121 -71 294s5 228 71 294c42 42 102 68 173 68s131 -26 173 -68c66 -66 71 -121 71 -294zM516 356c0 150 -4 208 -55 259c-37 37 -83 55 -135 55s-98 -18 -135 -55
c-51 -51 -55 -109 -55 -259s4 -208 55 -259c37 -37 83 -55 135 -55s98 18 135 55c51 51 55 109 55 259zM467 828c0 -21 -17 -38 -37 -38c-21 0 -38 17 -38 37c0 21 17 38 37 38c21 0 38 -17 38 -37zM260 828c0 -21 -17 -38 -37 -38c-21 0 -38 17 -38 37c0 21 17 38 37 38
c21 0 38 -17 38 -37z" />
    <glyph glyph-name="Udieresis.ss01" horiz-adv-x="688" 
d="M588 231c0 -139 -101 -237 -244 -237s-244 98 -244 237v481h54v-474c0 -118 75 -196 190 -196s190 78 190 196v474h54v-481zM485 828c0 -21 -17 -38 -37 -38c-21 0 -38 17 -38 37c0 21 17 38 37 38c21 0 38 -17 38 -37zM278 828c0 -21 -17 -38 -37 -38
c-21 0 -38 17 -38 37c0 21 17 38 37 38c21 0 38 -17 38 -37z" />
    <glyph glyph-name="adieresis.ss01" horiz-adv-x="524" 
d="M431 0h-51v48c-41 -41 -79 -54 -147 -54c-72 0 -111 12 -142 44c-23 23 -35 58 -35 94c0 88 63 139 168 139h156v54c0 77 -37 118 -136 118c-68 0 -102 -17 -133 -61l-37 32c41 57 91 74 170 74c128 0 187 -57 187 -158v-330zM380 168v62h-150c-82 0 -123 -32 -123 -97
c0 -64 38 -94 126 -94c44 0 85 4 120 37c18 17 27 48 27 92zM183 638c0 -21 -17 -38 -37 -38c-21 0 -38 17 -38 37c0 21 17 38 37 38c21 0 38 -17 38 -37zM390 638c0 -21 -17 -38 -37 -38c-21 0 -38 17 -38 37c0 21 17 38 37 38c21 0 38 -17 38 -37z" />
    <glyph glyph-name="ccedilla.ss01" horiz-adv-x="493" 
d="M440 68c-51 -57 -93 -74 -159 -74c-132 0 -212 94 -212 247s80 247 212 247c66 0 108 -17 159 -74l-35 -32c-41 46 -73 61 -124 61c-55 0 -99 -21 -128 -64c-24 -35 -33 -73 -33 -138s9 -103 33 -138c29 -43 73 -64 128 -64c51 0 83 16 124 61zM320 -133
c0 -54 -40 -94 -100 -94v37c33 0 59 25 59 57s-26 57 -59 57v37c60 0 100 -40 100 -94z" />
    <glyph glyph-name="edieresis.ss01" horiz-adv-x="523" 
d="M455 230h-335c0 -123 54 -190 157 -190c57 0 92 17 133 58l38 -30c-49 -49 -94 -74 -174 -74c-133 0 -205 86 -205 247c0 156 72 247 193 247s193 -87 193 -235v-23zM404 271c-3 46 -4 62 -17 91c-21 51 -69 81 -125 81s-102 -31 -125 -81c-13 -29 -14 -45 -17 -91h284z
M198 638c0 -21 -17 -38 -37 -38c-21 0 -38 17 -38 37c0 21 17 38 37 38c21 0 38 -17 38 -37zM405 638c0 -21 -17 -38 -37 -38c-21 0 -38 17 -38 37c0 21 17 38 37 38c21 0 38 -17 38 -37z" />
    <glyph glyph-name="idieresis.ss01" horiz-adv-x="245" 
d="M148 0h-51v482h51v-482zM61 638c0 -21 -17 -38 -37 -38c-21 0 -38 17 -38 37c0 21 17 38 37 38c21 0 38 -17 38 -37zM268 638c0 -21 -17 -38 -37 -38c-21 0 -38 17 -38 37c0 21 17 38 37 38c21 0 38 -17 38 -37z" />
    <glyph glyph-name="odieresis.ss01" horiz-adv-x="526" 
d="M457 241c0 -69 -9 -143 -60 -194c-35 -35 -80 -53 -134 -53s-99 18 -134 53c-51 51 -60 125 -60 194s9 143 60 194c35 35 80 53 134 53s99 -18 134 -53c51 -51 60 -125 60 -194zM406 241c0 56 -3 121 -43 161c-27 27 -61 41 -100 41s-73 -14 -100 -41
c-40 -40 -43 -105 -43 -161s3 -121 43 -161c27 -27 61 -41 100 -41s73 14 100 41c40 40 43 105 43 161zM197 638c0 -21 -17 -38 -37 -38c-21 0 -38 17 -38 37c0 21 17 38 37 38c21 0 38 -17 38 -37zM404 638c0 -21 -17 -38 -37 -38c-21 0 -38 17 -38 37c0 21 17 38 37 38
c21 0 38 -17 38 -37z" />
    <glyph glyph-name="divide.ss01" 
d="M303 94c0 -25 -21 -46 -46 -46s-46 21 -46 46s21 46 46 46s46 -21 46 -46zM461 240h-408v47h408v-47zM303 433c0 -25 -21 -46 -46 -46s-46 21 -46 46s21 46 46 46s46 -21 46 -46z" />
    <glyph glyph-name="udieresis.ss01" horiz-adv-x="559" 
d="M462 0h-51v57c-36 -42 -83 -63 -142 -63c-53 0 -96 15 -128 46c-33 32 -50 77 -50 134v308h51v-299c0 -93 46 -144 133 -144s136 52 136 144v299h51v-482zM210 638c0 -21 -17 -38 -37 -38c-21 0 -38 17 -38 37c0 21 17 38 37 38c21 0 38 -17 38 -37zM417 638
c0 -21 -17 -38 -37 -38c-21 0 -38 17 -38 37c0 21 17 38 37 38c21 0 38 -17 38 -37z" />
    <glyph glyph-name="ydieresis.ss01" horiz-adv-x="430" 
d="M416 482l-224 -613c-9 -26 -20 -45 -33 -56c-24 -23 -59 -31 -91 -31h-24v45h19c55 0 71 18 88 66l39 107l-176 482h56l145 -422l145 422h56zM149 638c0 -21 -17 -38 -37 -38c-21 0 -38 17 -38 37c0 21 17 38 37 38c21 0 38 -17 38 -37zM356 638c0 -21 -17 -38 -37 -38
c-21 0 -38 17 -38 37c0 21 17 38 37 38c21 0 38 -17 38 -37z" />
    <glyph glyph-name="Aogonek.ss01" horiz-adv-x="602" 
d="M587 0h-58l-62 173h-332l-62 -173h-58l262 712h48zM301 640l-149 -419h298zM579 -227c-60 0 -100 40 -100 94s40 94 100 94v-37c-33 0 -59 -25 -59 -57s26 -57 59 -57v-37z" />
    <glyph glyph-name="aogonek.ss01" horiz-adv-x="524" 
d="M431 0h-51v48c-41 -41 -79 -54 -147 -54c-72 0 -111 12 -142 44c-23 23 -35 58 -35 94c0 88 63 139 168 139h156v54c0 77 -37 118 -136 118c-68 0 -102 -17 -133 -61l-37 32c41 57 91 74 170 74c128 0 187 -57 187 -158v-330zM380 168v62h-150c-82 0 -123 -32 -123 -97
c0 -64 38 -94 126 -94c44 0 85 4 120 37c18 17 27 48 27 92zM423 -227c-60 0 -100 40 -100 94s40 94 100 94v-37c-33 0 -59 -25 -59 -57s26 -57 59 -57v-37z" />
    <glyph glyph-name="Cacute.ss01" horiz-adv-x="596" 
d="M527 83c-57 -54 -116 -89 -201 -89c-71 0 -131 26 -173 68c-66 66 -71 121 -71 294s5 228 71 294c42 42 102 68 173 68c85 0 144 -35 201 -89l-36 -36c-49 48 -91 77 -165 77c-52 0 -98 -18 -135 -55c-51 -51 -55 -109 -55 -259s4 -208 55 -259c37 -37 83 -55 135 -55
c74 0 116 29 165 77zM426 927l-106 -147h-58l97 147h67z" />
    <glyph glyph-name="Ccircumflex.ss01" horiz-adv-x="596" 
d="M527 83c-57 -54 -116 -89 -201 -89c-71 0 -131 26 -173 68c-66 66 -71 121 -71 294s5 228 71 294c42 42 102 68 173 68c85 0 144 -35 201 -89l-36 -36c-49 48 -91 77 -165 77c-52 0 -98 -18 -135 -55c-51 -51 -55 -109 -55 -259s4 -208 55 -259c37 -37 83 -55 135 -55
c74 0 116 29 165 77zM476 780h-57l-93 109l-93 -109h-57l123 147h54z" />
    <glyph glyph-name="Cdotaccent.ss01" horiz-adv-x="596" 
d="M527 83c-57 -54 -116 -89 -201 -89c-71 0 -131 26 -173 68c-66 66 -71 121 -71 294s5 228 71 294c42 42 102 68 173 68c85 0 144 -35 201 -89l-36 -36c-49 48 -91 77 -165 77c-52 0 -98 -18 -135 -55c-51 -51 -55 -109 -55 -259s4 -208 55 -259c37 -37 83 -55 135 -55
c74 0 116 29 165 77zM363 830c0 -21 -17 -38 -37 -38c-21 0 -38 17 -38 37c0 21 17 38 37 38c21 0 38 -17 38 -37z" />
    <glyph glyph-name="cdotaccent.ss01" horiz-adv-x="493" 
d="M440 68c-51 -57 -93 -74 -159 -74c-132 0 -212 94 -212 247s80 247 212 247c66 0 108 -17 159 -74l-35 -32c-41 46 -73 61 -124 61c-55 0 -99 -21 -128 -64c-24 -35 -33 -73 -33 -138s9 -103 33 -138c29 -43 73 -64 128 -64c51 0 83 16 124 61zM318 650
c0 -21 -17 -38 -37 -38c-21 0 -38 17 -38 37c0 21 17 38 37 38c21 0 38 -17 38 -37z" />
    <glyph glyph-name="Ccaron.ss01" horiz-adv-x="596" 
d="M527 83c-57 -54 -116 -89 -201 -89c-71 0 -131 26 -173 68c-66 66 -71 121 -71 294s5 228 71 294c42 42 102 68 173 68c85 0 144 -35 201 -89l-36 -36c-49 48 -91 77 -165 77c-52 0 -98 -18 -135 -55c-51 -51 -55 -109 -55 -259s4 -208 55 -259c37 -37 83 -55 135 -55
c74 0 116 29 165 77zM461 927l-123 -147h-54l-123 147h57l93 -109l93 109h57z" />
    <glyph glyph-name="dcaron.ss01" horiz-adv-x="540" 
d="M443 0h-51v62c-43 -56 -88 -68 -143 -68c-51 0 -93 17 -118 42c-49 49 -62 129 -62 205s13 156 62 205c25 25 67 42 118 42c55 0 100 -12 143 -68v292h51v-712zM392 241c0 100 -18 202 -136 202s-136 -102 -136 -202s18 -202 136 -202s136 102 136 202zM596 584l-53 -56
v184h53v-128z" />
    <glyph glyph-name="Edotaccent.ss01" horiz-adv-x="598" 
d="M542 0h-432v712h432v-48h-378v-281h322v-48h-322v-287h378v-48zM352 830c0 -21 -17 -38 -37 -38c-21 0 -38 17 -38 37c0 21 17 38 37 38c21 0 38 -17 38 -37z" />
    <glyph glyph-name="edotaccent.ss01" horiz-adv-x="523" 
d="M455 230h-335c0 -123 54 -190 157 -190c57 0 92 17 133 58l38 -30c-49 -49 -94 -74 -174 -74c-133 0 -205 86 -205 247c0 156 72 247 193 247s193 -87 193 -235v-23zM404 271c-3 46 -4 62 -17 91c-21 51 -69 81 -125 81s-102 -31 -125 -81c-13 -29 -14 -45 -17 -91h284z
M298 648c0 -21 -17 -38 -37 -38c-21 0 -38 17 -38 37c0 21 17 38 37 38c21 0 38 -17 38 -37z" />
    <glyph glyph-name="Eogonek.ss01" horiz-adv-x="598" 
d="M542 0h-432v712h432v-48h-378v-281h322v-48h-322v-287h378v-48zM534 -227c-60 0 -100 40 -100 94s40 94 100 94v-37c-33 0 -59 -25 -59 -57s26 -57 59 -57v-37z" />
    <glyph glyph-name="eogonek.ss01" horiz-adv-x="523" 
d="M455 230h-335c0 -123 54 -190 157 -190c57 0 92 17 133 58l38 -30c-49 -49 -94 -74 -174 -74c-133 0 -205 86 -205 247c0 156 72 247 193 247s193 -87 193 -235v-23zM404 271c-3 46 -4 62 -17 91c-21 51 -69 81 -125 81s-102 -31 -125 -81c-13 -29 -14 -45 -17 -91h284z
M420 -227c-60 0 -100 40 -100 94s40 94 100 94v-37c-33 0 -59 -25 -59 -57s26 -57 59 -57v-37z" />
    <glyph glyph-name="Gcircumflex.ss01" horiz-adv-x="648" 
d="M571 248c0 -74 -16 -127 -58 -172c-47 -52 -115 -82 -187 -82c-71 0 -131 26 -173 68c-66 66 -71 121 -71 294s5 228 71 294c42 42 102 68 173 68c92 0 149 -36 212 -99l-36 -36c-54 54 -96 87 -176 87c-52 0 -98 -18 -135 -55c-51 -51 -55 -109 -55 -259s4 -208 55 -259
c37 -37 83 -55 135 -55c56 0 111 24 148 69c31 38 43 80 43 141v64h-191v48h245v-116zM476 780h-57l-93 109l-93 -109h-57l123 147h54z" />
    <glyph glyph-name="Gbreve.ss01" horiz-adv-x="648" 
d="M571 248c0 -74 -16 -127 -58 -172c-47 -52 -115 -82 -187 -82c-71 0 -131 26 -173 68c-66 66 -71 121 -71 294s5 228 71 294c42 42 102 68 173 68c92 0 149 -36 212 -99l-36 -36c-54 54 -96 87 -176 87c-52 0 -98 -18 -135 -55c-51 -51 -55 -109 -55 -259s4 -208 55 -259
c37 -37 83 -55 135 -55c56 0 111 24 148 69c31 38 43 80 43 141v64h-191v48h245v-116zM491 927c-9 -85 -57 -135 -165 -135s-156 50 -165 135h45c8 -56 51 -90 120 -90s112 34 120 90h45z" />
    <glyph glyph-name="Gdotaccent.ss01" horiz-adv-x="648" 
d="M571 248c0 -74 -16 -127 -58 -172c-47 -52 -115 -82 -187 -82c-71 0 -131 26 -173 68c-66 66 -71 121 -71 294s5 228 71 294c42 42 102 68 173 68c92 0 149 -36 212 -99l-36 -36c-54 54 -96 87 -176 87c-52 0 -98 -18 -135 -55c-51 -51 -55 -109 -55 -259s4 -208 55 -259
c37 -37 83 -55 135 -55c56 0 111 24 148 69c31 38 43 80 43 141v64h-191v48h245v-116zM363 830c0 -21 -17 -38 -37 -38c-21 0 -38 17 -38 37c0 21 17 38 37 38c21 0 38 -17 38 -37z" />
    <glyph glyph-name="gdotaccent.ss01" horiz-adv-x="540" 
d="M443 -27c0 -121 -72 -209 -197 -209c-72 0 -109 19 -159 64l34 34c38 -35 64 -53 125 -53c101 0 146 71 146 167v86c-43 -56 -88 -68 -143 -68c-51 0 -93 17 -118 42c-49 49 -62 129 -62 205s13 156 62 205c25 25 67 42 118 42c55 0 100 -12 143 -68v62h51v-509zM392 241
c0 100 -18 202 -136 202s-136 -102 -136 -202s18 -202 136 -202s136 102 136 202zM293 650c0 -21 -17 -38 -37 -38c-21 0 -38 17 -38 37c0 21 17 38 37 38c21 0 38 -17 38 -37z" />
    </font>
</defs>
</svg>
